<?xml version="1.0" standalone="no"?>
<!DOCTYPE svg PUBLIC "-//W3C//DTD SVG 1.1//EN" "http://www.w3.org/Graphics/SVG/1.1/DTD/svg11.dtd" >
<svg xmlns="http://www.w3.org/2000/svg">
<metadata></metadata>
<defs>
<font id="Segoe_Print_Regular" horiz-adv-x="1496" >
<font-face units-per-em="2048" ascent="1638" descent="-410" />
<missing-glyph horiz-adv-x="500" />
<glyph horiz-adv-x="0" />
<glyph unicode="&#xd;" horiz-adv-x="819" />
<glyph unicode="!" horiz-adv-x="664" d="M143 117q0 38 36 90.5t74 52.5q25 0 62.5 -22t36.5 -37q0 -99 -49.5 -140t-85.5 -41q-74 0 -74 97zM223 526q-13 107 50 402q51 238 51 333q0 134 49 181t82 47q25 0 51 -21t26 -47q0 -22 -110 -507q-46 -203 -48 -311q-2 -70 -22 -105q-25 0 -69 8t-60 20z" />
<glyph unicode="&#x22;" horiz-adv-x="827" d="M131 909q0 28 25 117l38 209q22 119 31 180q10 78 64 78q23 0 45 -26.5t22 -53.5q0 -20 -4 -50l-4 -33q-2 -18 -6 -38l-8 -57q-3 -29 -22 -83q-20 -56 -21 -83q-15 -186 -34.5 -225t-57.5 -39q-68 0 -68 104zM520 891q0 60 35 188q39 135 51 222q23 139 39 165.5t49 26.5 q25 0 49.5 -20t24.5 -48q0 -25 -25 -129q-29 -121 -44 -226q-29 -209 -47.5 -245.5t-59.5 -36.5q-72 0 -72 103z" />
<glyph unicode="#" horiz-adv-x="1632" d="M43 446q0 32 49.5 59t85.5 27q63 0 136 -7q74 -7 128 -7q20 41 34 97q43 179 61 190q-35 8 -188 -16q-119 -19 -159 -19q-122 0 -122 51q0 31 27.5 43.5t178.5 36.5q31 5 64 11q132 24 186 26q61 40 122 208q30 82 56.5 113t67.5 31q27 0 27 -45q0 -44 -47 -150 q-49 -105 -56 -145l322 41q21 28 54 200q39 203 63 253q26 37 63 37q51 0 51 -62q0 -45 -29 -118q-35 -87 -64 -189q-14 -55 -30 -106q99 11 177 23q79 11 163 11q68 0 84.5 -16.5t16.5 -50.5q0 -13 -9 -33t-20 -20q-328 0 -444 -39q-9 -50 -36 -136q-27 -89 -38 -133 q10 -28 41 -28q17 0 133 26q116 27 137 27q87 0 110 -24t23 -81q0 -25 -25 -41t-51 -16q-18 0 -44 14q-25 15 -54 15q-79 0 -143 -19q-53 -14 -164 -14q-1 -7 -21 -55q-40 -107 -40 -144l4 -55q0 -31 -19 -65.5t-53 -34.5q-19 0 -38 35t-19 59q0 64 25 149q12 40 18 74 q-53 -3 -163 -21l-143 -20q-88 -303 -145 -303q-43 0 -43 45q0 125 70 258q-27 3 -167 0t-172 5.5t-32 47.5zM561 532q145 11 176 11q80 0 154 41q3 7 27 82q10 32 27 80q25 72 30 124q-234 -20 -330 -49q-49 -115 -84 -289z" />
<glyph unicode="$" horiz-adv-x="1124" d="M27 170q0 48 45 88t198 49l118 11q38 4 124 38q35 247 35 353q-21 16 -125 57q-107 32 -174.5 93.5t-67.5 144.5q0 69 157 136t257 72q6 38 6 76v221q0 30 35.5 47t62.5 17q66 0 66 -111q0 -37 -16 -113q-15 -78 -15 -108q30 5 113 5q30 0 68 9q29 7 55 7q67 0 67 -78 q0 -57 -35.5 -67t-190.5 -10h-58q-21 0 -29 -1q-4 -48 -14 -128q-19 -150 -19 -204q0 -3 8 -8t9 -10q50 -30 77 -47q13 -9 49 -27q58 -24 81.5 -59t23.5 -117q0 -157 -299 -242q0 -26 -14 -166q-13 -130 -13 -155t10 -72q11 -55 11 -74q0 -15 -22.5 -27t-45.5 -12 q-86 0 -86 104v32q0 34 10 136q11 112 11 163q-23 -8 -67 -13q-63 -8 -165 -35q-106 -26 -133 -26q-36 0 -72 14t-36 37zM348 977q13 -48 215 -131l21 235q-204 -42 -236 -104zM653 393q162 88 162 119q0 30 -52 78.5t-85 66.5q-25 -174 -25 -264z" />
<glyph unicode="%" horiz-adv-x="1495" d="M150 965q0 44 44.5 166.5t135.5 197t202 74.5q42 0 93 -53q29 -8 518 -45q14 -17 14 -37q0 -42 -57 -72q-61 -115 -196 -315q-150 -230 -203 -321t-130 -262q-64 -147 -85.5 -187.5t-46.5 -57t-27 -16.5q-52 0 -52 69q0 54 83 252t202 361q86 121 259 408q25 41 42 67 q-145 41 -315 31q20 -46 20 -97q0 -84 -53.5 -180t-148.5 -146t-162 -50q-137 0 -137 213zM272 971q0 -46 3 -59t31 -27.5t65 -14.5q62 0 111.5 75t49.5 142q0 47 -32 166q-12 0 -34 -4t-34 -4q-48 -1 -104 -107.5t-56 -166.5zM831 250q0 105 82.5 225.5t166.5 120.5 q125 0 217 -63.5t92 -159.5q0 -57 -15.5 -103t-64 -90.5t-125 -82.5t-174.5 -38q-111 0 -145 68t-34 123zM973 260q0 -57 22 -78q26 6 52 6l43 -4q14 0 94 41.5t80 134.5q0 25 -20.5 47.5t-45.5 28.5q-15 4 -47 23q-35 20 -47 20q-48 0 -89.5 -65.5t-41.5 -153.5z" />
<glyph unicode="&#x26;" horiz-adv-x="1892" d="M175 286q0 88 75 229t291 269q22 15 22 35q0 35 -11 154q-13 129 -13 153q0 178 75.5 278.5t221.5 100.5q100 0 161.5 -84t61.5 -198q0 -70 -29.5 -136.5t-77 -117t-191.5 -177.5q-16 -15 -16 -24q0 -72 118 -232.5t250 -243.5q39 0 81 87l25 49q30 57 88 204 q-184 14 -217 31t-33 91q0 26 41.5 43.5t70.5 17.5q23 0 42 -7q100 -38 164 -38q52 0 194 17q141 16 175 16q84 0 84 -43q0 -38 -49 -60t-240 -55q-32 -5 -54.5 -28.5t-72.5 -131.5q-46 -97 -66 -125q-82 -116 -82 -127q0 -25 78 -56.5t161 -31.5q16 0 92 12q75 11 91 11 q82 0 82 -57q0 -21 -74.5 -71t-175.5 -50q-174 0 -275 53q-20 20 -80 49t-64 27l-12 -8q-1 -1 -38 -23q-48 -28 -122 -75q-44 -29 -137 -58t-139 -29q-234 0 -355 114.5t-121 245.5zM358 295q0 -88 93 -149.5t192 -61.5t328 108q-19 29 -106 109q-80 73 -95 92.5t-45 70.5 q-110 179 -123 193q-102 -50 -173 -160t-71 -202zM686 1141q0 -226 20 -234q201 161 201 338q0 39 -39.5 79t-71.5 40q-46 0 -78 -57t-32 -166z" />
<glyph unicode="'" horiz-adv-x="473" d="M133 887q0 49 23.5 196t72.5 271.5t99 124.5q29 0 46 -22.5t17 -53.5q0 -25 -23 -77q-22 -50 -26 -66q-3 -13 -28 -101q-34 -112 -34 -214q0 -92 -13.5 -136.5t-57.5 -44.5q-32 0 -54 43t-22 80z" />
<glyph unicode="(" horiz-adv-x="823" d="M70 425v33q0 147 27.5 252.5t106.5 278.5q107 231 158 293q23 29 172 164q91 83 136 102.5t73 19.5q43 0 43 -52q0 -34 -144 -172q-195 -183 -315 -429t-120 -428q0 -87 49 -336q6 -31 8 -47q33 -162 78 -243t143 -166q107 -92 107 -144q0 -58 -98 -58q-60 0 -140.5 91 t-145 187.5t-101.5 318t-37 335.5z" />
<glyph unicode=")" horiz-adv-x="745" d="M25 1521q0 15 29 40t59 25q44 0 95.5 -56.5t156.5 -217t131 -249.5q26 -85 54 -166q81 -236 81 -504q0 -364 -247 -682q-42 -56 -60 -90q-31 -60 -55 -94.5t-54 -34.5q-33 0 -61.5 21.5t-28.5 44.5q0 20 16.5 50t112.5 151q68 82 150.5 295t82.5 263q0 320 -90 570 t-159 361.5t-201 231.5q-12 12 -12 41z" />
<glyph unicode="*" horiz-adv-x="1053" d="M37 1038q0 13 12.5 32.5t75 34.5t84.5 15q159 0 205 21q-9 20 -73 95q-10 11 -11 13q-76 100 -76 137q0 12 11 26.5t22 14.5q58 0 209 -213q43 43 163 187q61 92 97 92q24 0 43.5 -14t19.5 -37q5 -16 -39 -50q-11 -8 -18 -18q-59 -101 -116 -150q-26 -24 -40 -38 q15 -6 33 -6q71 0 201 26q89 17 129 17q19 0 33 -29t14 -47q0 -24 -26.5 -34.5t-153.5 -17.5q-201 -7 -224 -28q7 -13 81 -101q136 -155 136 -188q0 -28 -18 -48.5t-41 -20.5q-26 0 -65 49q-17 22 -21 26q-14 16 -59 73q-108 141 -131 159q-23 -13 -78 -129 q-111 -228 -152 -228q-4 0 -39 20t-35 60q0 19 139 206q51 71 60 87q-18 3 -82 2t-78 -5t-112 -31q-40 -11 -58 -11q-7 0 -14.5 21t-7.5 30z" />
<glyph unicode="+" horiz-adv-x="1169" d="M94 547q0 20 14.5 42.5t32.5 22.5q35 0 73 -7q39 -7 58 -7l201 10q12 38 12 78q0 54 -8 184q-4 54 -4 93q0 34 20.5 68t51.5 34q16 0 35.5 -33t19.5 -51q0 -52 -9 -139t-9 -119q0 -51 6 -102q20 -7 117 -7l229 4q93 0 120 -20t27 -92q-21 -27 -92 -27q-26 0 -86 7 q-68 8 -98 8h-66q-29 0 -52 -1h-48q-24 0 -51 -1q-22 -43 -22 -136q0 -114 -5 -143q-5 -28 -2 -79.5t-55 -51.5q-43 0 -56.5 16.5t-13.5 59.5q0 23 17 157q8 65 16 177q-64 6 -193 6q-22 0 -59 -10q-39 -9 -51 -9q-27 0 -48.5 20.5t-21.5 47.5z" />
<glyph unicode="," horiz-adv-x="700" d="M145 -215q0 18 7 25q186 46 239 130.5t53 120.5q0 102 -28 144q-13 19 -13 37q0 15 13.5 43t27.5 28q21 0 66 -15.5t53 -27t26.5 -74.5t18.5 -108q0 -17 -37.5 -105.5t-102.5 -138t-122 -60.5q-23 -4 -43 -11q-79 -35 -129 -35q-29 0 -29 47z" />
<glyph unicode="-" horiz-adv-x="1313" d="M352 578q0 16 13.5 37.5t91.5 34t112 12.5l76 -11h73q186 0 277 13q44 6 88 6q19 0 77.5 -23t69.5 -38.5t11 -41.5q0 -37 -15 -52t-65 -15q-22 0 -62 13t-67 13q-11 0 -73 -5q-33 -3 -120 5q-67 6 -100 6q-46 0 -139 -6t-141 -6t-77.5 10.5t-29.5 47.5z" />
<glyph unicode="." horiz-adv-x="514" d="M131 150q0 79 9 94t43.5 23.5t93.5 8.5h22q18 0 43 -17.5t25 -47.5q0 -60 -21 -88t-67.5 -62t-65.5 -34q-42 0 -62 19t-20 104z" />
<glyph unicode="/" horiz-adv-x="1178" d="M-16 -53q0 18 49.5 122t157 268.5t195.5 281.5q9 12 15 22q64 104 188 284q134 191 237 362q48 79 128 184.5t115 105.5q20 0 50 -36t30 -58q0 -39 -136 -226q-294 -401 -564 -804q-33 -49 -93 -135q-100 -148 -122 -200t-89.5 -150.5t-83.5 -98.5q-25 0 -51 26t-26 52z " />
<glyph unicode="0" d="M20 356q0 199 122 439t355.5 394t411.5 154q130 0 280 -86t210 -193t60 -284q0 -265 -345.5 -535t-759.5 -270q-160 0 -247 109t-87 272zM214 408q0 -177 83 -222t181 -45q124 0 310 99t344 254.5t158 253.5q0 56 -18 130.5t-39.5 102.5t-80 90t-94.5 78q-23 -29 -72 -29 q-7 0 -38 22q-32 23 -58 23q-123 0 -195 -38.5t-197.5 -159.5t-204.5 -265.5t-79 -293.5z" />
<glyph unicode="1" d="M141 68q0 53 90.5 77.5t157.5 36.5q215 44 252 66q11 191 45 438l57 422q-58 0 -161 -70q-183 -120 -322 -120q-45 0 -45 63q0 40 15.5 53t139.5 66.5t312 165.5t205 112q32 0 55 -44t23 -77q0 -28 -29 -57q-98 -428 -114 -655.5t-5 -265.5q76 3 219 43q197 53 318 53 q24 -46 24 -78q0 -34 -10 -44t-66 -29t-193 -37q-201 -28 -267 -60l4 -59q0 -52 -131 -52q-14 0 -40 34q-24 32 -36 28q-11 0 -109.5 -27t-117.5 -35q-121 -39 -170 -39q-46 0 -73.5 31t-27.5 60z" />
<glyph unicode="2" d="M23 -35q0 105 86 185.5t289 183.5q119 59 145 81t143.5 129t178.5 184t87.5 137.5t26.5 111.5q0 70 -83 142.5t-154 72.5q-61 0 -184 -76.5t-183 -147.5q-39 -46 -119 -46q-19 0 -41 43t-22 69q0 19 5 26t100.5 75t172 117.5t153.5 75.5t198 26q103 0 193.5 -85.5 t134.5 -168t44 -94.5q0 -137 -204.5 -379t-446.5 -373q52 4 158 4q131 0 435 -19q83 -4 106.5 -3t61.5 16q41 16 62 16q17 0 39.5 -25.5t22.5 -43.5q0 -65 -68 -101.5t-121 -36.5h-37q-96 0 -141 13q-139 37 -346 37q-177 0 -311 -43t-174 -91q-45 -54 -67.5 -67.5 t-61.5 -13.5q-78 0 -78 69z" />
<glyph unicode="3" d="M132 145q0 105 99 105q4 0 15 -5l69 -29q114 -52 208 -52q82 0 250 32.5t282 139t114 170.5q0 109 -114.5 144.5t-254.5 35.5q-195 0 -326 -74q-73 0 -73 43q0 24 14 53.5t81 87.5l178 152q110 94 241 187q-55 9 -294 -20q-185 -23 -259 -23q-172 0 -172 157 q0 31 20.5 54.5t50.5 23.5q22 0 54 -23q40 -28 62.5 -36t66.5 -8q71 0 260 18q249 29 397 29q123 0 123 -80q0 -57 -50.5 -97t-146.5 -97q-127 -76 -177.5 -113.5t-100.5 -98.5q110 8 166 8q121 0 208 -30.5t130.5 -79.5t66.5 -79t23 -108q0 -67 -98 -216.5t-324 -237.5 t-441 -88q-62 0 -178.5 15.5t-143 56.5t-26.5 83z" />
<glyph unicode="4" d="M32 504q45 124 489 475q142 111 230 191q92 85 205 169t133 84q81 0 81 -41q-7 -29 -57 -208q-87 -341 -110 -498q65 -25 236 -25h69q57 0 83.5 -23.5t26.5 -99.5q0 -23 -18 -41t-41 -18q-28 0 -47 10q-138 50 -332 39q-33 -114 -33 -213l1 -45v-41l1 -45q1 -39 0 -52.5 t26 -46.5q26 -32 26 -44q0 -30 -32.5 -66.5t-62.5 -36.5q-79 0 -105 36.5t-26 109.5q0 39 8 123q7 81 9 122q4 97 24 187q-24 4 -71 4q-213 0 -345 -35q-144 -39 -260 -39q-48 0 -108 68zM329 623q0 -15 18 -15q39 16 293 33q143 10 209 29q8 64 29 144q71 270 71 335 q-37 -37 -170 -142q-111 -88 -157 -137q-107 -113 -293 -247z" />
<glyph unicode="5" d="M137 154q0 96 121 96q27 0 58 -25q111 -78 255 -78q153 0 314.5 91t161.5 174q0 106 -78.5 162.5t-244.5 74.5l-226 25q-95 12 -147 49.5t-52 69.5q0 34 37 77q8 11 87 126q163 243 205.5 256.5t539.5 29.5q88 2 182 29q74 20 92 20q62 0 108 -37q33 -17 33 -37 q0 -29 -37 -73t-106.5 -54t-173.5 -10l-334 10q-147 0 -230 -28q-57 -54 -135 -170q-21 -31 -34 -49q-14 -19 -19 -27q56 -34 217 -57q206 -30 306.5 -68t145 -110.5t44.5 -197.5q0 -78 -72 -175t-240 -184t-372 -87q-167 0 -286.5 66t-119.5 111z" />
<glyph unicode="6" d="M158 343q0 172 46 277.5t129.5 222t160.5 187.5q26 24 84 87q109 120 182.5 170t141.5 50q34 0 64 -23.5t30 -58.5q0 -69 -41 -77q-35 0 -49 -9q-131 -37 -281 -225q-27 -36 -93 -100q-72 -69 -108.5 -122.5t-69 -149.5t-32.5 -179q0 -51 21 -94t129 -111 q-20 157 55 294.5t189 198t353 60.5q115 0 207.5 -79.5t92.5 -190.5q0 -73 -60 -153t-197 -167t-217.5 -118t-293.5 -31q-111 0 -197.5 38t-166 132t-79.5 171zM590 174q33 -10 89 -10l98 4q98 0 276.5 123t178.5 221q-113 82 -263 82q-356 0 -379 -420z" />
<glyph unicode="7" d="M263 1210q0 31 26 61t55 30q36 0 169 -8q132 -9 256 -9q227 0 418 21q125 13 190 13q61 0 61 -60q0 -29 -8 -40.5t-54.5 -68t-81.5 -96.5q-37 -42 -116 -162l-88 -131q-94 -144 -183 -328.5t-107.5 -239t-18.5 -116.5q0 -46 -26 -75.5t-66 -29.5q-43 0 -70 43.5t-27 89.5 q0 48 118.5 286t246.5 430t167 233q44 47 79 93l-19 14q-459 -27 -863 -27q-23 0 -40.5 23.5t-17.5 53.5z" />
<glyph unicode="8" d="M279 213q0 70 62 152.5t152 141.5q112 77 140 99l-53 30q-151 80 -213.5 156.5t-62.5 142.5q0 71 50.5 132.5t210.5 148.5q40 21 78 44q88 55 218 55q42 0 124 -34.5t107.5 -62t37.5 -108.5q11 -79 13 -80q12 15 26 37q17 28 23 35q21 -5 42.5 -31t21.5 -49 q0 -25 -61 -110t-159 -153q-136 -96 -165 -124q106 -43 207.5 -146.5t101.5 -189.5q0 -90 -31.5 -159.5t-206.5 -116t-278 -46.5q-78 0 -193 27.5t-153.5 76t-38.5 132.5zM453 211q0 -42 56.5 -66t103.5 -24q224 0 316.5 46t92.5 103v21q0 60 -84 139.5t-180 118.5 q-305 -214 -305 -338zM478 948q0 -88 217 -208q47 -26 73 -42q240 194 240 287q0 80 -50 130t-130 50q-90 0 -220 -83t-130 -134z" />
<glyph unicode="9" d="M266 748q0 63 19 119t65 118.5t153 149.5t160.5 113t159.5 53.5t164 27.5q54 0 97.5 -18.5t106.5 -77t77.5 -64.5t29.5 -67q0 -30 -24 -86q-91 -222 -165.5 -495.5t-74.5 -364.5q0 -150 -68 -150q-61 0 -83.5 56.5t-22.5 99.5q0 56 107 418l20 69l-18 13 q-171 -101 -258.5 -129.5t-219.5 -28.5q-61 0 -143 91.5t-82 152.5zM434 780q0 -66 42.5 -101.5t109.5 -35.5q70 0 167.5 44t175.5 93.5t99 73.5t40 80q38 117 56 147q-29 86 -172 86q-207 0 -362.5 -148t-155.5 -239z" />
<glyph unicode=":" horiz-adv-x="610" d="M188 139q0 49 4 73t40 50.5t61 26.5q47 0 89 -20.5t42 -59.5q0 -83 -62.5 -136t-76.5 -53q-58 0 -77.5 29.5t-19.5 89.5zM207 887q0 14 31.5 69.5t99.5 55.5q7 0 51 -25.5t52 -41t8 -56.5q0 -36 -41 -81.5t-119 -45.5q-25 0 -53.5 47t-28.5 78z" />
<glyph unicode=";" horiz-adv-x="676" d="M4 -207q0 20 8 31q182 44 236.5 128.5t54.5 123.5q0 108 -26 147q-13 19 -13 37q0 21 15 46.5t36 25.5q38 0 68 -13.5t38 -33.5t22 -81t14 -102q0 -26 -32 -99t-58.5 -101t-147.5 -89t-188 -61q-27 0 -27 41zM250 879q0 15 23.5 75t66.5 60q3 0 59 -24t68 -41t12 -60 q0 -47 -56 -79t-106 -32q-25 0 -46 37.5t-21 63.5z" />
<glyph unicode="&#x3c;" horiz-adv-x="1098" d="M113 618q0 26 20 64.5t134 121.5q14 10 18 15q92 118 323 289q134 99 168 137q31 36 45.5 43.5t38.5 7.5q28 0 49 -17t21 -44q0 -82 -385 -365q-38 -28 -92 -84q-44 -44 -144 -137q12 -16 71 -45t62 -29q17 -8 47 -32q29 -24 56 -35q344 -148 390 -173.5t46 -78.5 q0 -26 -28 -57t-58 -31q-5 0 -64 33q-213 118 -335 168q-75 29 -229 119t-154 130z" />
<glyph unicode="=" horiz-adv-x="1282" d="M146 904q0 29 17.5 53.5t104.5 39t141 14.5q22 0 63 -5q55 -4 188 -0.5t205 19.5q6 2 76.5 1t116 -34.5t45.5 -80.5q0 -86 -77 -86q-22 0 -61 17q-43 15 -63 15q-15 0 -44 -5q-30 -6 -46 -6q-31 0 -90 6q-60 6 -99 6q-74 0 -195 -14q-122 -15 -199 -15q-43 0 -63 13.5 t-20 61.5zM165 457q0 30 68 45.5t121 15.5l251 -6q31 0 73 7q50 9 117 9q123 0 223 -24t100 -83q0 -28 -16 -55.5t-32 -27.5q-26 0 -94 12q-83 12 -127 9.5t-174 -2.5h-122l-314 -5q-16 0 -45 42t-29 63z" />
<glyph unicode="&#x3e;" horiz-adv-x="1174" d="M166 1208q0 49 49 49q24 0 114 -69q68 -52 245.5 -164t299.5 -178q162 -83 175.5 -106t13.5 -50q0 -29 -199 -168q-17 -11 -60 -46t-110 -108l-165 -179q-50 -55 -82 -81t-62 -26q-28 0 -56 24t-28 54q0 33 58 77q18 13 36 31q143 169 278 281q109 84 156 135 q-57 75 -122 107q-37 19 -145 78q-115 64 -180 97q-90 44 -153 109t-63 133z" />
<glyph unicode="?" horiz-adv-x="1055" d="M164 59q0 38 65 80q14 10 22 17q21 18 56 18q23 0 68 -35q71 0 71 -59q0 -51 -60.5 -89t-106.5 -38q-47 0 -81 29.5t-34 76.5zM272 1251q0 81 121.5 174t200.5 93q15 0 138 5q96 4 157 -34.5t113.5 -97.5t52.5 -230q0 -150 -54 -236t-139 -130.5t-354 -132.5 q-35 -91 -55 -191q-11 -49 -43.5 -65.5t-92.5 -16.5q-9 0 -15.5 41t-6.5 59q0 70 79 224q9 17 11 24q70 66 275 141q63 23 122 46.5t89 83.5t30 116q0 33 -19 114t-79.5 104.5t-116.5 23.5q-120 0 -175 -34t-62 -74q-8 -46 -64 -62q-30 -6 -57 -6q-56 0 -56 61z" />
<glyph unicode="@" horiz-adv-x="1686" d="M100 465q0 157 166.5 438t378.5 438.5t365 157.5q246 0 404.5 -206.5t158.5 -418.5q0 -133 -70 -254t-180.5 -158.5t-130.5 -37.5q-91 0 -160 92q-69 -53 -172 -97t-158 -44q-74 0 -138 56.5t-64 119.5q0 150 145 334t252 184q132 0 190 -57q13 -9 13 -31q0 -15 -1.5 -34 t17.5 -19q9 0 24 8t25 8q56 0 56 -53q0 -13 -32 -92q-31 -73 -38.5 -98.5t-7.5 -71.5q0 -45 67 -45q91 0 168.5 95t77.5 187q0 91 -76 242t-186 211.5t-174 60.5q-116 0 -305.5 -155.5t-333 -403.5t-143.5 -354q0 -143 173.5 -263t405.5 -120q120 0 316.5 56.5t308.5 145.5 q41 33 49 33q15 0 35 -14t20 -26q0 -76 -38.5 -117t-137.5 -81.5t-286 -79t-336 -38.5q-242 0 -445 140t-203 362zM655 584q0 -40 20.5 -56t88.5 -16q46 0 136.5 53.5t90.5 93.5q0 11 -5 79q-3 45 21 93q23 44 23 46q0 12 -61 59q-121 -6 -217.5 -149t-96.5 -203z" />
<glyph unicode="A" horiz-adv-x="1592" d="M-10 55q0 32 36 86.5t147 219.5q198 293 334 550q215 409 273 482.5t89 73.5q66 0 99 -36q9 -7 9 -49q0 -43 -9 -65l13 -42q33 -118 65 -194q40 -102 79 -219q89 -269 185.5 -460.5t176.5 -269.5q50 -49 62.5 -67.5t12.5 -43.5q0 -44 -29.5 -74.5t-70.5 -30.5 q-128 0 -310 403q-73 159 -88 159q-48 0 -206.5 -29t-289.5 -68q-75 -23 -95 -23q-25 0 -52 25q-5 4 -12 4q-22 0 -95 -130q-120 -215 -151.5 -256.5t-69.5 -41.5q-27 0 -65 31.5t-38 64.5zM481 533q21 16 111 26q69 7 120 18q273 55 317 59q-35 80 -103 293 q-74 227 -94 276q-55 -116 -170 -329z" />
<glyph unicode="B" horiz-adv-x="1504" d="M180 90q0 17 9 52q52 215 98 550t46 387q0 42 -11.5 62t-52.5 20q-16 0 -31.5 -1t-31 19t-15.5 48q0 88 283 173t575 85q150 0 245.5 -80.5t95.5 -188.5q0 -80 -81.5 -188.5t-217.5 -209.5q0 -16 20 -21q108 -31 191 -120.5t83 -212.5q0 -189 -242 -389t-509 -200 q-75 0 -117.5 19.5t-42.5 45.5q0 126 178 126q26 0 78 -2h7q49 0 113 26q68 28 133.5 71t112 89.5t75 98.5t28.5 105q0 86 -74.5 153t-198.5 67q-20 0 -95 -32q-75 -33 -98 -33q-78 0 -97.5 20t-19.5 71q0 31 169 100q141 56 273.5 183t132.5 215q0 61 -50 97t-140 36 q-149 0 -296 -36.5t-161.5 -68.5t-81.5 -484.5t-67 -523.5q0 -70 3 -130v-13q0 -51 -22 -91q-24 -44 -83 -44q-54 0 -83.5 42.5t-29.5 107.5z" />
<glyph unicode="C" horiz-adv-x="1432" d="M115 364q0 405 348.5 788.5t671.5 383.5q121 0 193.5 -74.5t72.5 -173.5q0 -92 -10.5 -145t-63.5 -89.5t-85 -36.5q-23 0 -40 20t-17 54q0 23 17 96q17 72 17 107q0 102 -89 102q-138 0 -341.5 -158.5t-345.5 -402t-142 -448.5q0 -137 81.5 -227.5t232.5 -90.5 q87 0 211.5 43.5t228.5 116.5t123 73q39 0 39 -48q0 -50 -111 -143t-256.5 -148t-266.5 -55q-177 0 -322.5 117t-145.5 339z" />
<glyph unicode="D" horiz-adv-x="1627" d="M160 12q0 10 20 52q21 45 29.5 91t14.5 165q5 118 36.5 381.5t51.5 373.5q18 96 18 132q0 39 -45 51q-82 20 -82 69q0 37 32.5 72.5t69.5 35.5l140 -4q98 0 258 13q159 13 238 13q276 0 443.5 -155.5t167.5 -409.5q0 -279 -239.5 -508.5t-682.5 -335.5q-175 -42 -237 -85 q-82 -56 -136 -56q-38 0 -67.5 40.5t-29.5 64.5zM392 265q0 -65 13 -98q8 -7 31 -7q64 0 335 84t440 259t169 398q0 185 -130.5 295.5t-344.5 110.5q-130 0 -313 -24q-41 -6 -81 -9q-119 -715 -119 -1009z" />
<glyph unicode="E" horiz-adv-x="1401" d="M154 69v4q0 16 18 65q25 71 58.5 270t43.5 315q5 40 16 97q44 239 44 378q0 7 -20 37q-5 6 -7 10q-7 23 -13 38q-7 14 -7 33v10q0 22 27 39t52 17h3q42 0 96 -6h4q23 0 222 19t475 66q29 5 35 5l15 1q15 1 29 1q55 0 79 -16q30 -20 36 -80q0 -28 -26 -54t-41 -28 q-3 -1 -55 1h-14q-44 0 -91 -10q-54 -13 -96 -16q-29 -2 -63 -8q-43 -8 -170 -9q-191 -3 -240.5 -26t-55.5 -95q-5 -55 -21 -121q-49 -197 -49 -262l15 -1h17q52 0 173 13q143 16 214 32q146 35 223 35q125 0 125 -67q0 -82 -83.5 -100.5t-348.5 -47.5 q-324 -36 -345.5 -64.5t-45.5 -183.5t-24 -198v-11q5 -50 64 -57l18 -1q11 -1 23 -1q47 0 108 10l192 28q107 15 217 35q137 29 174 29q28 0 62.5 -23.5t34.5 -74.5q0 -37 -18 -51q-102 -45 -263 -50q-139 -5 -434 -47q-149 -22 -196 -22q-117 0 -146.5 18.5t-35.5 90.5z " />
<glyph unicode="F" horiz-adv-x="1214" d="M175 40q0 232 114 978q27 174 27 187q0 19 -12 58q-16 49 -16 68q0 27 30 58.5t57 31.5l132 -15q61 0 227 20q282 34 387 34q92 0 132 -28t40 -55q0 -48 -32.5 -82.5t-69.5 -34.5q-17 0 -37 4q-109 18 -166 18q-107 0 -277.5 -19.5t-199.5 -43.5q-19 -34 -55 -218.5 t-36 -309.5q69 11 142 19l210 24q50 7 140 31q91 24 124 24q118 0 118 -96q0 -19 -33.5 -48t-89 -41t-267.5 -35q-260 -30 -308.5 -45.5t-57.5 -31t-19 -145t-10 -210.5l4 -124q0 -102 -74 -102q-46 0 -85 35t-39 94z" />
<glyph unicode="G" horiz-adv-x="1589" d="M119 380q0 423 361 789.5t748 366.5q114 0 182.5 -41t68.5 -104q0 -55 -41.5 -121.5t-80.5 -66.5q-26 0 -43 41q-28 65 -61 90t-101 25q-174 0 -391 -166t-342.5 -380.5t-125.5 -415.5q0 -234 215 -234q99 0 228.5 49.5t277 150t179 176.5t49.5 207q10 71 104 71 q101 0 101 -62q0 -28 -30 -100q-49 -116 -73 -211t-43.5 -220t-19.5 -178q0 -47 18 -139q3 -19 3 -32q0 -35 -26.5 -68t-65.5 -33q-43 0 -84.5 33.5t-41.5 74.5q0 32 46 287q14 80 20 125q-368 -289 -665 -289q-168 0 -267 99.5t-99 275.5z" />
<glyph unicode="H" horiz-adv-x="1650" d="M150 63q0 40 24 137q33 133 79.5 475t80.5 711q2 24 27 49t53 25q98 0 98 -141q0 -83 -36 -267q-32 -166 -32 -240q0 -31 20 -45t95 -14q164 0 441.5 26.5t299 76t44 225t22.5 366.5q0 22 31 52t67 30q38 0 67 -27.5t29 -69.5q0 -71 -44 -311q-54 -294 -76 -626.5 t-22 -416.5q0 -46 -41.5 -91t-72.5 -45q-33 0 -62 26.5t-29 66.5q0 36 31 255q26 185 26 267q0 48 -14 66t-47 18q-50 0 -196 -11q-158 -13 -197 -13q-41 0 -208.5 -13t-185 -22.5t-36 -132t-22.5 -203.5q-5 -139 -31.5 -229.5t-68.5 -90.5q-29 0 -71.5 45.5t-42.5 91.5z " />
<glyph unicode="I" horiz-adv-x="649" d="M195 223q0 141 40 390q14 94 16 113q2 34 8 70q5 35 8 70q6 93 36 243q22 113 32 199q7 60 16 81t46.5 46t56.5 25q42 0 63 -40.5t21 -94.5q-6 -39 -67 -279q-29 -113 -38 -190q-6 -52 -15 -113q-40 -256 -40 -350q0 -141 17 -277q2 -16 2 -31q0 -55 -30 -83 q-38 -35 -76 -35q-54 0 -75 60.5t-21 195.5z" />
<glyph unicode="J" horiz-adv-x="1220" d="M-10 313q0 88 99 88q31 0 87 -55q184 -185 339 -185q135 0 218.5 144.5t134.5 484t51 637.5q0 31 33 57t65 26q31 0 55.5 -22t24.5 -49q0 -245 -57.5 -652.5t-184.5 -603.5t-343 -196q-165 0 -343.5 121t-178.5 205z" />
<glyph unicode="K" horiz-adv-x="1524" d="M145 7q0 29 13 82q30 124 83 720q18 183 45 368t41 219t37 50t44 16q93 0 91 -113q-69 -284 -86 -528q-6 -77 -16 -153q0 -4 0.5 -7.5t10.5 1t63.5 44t116 92t99.5 93.5q23 27 61 61q124 111 184 175.5t112 153.5q73 128 105 128q35 0 73 -37.5t38 -74.5q0 -96 -304 -362 q-67 -58 -86 -77q-34 -32 -248 -216q55 -39 240 -184q195 -153 297 -221.5t145.5 -80.5t158.5 -20q4 -14 4 -31q0 -64 -33.5 -99.5t-90.5 -35.5q-58 0 -139 42.5t-295 203.5l-228 173q-117 93 -219 137h-6q-23 0 -55 -26q-31 -63 -44 -159t-13 -149q-14 -275 -114 -275 q-39 0 -62 25.5t-23 64.5z" />
<glyph unicode="L" horiz-adv-x="1289" d="M145 57q0 22 19 96q21 87 26 129q0 20 30 244.5t57 522t34.5 332.5t32 57t76.5 22q33 0 59 -28t26 -61q0 -43 -18 -140q-26 -133 -75.5 -540t-49.5 -461q0 -35 10.5 -47.5t39.5 -12.5q47 0 222 29q108 17 408 33q54 2 133 23q15 4 22 4q38 0 60 -25t22 -60 q0 -57 -44 -90.5t-98 -33.5q-21 0 -83 6q-63 5 -94 5q-326 0 -629 -102q-51 -17 -92 -17q-45 0 -69.5 39t-24.5 76z" />
<glyph unicode="M" horiz-adv-x="1938" d="M110 39q0 88 58 307l87 328q80 310 99 456t19 230q0 87 137 87q29 0 61 -50.5t42 -88.5q13 -38 31 -85l134 -375q79 -230 97.5 -259.5t30.5 -29.5q51 11 361 439q345 475 394 475q40 0 88.5 -31.5t48.5 -54.5q0 -10 -58 -439q-21 -159 -39 -381.5t-18 -250.5 q0 -51 18 -114q16 -56 16 -90q0 -27 -10 -78.5t-43.5 -60.5t-53.5 -9q-105 0 -105 175q0 160 69 783q5 50 5 62q0 8 12 67q9 50 9 84q0 33 -5 44q-99 -110 -306 -393q-207 -282 -291 -363t-138 -81q-41 0 -80 61.5t-101 248.5q-128 381 -161 439q-12 -34 -27 -111 q-32 -162 -85 -395q-103 -447 -117 -592q-2 -18 -32.5 -39t-49.5 -21q-36 0 -66.5 36t-30.5 70z" />
<glyph unicode="N" horiz-adv-x="1655" d="M140 68q0 73 44 238q44 164 108.5 505t64.5 433l-1 55q1 29 11.5 51.5t40 38.5t58.5 16q27 0 50 -11.5t33 -35t24 -87.5q40 -194 247.5 -518.5t358.5 -497.5q61 238 119.5 585.5t58.5 485.5q0 73 11.5 99t48 45t79.5 19q28 0 48 -40t20 -95q0 -43 -32 -152 q-63 -248 -124 -588.5t-61 -393.5q0 -107 3 -135v-10q0 -45 -34 -72q-38 -30 -98 -30q-36 0 -48.5 9.5t-52 53.5t-49.5 85q-8 38 -61 100q-288 368 -518 804q-65 -231 -121 -641l-25 -167q-4 -22 -4 -84q1 -9 1 -17v-8q0 -69 -8 -93q-8 -26 -40 -59.5t-61 -33.5 q-67 0 -79 57.5t-12 88.5z" />
<glyph unicode="O" horiz-adv-x="1646" d="M112 417q0 202 123 461t321 422.5t412 163.5q164 0 273 -40.5t196 -116.5t116 -156t29 -224q0 -136 -82 -318t-255.5 -355t-328.5 -249.5t-395 -76.5q-160 0 -284.5 159t-124.5 330zM295 426q0 -139 88 -234t204 -95q302 0 555 278t253 590q0 119 -46.5 187.5t-149.5 117 t-231 48.5q-224 0 -448.5 -304t-224.5 -588z" />
<glyph unicode="P" horiz-adv-x="1447" d="M203 56q0 65 36 362l71 593q2 10 2 45v41q-2 71 -18 90q-57 20 -57 103q0 65 264.5 126.5t461.5 61.5q218 0 346 -90t128 -239q0 -221 -243.5 -396t-656.5 -257q-109 -22 -122.5 -36.5t-21 -178t-7.5 -227.5q0 -45 -28.5 -81t-66.5 -36q-88 0 -88 119zM432 639 q329 45 584 184t255 305q0 204 -316 204q-207 0 -453 -88q-7 -29 -14 -107q-14 -139 -35 -307q-11 -88 -21 -191z" />
<glyph unicode="Q" horiz-adv-x="1657" d="M104 406q0 228 164 492t403 438t428 174q52 0 104 -59q46 -52 46 -109q0 -8 -1 -16q130 -118 209.5 -273.5t79.5 -293.5q0 -171 -112.5 -346t-288.5 -285q8 -11 166 -198q116 -138 116 -170q0 -31 -47 -66t-67 -35q-35 0 -66 34q-52 102 -154 226t-107 124q-10 0 -42 -9 q-171 -48 -334 -48q-203 0 -350 113t-147 307zM286 422q0 -135 87.5 -210.5t218.5 -75.5q145 0 266 36q-5 30 -74 105q-65 70 -65 82q0 33 43 63.5t55 30.5t27 4q12 3 22 3q41 0 51 -46q13 -57 57.5 -105.5t70.5 -48.5q93 0 213.5 162t120.5 312q0 213 -146.5 397.5 t-225.5 184.5q-141 0 -314 -146t-290 -359.5t-117 -388.5z" />
<glyph unicode="R" horiz-adv-x="1493" d="M150 117q0 401 141 1067q7 35 7 41t-7 18q-40 63 -40 84q0 38 37 66t67 28l85 -8q294 48 429 48q211 0 337 -100t126 -251t-133.5 -284.5t-335.5 -209.5q-25 -10 -25 -21q0 -17 206.5 -176.5t379.5 -266.5q49 -30 49 -79q0 -32 -33.5 -63.5t-62.5 -31.5q-59 0 -188.5 98 t-268.5 216q-301 253 -336 255q-68 2 -96 19t-28 61q0 38 36 66.5t85 28.5q17 0 54 -5q37 -6 55 -6q80 0 273.5 119t193.5 280q0 85 -86.5 146t-220.5 61q-100 0 -200 -14t-127.5 -24t-44.5 -51.5t-57 -264.5t-62.5 -421t-22.5 -291q0 -72 10 -125q9 -53 9 -85 q0 -30 -31.5 -62t-68.5 -32q-105 0 -105 170z" />
<glyph unicode="S" horiz-adv-x="1308" d="M90 13q0 30 18.5 73.5t37.5 43.5q20 0 41 -7q107 -40 212 -40q189 0 401 110.5t212 206.5q0 41 -64.5 78.5t-326.5 120.5q-325 103 -399.5 200.5t-74.5 205.5q0 208 239 335.5t500 127.5q173 0 266 -58.5t93 -129.5q0 -34 -21 -99t-106 -65q0 133 -69 162.5t-172 29.5 q-212 0 -384.5 -83.5t-172.5 -200.5q0 -84 76.5 -146.5t333.5 -137.5q249 -72 354.5 -148.5t105.5 -184.5q0 -109 -147 -235.5t-354.5 -192.5t-352.5 -66q-121 0 -183.5 28.5t-62.5 71.5z" />
<glyph unicode="T" horiz-adv-x="1376" d="M29 1266q0 45 32.5 61t194.5 18q199 1 357.5 14.5t488.5 58.5q125 17 238 17q57 0 108.5 -7t73 -13.5t34.5 -36t13 -45.5q0 -71 -50 -71q-33 0 -90 6q-58 5 -157 5q-102 0 -247.5 -14.5t-161.5 -47.5t-52.5 -390t-36.5 -532q0 -81 25 -187q4 -20 4 -24q0 -44 -24 -79.5 t-58 -35.5q-52 0 -86.5 50t-34.5 280q0 218 83 851q4 34 4 35q0 34 -37 34q-60 0 -229 -15q-169 -16 -241 -16q-108 0 -140 34q-11 20 -11 50z" />
<glyph unicode="U" horiz-adv-x="1587" d="M179 568q0 114 50 383q9 49 26 156q32 213 44.5 256t39.5 68.5t63 25.5q25 0 51.5 -47.5t26.5 -73.5q0 -20 -46 -181q-24 -81 -52 -286.5t-28 -289.5q0 -281 131.5 -381t220.5 -100q172 0 292.5 52.5t182.5 190.5t88 513q26 383 63.5 477.5t106.5 94.5q68 0 67 -111 q0 -94 -38 -308q-25 -132 -37 -309q-11 -140 -29 -246.5t-59 -177.5t-103.5 -133t-130.5 -109t-187.5 -74.5t-209.5 -27.5q-98 0 -240.5 66t-217.5 224t-75 348z" />
<glyph unicode="V" horiz-adv-x="1469" d="M110 1294q9 57 39 98t70 41q83 0 114 -198q29 -193 381 -993q38 65 82 133q199 311 285 477q347 649 458 649q76 0 76 -86q0 -15 -7.5 -26.5t-66.5 -96.5q-196 -283 -376 -590q-142 -241 -235 -386q-104 -161 -123 -233q-12 -40 -58 -65t-110 -25q-27 0 -121 257 q-42 112 -281 717q-127 321 -127 327z" />
<glyph unicode="W" horiz-adv-x="2074" d="M132 1313q0 39 29.5 70.5t65.5 31.5q44 0 76.5 -67.5t72.5 -327.5q86 -565 176 -854q250 399 311 507.5t172 350.5q29 53 80 53q22 0 50 -43.5t98 -239.5q174 -485 237 -582q352 582 409 1207q0 14 26.5 38.5t50.5 24.5q80 0 80 -102q0 -106 -53.5 -317.5t-128 -390 t-250.5 -543.5q-29 -59 -49 -105q-10 -19 -38.5 -32t-45.5 -13q-43 0 -87 47t-134 275.5t-130 343.5q-28 79 -57 146q-34 -46 -125 -207q-379 -682 -424 -682q-68 0 -110 79.5t-115.5 421.5t-124.5 654q-19 88 -37 144q-25 75 -25 112z" />
<glyph unicode="X" horiz-adv-x="1502" d="M-15 -50q0 145 560 712q80 80 80 91q0 13 -67 103q-349 460 -349 509q0 44 25 85.5t51 41.5q64 0 122 -117q109 -222 344 -503q351 391 466.5 505t145.5 114q29 0 64 -31.5t35 -63.5q0 -23 -97 -109q-124 -112 -321 -317.5t-197 -234.5q0 -5 27.5 -47.5t132 -166.5 t154.5 -170t120 -86q47 -29 85.5 -80t38.5 -67q0 -26 -22 -51.5t-55 -25.5q-88 0 -189 93.5t-328 384.5q-46 59 -86 108q-28 -30 -72 -75q-377 -386 -415 -496q-37 -112 -71 -148t-107 -36q-75 0 -75 78z" />
<glyph unicode="Y" horiz-adv-x="1374" d="M26 1404q0 16 31 42.5t57 26.5q61 0 161 -92t181 -194q247 -313 306 -350q59 65 124 133q330 342 402 444q79 110 157 110q30 0 47 -28.5t17 -57.5q0 -27 -75.5 -116t-399.5 -426q-156 -162 -183 -209t-52 -273t-35 -354q-6 -78 -16 -88t-42 -20.5t-51 -10.5 q-75 0 -75 126q0 78 32 277q30 191 30 256q0 57 -15 97q-80 83 -218 268q-97 130 -137 172.5t-110 98.5q-93 72 -114.5 103t-21.5 65z" />
<glyph unicode="Z" horiz-adv-x="1568" d="M39 30q0 71 40 101q206 150 596 541t521 571l-24 1h-21q-90 0 -304 -20q-52 -5 -108 -9q-54 -4 -91 -8q-129 -14 -210 -14q-118 0 -167.5 34t-49.5 77q0 26 28 60t45 34q12 0 44 -11q34 -13 57 -13q92 0 168 -2q15 0 32 -1q69 0 170 8q124 10 240 14q159 4 326 35 q86 16 131 16q46 0 46 -62q0 -46 -14 -67q-3 -9 -43 -33q-31 -18 -77 -75q-35 -43 -80 -91l-122 -138q-217 -249 -347 -375q-42 -41 -91 -92l-299 -303q-2 -19 25 -19q88 0 401 31q60 6 102 6q75 0 124 4t85 4q262 0 262 -117q0 -97 -73 -97q-35 0 -59 6q-128 32 -266 32 q-70 0 -421 -22l-64 -4q-205 -13 -350 -52q-84 -23 -98 -23q-64 0 -64 73z" />
<glyph unicode="[" horiz-adv-x="831" d="M185 -456q0 28 8 86t8 84q0 27 -4 83t-4 81q0 51 51 782q21 231 21 406q0 180 -39 285q-21 63 -21 87q0 58 37 83t137 25h29q18 0 41 1l93 3l41 1h30l26 1q197 8 197 -100q0 -27 -39 -51.5t-115 -24.5l-59 1h-53l-54 1q-72 1 -88 -8t-16 -33l10 -73q0 -171 -47 -893 q-28 -430 -28 -509q0 -8 2 -50l5 -80q2 -37 4 -46t22 -15.5t49 -6.5q70 0 135 17q65 15 67 15q82 0 82 -78q0 -59 -39 -80t-168 -34q-81 -8 -136 -24q-80 -24 -109 -24q-32 0 -54 28t-22 60z" />
<glyph unicode="\" horiz-adv-x="1124" d="M27 1548q0 28 37.5 49t68.5 21q32 0 58 -34t62 -107q35 -71 46 -84q97 -130 182 -293l24 -45q92 -167 151 -291q70 -148 165 -327q217 -394 246 -461t29 -109q0 -53 -54 -64.5t-63 -11.5q-25 0 -33 12l-362 735q-176 359 -282.5 528.5t-149.5 229.5q-125 196 -125 252z " />
<glyph unicode="]" horiz-adv-x="858" d="M-19 -436q0 136 80 136q29 0 75 -3q45 -4 60 -4q21 0 76 9q56 8 83 8q46 6 56 -4q8 2 20 20v369q0 32 6 208t13 237l38 302q31 240 47 341l19 111q3 10 21 51q17 39 17 52q0 28 -25 28q-134 0 -256 -33q-58 -16 -94 -16q-29 0 -68.5 20t-39.5 42q0 34 36 82.5t68 48.5 q15 0 45 -4t43 -4q37 0 193 24q155 23 190 23q33 0 64.5 -31.5t31.5 -63.5q0 -56 -32 -112q-18 -30 -27.5 -70.5t-50.5 -290.5l-56 -336q-16 -88 -22 -383q-4 -190 -7 -218q-15 -200 -15 -328q0 -33 8 -85q9 -53 9 -85q0 -84 -88 -84q-27 0 -80 9q-52 8 -86 8t-142 -11 q-96 -12 -133 -12q-20 0 -48.5 15t-28.5 34z" />
<glyph unicode="^" horiz-adv-x="1178" d="M78 662q0 25 109 162q31 39 55 77q76 118 151 215q8 11 22 33q92 141 118.5 175t72.5 34q40 0 72 -70q40 -79 140 -198l34 -44q38 -48 74 -90q58 -63 126 -161.5t68 -151.5q0 -21 -21.5 -53.5t-43.5 -32.5q-42 0 -94 98q-15 26 -142 201.5t-217 282.5l-14 -2 q-19 -7 -119.5 -139.5t-130.5 -190.5q-94 -166 -121.5 -202t-60.5 -36t-55.5 30t-22.5 63z" />
<glyph unicode="_" horiz-adv-x="854" d="M-61 -139q0 24 17.5 41.5t43.5 17.5l154 10q37 0 101 -4t122 -4q46 0 134 9q90 8 138 8q16 0 101 -9q86 -10 104 -10q61 0 61 -74q0 -30 -12.5 -40.5t-48.5 -10.5q-24 0 -104 9q-80 8 -105 8q-56 0 -239 -12q-183 -13 -240 -13q-17 0 -83 4t-83 4q-61 0 -61 66z" />
<glyph unicode="`" horiz-adv-x="643" d="M24 1497q0 20 33.5 44.5t55.5 24.5q14 0 58.5 -38t107.5 -97.5t172.5 -145.5t127 -111.5t17.5 -50.5q0 -35 -25 -62t-57 -27q-11 0 -49 38l-185 180q-8 5 -30 22l-63 46q-163 121 -163 177z" />
<glyph unicode="a" horiz-adv-x="1202" d="M90 220q0 263 235 566.5t467 303.5q84 0 125 -96q13 -32 41 -32q80 0 80 -62q0 -31 -10 -85q-54 -295 -54 -416q0 -242 92 -290q44 -24 44 -59q0 -31 -43 -62.5t-83 -31.5q-77 0 -127 106t-50 302q-140 -188 -277 -282t-251 -94q-77 0 -133 65t-56 167zM264 269 q0 -115 76 -115q110 0 305 222t195 408q0 143 -94 143q-132 0 -307 -247.5t-175 -410.5z" />
<glyph unicode="b" horiz-adv-x="1192" d="M135 281q0 91 50 389l103 598q53 301 77.5 372t54.5 95t74 24q70 0 70 -121q0 -115 -77 -322q-74 -199 -171 -747q128 233 306 377.5t321 144.5q79 0 134 -73t55 -178q0 -311 -234.5 -583.5t-495.5 -272.5q-71 0 -130.5 38.5t-66.5 96.5q-4 47 -27 70q-43 43 -43 92z M292 236q52 -97 126 -97q114 0 241 94.5t219.5 266t92.5 289.5q0 53 -19 91t-48 38q-139 0 -339.5 -227.5t-272.5 -454.5z" />
<glyph unicode="c" horiz-adv-x="1038" d="M95 270q0 261 207 550.5t385 289.5q81 0 139.5 -87.5t58.5 -185.5q0 -59 -25.5 -101.5t-51.5 -42.5q-58 0 -82 117q-27 126 -78 126q-104 0 -246 -247t-142 -417t193 -170q147 0 346 138q70 49 103 49q34 0 34 -39q0 -76 -179 -191.5t-351 -115.5q-150 0 -230.5 86 t-80.5 241z" />
<glyph unicode="d" horiz-adv-x="1354" d="M80 239q0 253 205.5 519t443.5 266q104 0 193 -89l140 654q15 67 55.5 90t63.5 23q70 0 70 -124q0 -22 -46 -164q-73 -220 -138.5 -540.5t-65.5 -514.5q0 -200 87 -200q56 0 116 37q25 18 47 18q32 0 32 -42q0 -51 -89.5 -118t-183.5 -67q-165 0 -165 318q0 54 5 109 q-134 -215 -284 -331.5t-276 -116.5q-97 0 -153.5 74.5t-56.5 198.5zM239 257q0 -125 83 -125q78 0 189.5 82t229.5 261.5t118 269.5q0 44 -40.5 90.5t-99.5 46.5q-162 0 -321 -219.5t-159 -405.5z" />
<glyph unicode="e" horiz-adv-x="1065" d="M100 309q0 286 193 544t422 258q75 0 122.5 -49t47.5 -118q0 -154 -151 -295t-404 -277q-52 -27 -52 -70q0 -83 48 -133t142 -50q215 0 439 238q33 33 50 33q32 0 32 -51q0 -102 -180.5 -246t-372.5 -144q-161 0 -248.5 95t-87.5 265zM294 495q424 252 424 405 q0 60 -54 60q-92 0 -207.5 -135t-162.5 -330z" />
<glyph unicode="f" horiz-adv-x="763" d="M121 856q0 43 65 93q50 39 61.5 87t26.5 133q51 310 159.5 447t276.5 137q89 0 151 -60.5t62 -150.5q0 -73 -34.5 -165.5t-78.5 -92.5q-33 0 -33 33l7 97q0 193 -108 193q-117 0 -194 -229.5t-77 -373.5q0 -46 60 -46q261 0 307 2h5q42 0 42 -39q0 -41 -50.5 -62.5 t-220.5 -38.5q-145 -15 -164 -25q-67 -372 -67 -663q0 -87 8 -129q7 -39 7 -49q-7 -25 -38 -42t-62 -17q-102 0 -102 149q0 71 47 402q29 203 29 308q0 18 -42 47q-43 28 -43 55z" />
<glyph unicode="g" horiz-adv-x="1176" d="M-110 -303q0 49 37 49q18 0 107 -59q235 -157 423 -157q164 0 249.5 175t116.5 523q7 79 17 134q-1 1 -4 1q-15 0 -63 -57q-91 -107 -232.5 -190t-262.5 -83q-90 0 -141 56.5t-51 156.5q0 155 117 345.5t327.5 332.5t368.5 142q83 0 146 -48q15 -12 26 -20 q18 -13 34 -52.5t16 -63.5q0 -15 -11 -46q-61 -166 -83 -275t-48 -367q-24 -232 -52 -357t-101 -242t-175 -175.5t-210 -58.5q-187 0 -369 129t-182 207zM258 280q0 -39 24.5 -61.5t54.5 -22.5q89 0 232.5 92t247 255.5t103.5 256.5q0 111 -82 111q-85 0 -212.5 -88 t-247.5 -258t-120 -285z" />
<glyph unicode="h" horiz-adv-x="1282" d="M80 51q0 28 16 108q123 635 194 1256q16 145 51.5 193t59.5 48q43 0 78 -35t35 -97q0 -184 -90 -505q-44 -159 -93 -404t-49 -303q0 -12 11 -12h4q372 687 613 687q64 0 104 -73t65 -324q25 -267 113 -386q45 -61 45 -90q0 -26 -30 -48t-64 -22q-78 0 -138 87.5 t-77 307.5q-17 208 -36 272t-63 64q-105 0 -423 -549q-95 -164 -140 -214.5t-82 -50.5q-44 0 -74 26t-30 64z" />
<glyph unicode="i" horiz-adv-x="592" d="M149 124q0 184 76 582q26 139 26 171q0 63 23 107.5t65 44.5q51 0 80.5 -24.5t29.5 -54.5t-14 -79q-75 -264 -93 -378t-18 -271q0 -76 21 -171q4 -18 4 -30q0 -18 -33 -46.5t-70 -28.5q-97 0 -97 178zM385 1528q0 40 47.5 81.5t105.5 41.5q29 0 65 -22.5t36 -43.5 q0 -33 -24.5 -112t-78 -106.5t-81.5 -27.5q-21 0 -32 45q-4 14 -11 31q-27 65 -27 113z" />
<glyph unicode="j" horiz-adv-x="660" d="M-335 -364q0 20 14 39.5t21 19.5t31 -20q157 -138 253 -138q79 0 136 75.5t82 280t47 635.5q15 311 26.5 395t47.5 117.5t92 33.5q29 0 54.5 -22.5t25.5 -54.5q0 -18 -7 -49q-73 -316 -95 -823q-14 -306 -57 -453t-132.5 -227t-196.5 -80q-119 0 -230.5 99.5 t-111.5 171.5zM328 1489q0 108 84 128h3q28 0 84 -20t73.5 -33.5t17.5 -45.5q0 -62 -57 -108.5t-85 -46.5q-48 0 -84 42t-36 84z" />
<glyph unicode="k" horiz-adv-x="1211" d="M110 13q0 36 27 170q38 193 70 517q74 765 114 865.5t114 100.5q26 0 43.5 -28t17.5 -72q0 -80 -69 -425q-69 -346 -100 -674q13 17 179 161q157 137 219 199q231 231 332 231q78 0 78 -75q0 -85 -77 -125q-100 -51 -267 -169.5t-167 -167.5q0 -20 118 -149.5t204 -191 t167 -61.5l33 1q35 2 35 -31q0 -44 -55 -89.5t-145 -45.5q-58 0 -117.5 40.5t-211.5 218.5q-121 147 -151 175.5t-50 28.5q-11 0 -70 -52t-64.5 -79t-5.5 -206v-47q0 -37 -35 -66t-76 -29q-42 0 -66 24.5t-24 50.5z" />
<glyph unicode="l" horiz-adv-x="586" d="M178 200q0 335 80.5 830t128 579t96.5 84q72 0 72 -92q0 -82 -87 -390q-55 -194 -85 -428t-30 -367q0 -165 21 -328q4 -31 4 -45q0 -50 -34 -86t-72 -36q-53 0 -73.5 66t-20.5 213z" />
<glyph unicode="m" horiz-adv-x="2105" d="M165 257q0 147 63 532q26 156 26 223q0 66 59 66q111 0 111 -160q0 -75 -37 -294q-43 -250 -44 -304q62 60 182 263q170 278 250.5 352.5t166.5 74.5q65 0 103.5 -87t46.5 -415q2 -82 15 -122t19 -40q47 0 204 320q84 169 163.5 257t176.5 88q81 0 118 -83.5t53 -247.5 q15 -166 46.5 -304t115.5 -177q57 -27 57 -63q0 -35 -48 -72t-88 -37q-80 0 -143 98t-95 424q-14 131 -27 186t-41 55q-42 0 -99.5 -80t-185.5 -325q-100 -191 -151.5 -254.5t-99.5 -63.5q-43 0 -77 34.5t-43 83t-19 238.5q-15 316 -55 368q-93 -2 -398 -551 q-103 -185 -120 -201.5t-62.5 -29.5t-75.5 -13q-67 0 -67 261z" />
<glyph unicode="n" horiz-adv-x="1358" d="M100 104q0 48 16 136q55 302 55 637q0 38 32.5 84.5t61.5 46.5q52 0 74 -32t22 -129q0 -101 -60 -416q-20 -104 -20 -132q0 -16 8 -16q15 0 139 239q125 243 219 342t207 99q90 0 146.5 -82t82.5 -299q28 -247 50.5 -307.5t71.5 -60.5q31 0 78 22q8 4 12 4q43 0 43 -50 q0 -44 -59 -93.5t-142 -49.5q-85 0 -131.5 67.5t-73.5 360.5q-28 294 -118 294q-52 0 -113.5 -68t-187.5 -305q-166 -318 -214.5 -362t-80.5 -44q-118 0 -118 114z" />
<glyph unicode="o" horiz-adv-x="1158" d="M110 311q0 258 173.5 508.5t415.5 250.5q160 0 259.5 -123t99.5 -293q0 -260 -205.5 -482t-427.5 -222q-137 0 -226 104t-89 257zM286 337q0 -101 42.5 -165t112.5 -64q149 0 299 163.5t150 363.5q0 123 -57.5 199.5t-154.5 76.5q-161 0 -276.5 -197.5t-115.5 -376.5z " />
<glyph unicode="p" horiz-adv-x="1324" d="M4 -615q0 55 25 152q183 739 183 1298l-1 84v10q0 100 38 147q40 49 92 49q24 0 46 -37.5t22 -106.5q0 -97 -20 -235q-26 -174 -27 -200q149 260 316 406t310 146q101 0 170.5 -75.5t69.5 -187.5q0 -326 -250 -592t-487 -266q-59 0 -93.5 30t-71.5 109q-49 -180 -92 -505 l-28 -189q-7 -40 -37 -79.5t-55 -39.5q-31 0 -70.5 31.5t-39.5 50.5zM390 246q0 -36 41 -70t104 -34q143 0 329 211.5t186 415.5q0 73 -29.5 112.5t-73.5 39.5q-141 0 -349 -264t-208 -411z" />
<glyph unicode="q" horiz-adv-x="1174" d="M84 267q0 272 250 569.5t505 297.5q94 0 120 -108q9 -32 39 -37q93 -22 93 -102q0 -57 -47 -245q-33 -131 -101 -492t-73 -536q-4 -116 -7 -157t-34.5 -65t-75.5 -24q-42 0 -66 32.5t-24 81.5q0 31 32 212.5t69 344.5q43 197 57 287q-5 2 -26 -22q-140 -155 -267 -233.5 t-242 -78.5q-92 0 -147 77.5t-55 197.5zM249 282q0 -123 81 -123q151 0 359.5 224.5t208.5 421.5q0 156 -119 156q-146 0 -338 -239.5t-192 -439.5z" />
<glyph unicode="r" horiz-adv-x="1043" d="M170 261q0 47 5 207q6 189 24 305q3 19 10 89q7 77 17.5 107t43 56t70.5 26q37 0 55.5 -23.5t18.5 -50.5q0 -39 -20 -110q-23 -79 -27 -109q-3 -34 -11 -71q-10 -43 -20 -226l-1 -37v-27q10 18 24 50q68 156 125 244.5t125.5 169.5t125 123t102.5 58.5t89 16.5 q87 0 142 -52.5t55 -122.5q0 -31 -19.5 -56t-59.5 -25q-42 0 -77 37q-36 37 -75 37q-104 0 -288 -252t-224 -555q-10 -78 -38 -103t-79 -25q-49 0 -71 73t-22 246z" />
<glyph unicode="s" horiz-adv-x="869" d="M20 46q0 38 36.5 56t73.5 18q15 0 57 -10q41 -10 54 -10q111 0 238 37t157 92q0 65 -160 148q-203 104 -274.5 166.5t-71.5 139.5q0 199 199.5 330t325.5 131q81 0 117.5 -28t36.5 -97q0 -31 -26.5 -53t-41.5 -22q-11 0 -43 15q-32 14 -42 14q-50 0 -203 -73t-153 -165 q0 -56 54 -101.5t194 -111.5q113 -54 180.5 -115.5t67.5 -144.5q0 -153 -211 -239.5t-403 -86.5q-162 0 -162 110z" />
<glyph unicode="t" horiz-adv-x="960" d="M45 924q0 58 59 58h206q21 0 37 19t47 127.5t55 214.5q24 105 94 105q43 0 67 -30t24 -56q0 -14 -36 -143l-58 -210q103 8 194 19q90 10 150 10q76 0 96 -14t20 -49q0 -81 -113 -88q-145 -9 -267 -25t-131.5 -26.5t-60.5 -238t-51 -295.5q0 -110 29 -146.5t87 -36.5 q86 0 239 129q59 53 91 53q43 0 43 -46q0 -72 -138.5 -186.5t-283.5 -114.5q-242 0 -242 285q0 103 50 319q49 215 49 258q0 15 -24 15l-104 -9q-128 0 -128 102z" />
<glyph unicode="u" horiz-adv-x="1249" d="M125 298q0 131 63 386q53 213 53 299q29 60 91 60q42 0 67 -29.5t25 -61.5q0 -70 -49 -199q-93 -251 -93 -431q0 -164 76 -164q97 0 247 165t257 460q42 118 68.5 153.5t71.5 35.5q68 0 68 -90q0 -11 -19 -73q-60 -219 -60 -414q0 -234 77 -303q40 -37 40 -60 q0 -28 -40.5 -51t-73.5 -23q-70 0 -113 104t-43 307v33q0 16 1 33q-128 -215 -262 -333t-249 -118q-66 0 -134.5 77t-68.5 237z" />
<glyph unicode="v" horiz-adv-x="1118" d="M75 916q0 141 94 141q92 0 92 -126q0 -103 6.5 -158.5t47.5 -203t90 -273.5q25 -66 36 -101q21 32 54 88q176 296 280.5 456t170.5 233t97 87.5t63 14.5q39 0 61.5 -28t22.5 -64q0 -47 -82 -102q-77 -52 -227 -261t-324 -533q-89 -164 -137 -164q-42 0 -95 66 q2 58 -85 300q-165 451 -165 628z" />
<glyph unicode="w" horiz-adv-x="1805" d="M140 901q0 73 36.5 121t86.5 52q7 1 25 -0.5t44 -33t26 -61.5v-4q0 -12 -11 -100q-9 -65 -9 -159q0 -149 57 -329t96 -180q28 0 185 304q99 193 142 266l32 60q69 132 131 182q86 -11 86 -86q0 -25 -4 -42t-4 -42q0 -185 96 -387.5t137 -202.5q30 0 95 212 q88 288 162.5 432t109.5 171t79 27q25 0 42.5 -21.5t17.5 -46.5q0 -37 -11 -51q-124 -163 -238 -509q-97 -297 -133 -373t-60 -76q-121 0 -198 88.5t-204 470.5q-15 45 -29 79q-28 -1 -135 -233q-88 -191 -180 -340.5t-135 -149.5q-124 0 -229.5 368.5t-105.5 593.5z" />
<glyph unicode="x" horiz-adv-x="1103" d="M0 -11q0 153 341 464l48 45q-199 299 -199 459q0 142 120 142q34 0 50 -29t24 -132q13 -159 137 -337q277 238 374 426q33 60 51 76t48 16q36 0 67.5 -28t31.5 -71q0 -100 -486 -548q167 -214 356 -321q23 -13 44 -27q4 -9 4 -28q0 -43 -31.5 -77t-75.5 -34 q-135 0 -427 387q-228 -196 -301 -395q-28 -66 -57 -99q-119 7 -119 111z" />
<glyph unicode="y" horiz-adv-x="1210" d="M19 -342q0 33 15.5 65t39.5 32q12 0 26 -19q131 -201 412 -201q145 0 243.5 254.5t108.5 477.5q2 43 8 86q-184 -160 -323.5 -232.5t-213.5 -72.5q-99 0 -151.5 82.5t-52.5 192.5q0 154 62.5 380.5t93 269t97.5 42.5q28 0 46 -33t18 -75q0 -25 -23 -65 q-54 -94 -56.5 -104t-38.5 -120.5t-36 -207.5q0 -34 16.5 -106t68.5 -72q55 0 135.5 33.5t181.5 109.5t136 123t49.5 107t20.5 260t97 200q54 0 70 -28.5t16 -108.5q0 -66 -9 -165q-11 -125 -14 -178q-14 -275 -71.5 -552.5t-167.5 -464t-303 -186.5q-196 0 -348.5 102.5 t-152.5 173.5z" />
<glyph unicode="z" horiz-adv-x="1029" d="M-90 -35q47 52 130 136q451 458 686 760q-4 9 -32 9q-53 0 -226 -25q-78 -12 -162 -12q-205 0 -205 108q0 82 91 82q5 0 19 -5q72 -30 174 -30q135 0 305 22q17 3 40 6q22 2 51 8q58 10 92 10q33 0 69 -18q31 -16 32 -48q0 -5 -1 -10l-1 -4q-22 -87 -529 -628 q-122 -131 -131 -155q4 -10 20 -10q14 0 140 27q236 51 358 51q191 0 191 -116q0 -73 -39 -112q-26 11 -50 24q-88 44 -238 44q-87 0 -290 -33.5t-277 -102.5q-51 -45 -107 -45q-31 0 -69.5 18t-40.5 49z" />
<glyph unicode="{" horiz-adv-x="866" d="M15 418q0 37 56.5 81.5t95.5 53.5q76 19 149.5 86t73.5 113q0 16 -4 33q-4 22 -9 70q-4 48 -12 77q-27 117 -27 201q0 122 59 226.5t165.5 153.5t138.5 49q41 0 76 -16t35 -49q0 -31 -12 -73t-37 -42q-16 0 -48 6q-31 6 -48 6q-36 0 -83 -40t-67.5 -76t-20.5 -176 q0 -29 15 -91q15 -61 15 -117q0 -160 -24 -227.5t-102 -121.5q-53 -32 -53 -43t29 -26q69 -42 69 -183q0 -38 -6 -160t-6 -172q0 -270 174 -270q72 0 158 35q19 8 25 8q83 0 83 -47q0 -15 -20 -47.5t-35 -54t-75 -35.5t-99 -14l-65 4q-107 0 -192 111.5t-85 310.5v222 q-1 117 -18.5 160.5t-44.5 43.5q-14 0 -75 -26t-75 -26q-22 0 -48 29t-26 53z" />
<glyph unicode="|" horiz-adv-x="662" d="M238 -940l22 1237l-6 381l16 1075q0 44 -8 152q-8 94 25 123q36 26 51 26q61 0 61 -135l-12 -1700v-200l4 -539q0 -299 -15 -396.5t-67 -97.5q-28 0 -49.5 23.5t-21.5 50.5z" />
<glyph unicode="}" horiz-adv-x="825" d="M2 1369q0 211 330 211q90 0 176 -78.5t86 -232.5q0 -75 -38.5 -194.5t-51.5 -145.5q-51 -131 -51 -269q43 -49 88 -49q18 0 77 5q58 5 76 5q117 0 117 -90q0 -25 -34.5 -55.5t-59.5 -30.5q-89 0 -146 23q-47 -49 -47 -97q0 -13 18 -113t37 -177q21 -88 21 -173 q0 -192 -86 -293.5t-229 -101.5q-96 0 -136 29t-40 68q0 31 48.5 53t84.5 22q32 0 75 -10q115 45 115 276q0 65 -26 222q-25 145 -25 207t22 84.5t70 37.5l-35 15q-48 18 -90 66.5t-42 125.5q0 90 78 303q60 163 60 272q0 63 -53.5 104t-116.5 41q-128 0 -204 -56 q-34 -27 -40 -27q-28 0 -28 23z" />
<glyph unicode="~" horiz-adv-x="1593" d="M98 563q0 141 60 193q14 12 48 50q50 56 157 113.5t151 57.5q27 0 80 -13.5t94.5 -41t143.5 -109.5q56 -47 100 -79l58 -42q15 -10 61 -10q29 0 93.5 13t75.5 22.5t24.5 26.5t73.5 135q22 43 63.5 78.5t78.5 35.5q62 0 62 -55q0 -5 -17.5 -58.5t-48.5 -92.5 q-20 -24 -37 -46q-98 -129 -201.5 -169t-218.5 -40q-42 0 -81 22t-138 115q-72 68 -127.5 106t-122.5 38l-45 6q-40 0 -97.5 -51.5t-94.5 -130.5q-14 -31 -52 -89.5t-57 -58.5q-34 0 -60 20.5t-26 53.5z" />
<glyph unicode="&#xa1;" horiz-adv-x="586" d="M121 -307q0 51 26 174q11 44 11 57q0 136 42 432q16 116 42 202q48 157 72 177.5t63 20.5q22 0 26 -13q13 -29 13 -102q0 -85 -26 -215q-15 -85 -17 -107q-5 -33 -12 -66q-29 -139 -29 -183q0 -28 -4 -90t-4 -91q0 -45 -22.5 -159.5t-45.5 -135t-45 -20.5q-19 0 -54.5 46 t-35.5 73zM264 1174q0 5 31 42.5t44.5 44.5t57.5 7q42 0 62 -11t20 -51q0 -11 -5 -20t-5 -12l4 -41q0 -44 -48 -77.5t-95 -33.5q-27 0 -43 25t-23 127z" />
<glyph unicode="&#xa2;" horiz-adv-x="1042" d="M119 606q0 97 29 161.5t43 87t90 76t118 70.5l55 14q123 28 121 38q10 13 24.5 126.5t14.5 159.5q0 64 82 64q27 0 46.5 -25.5t19.5 -54.5q0 -18 -3 -39q-4 -21 -5 -33q-3 -22 -18 -81q-15 -57 -15 -83q21 -12 79 -37q140 -59 140 -120q0 -39 -13.5 -55.5t-52.5 -16.5 q-31 0 -79 40t-74 40q-24 0 -58 -178.5t-34 -227.5q0 -28 18 -28q51 0 129 53q35 23 45 23q32 0 59 -10.5t27 -20.5q0 -46 -25 -79.5t-124 -59.5q-96 -24 -121 -43.5t-39 -92.5t-14 -163q0 -121 -66 -121q-35 0 -60.5 31t-25.5 69q0 30 22 117q23 91 27 121q-16 6 -144 18 q-94 9 -156 104t-62 156zM240 608q0 -39 56 -95t93 -56q16 0 56 8.5t44 15.5q18 12 21.5 59t31 199t31.5 193q-333 -108 -333 -324z" />
<glyph unicode="&#xa3;" horiz-adv-x="1370" d="M53 84q0 33 56.5 109t95.5 90q15 4 39 0q14 0 18 6q88 102 168 276l-15 1q-17 1 -93.5 -2t-140.5 16.5t-64 54.5q0 86 63 86q21 0 62 -11q36 -10 59 -10q130 0 152 15l17 231q7 81 55.5 185.5t150 172.5t192.5 68q68 0 135.5 -42t67.5 -109q0 -30 -20.5 -61.5 t-70.5 -31.5q-34 0 -74 47q-40 46 -69 46q-97 0 -175.5 -150.5t-63.5 -314.5q3 1 22 5q220 48 271 68q72 25 129 25q20 0 55 -14t35 -35q0 -57 -37 -75.5t-266 -59.5q-43 -8 -114.5 -28t-86.5 -29.5t-27 -78.5q-13 -71 -80 -156q-51 -64 -69 -102q1 -5 170 -57 q90 -28 185 -66q147 -57 249 -57q58 0 94 36.5t32.5 51.5t0.5 74q6 14 31.5 27.5t42.5 13.5q29 0 51.5 -36t22.5 -83q0 -104 -116 -164.5t-212 -60.5q-56 0 -149.5 28.5t-320.5 119.5q-115 45 -165 53q-188 -131 -203 -131q-28 0 -59 16.5t-31 42.5z" />
<glyph unicode="&#xa5;" horiz-adv-x="1325" d="M70 1331q0 68 92 68q21 0 80 -88q120 -193 383 -455q14 2 92 91q76 88 102 106q45 29 131 122q91 98 124 127.5t81 49.5t72 20q17 0 36 -25t19 -42q0 -29 -29 -52q-138 -99 -307.5 -243.5t-212.5 -229.5q-31 -55 -31 -69q55 0 181 27.5t161 45.5q26 13 31 13q22 0 47 -40 t25 -65q0 -37 -232 -75q-109 -18 -135 -27q-42 -12 -69 -12q-11 -25 -11 -94v-25q0 -39 13 -74q35 3 72 14q40 13 79 13q14 0 78 15q65 15 94 15q31 0 56.5 -16t25.5 -41q0 -47 -31 -66q-38 -12 -164 -31.5t-171 -19.5t-45 -41v-34q0 -78 36 -123q-28 -70 -112 -70 q-66 0 -73 155q-4 76 -19 76q-11 0 -88 -11.5t-97 -18.5q-71 -23 -131 -23q-30 0 -53 27.5t-23 58.5t29 47.5t60 16.5q76 0 184 14.5t120.5 34t12.5 102.5q0 54 -8 68t-31 14q-35 0 -143 -11t-127 -11q-52 0 -77.5 18.5t-25.5 71.5q0 67 82 67q17 0 77 -10t77 -10 q119 0 160 16q-17 60 -97.5 154.5t-103.5 111.5q-36 32 -101 119q-63 84 -100 117q-65 61 -65 137z" />
<glyph unicode="&#xa7;" horiz-adv-x="858" d="M94 188q0 99 31 99q56 0 76 -18t33 -58q15 -45 39 -66t39.5 -36t61.5 -15q95 0 161.5 45t66.5 88q0 66 -34.5 103t-109.5 72q-103 47 -197.5 114.5t-125.5 115t-31 138.5q0 131 145 223l26 18q55 38 100 48q-18 19 -71 63t-73 82t-20 99q0 33 43 122l14 29q20 36 105 56 t152 20q80 0 157.5 -39t77.5 -94q0 -40 -31.5 -79.5t-66.5 -39.5q-12 0 -30 42q-17 43 -18 44q-12 22 -48 42.5t-66 20.5q-41 0 -97.5 -29t-56.5 -69q0 -87 30 -125t163 -112q74 -37 146.5 -129.5t72.5 -191.5q0 -69 -71 -152.5t-148 -94.5q144 -92 166 -151.5t22 -114.5 q0 -131 -96 -207t-256 -76q-134 0 -207.5 72t-73.5 141zM258 788q0 -126 92 -165q22 -9 59 -32q36 -22 48 -28q1 16 35 36q126 83 126 167q0 47 -23 97.5t-74 72.5t-64 22q-78 0 -138.5 -49t-60.5 -121z" />
<glyph unicode="&#xa8;" horiz-adv-x="721" d="M52 1240q0 125 69 125q64 0 102.5 -35t38.5 -98q0 -45 -100 -45q-23 0 -66.5 15t-43.5 38zM446 1304q0 39 18.5 57t97.5 37l15 4q28 8 48.5 -14t20.5 -63q0 -111 -109 -111q-38 0 -64.5 26.5t-26.5 63.5z" />
<glyph unicode="&#xa9;" horiz-adv-x="1958" d="M139 422q0 73 51.5 275.5t195 406t331 297.5t291.5 94q63 0 146 -56.5t83 -101.5q0 -12 -16 -43q-13 -26 -17 -37q32 5 43 5q15 0 174 -23t290 -93t171.5 -164.5t40.5 -115.5q0 -81 -45 -164t-158 -188.5t-347 -210.5t-461.5 -160t-311.5 -55q-48 0 -180 36t-166 67.5 t-74.5 112.5t-40.5 118zM283 430q0 -84 102.5 -143.5t214.5 -59.5q297 0 634 155t449.5 286.5t112.5 216.5q0 42 -83 119.5t-250 120.5t-299 48q-124 5 -130.5 26t-1.5 50q24 11 56 11h49q-33 71 -54.5 85.5t-68.5 14.5q-90 0 -265.5 -110t-320.5 -378.5t-145 -441.5z M621 641q0 27 15 67q12 30 19 58q31 111 54 147.5t128.5 111.5t198.5 75q61 0 110.5 -49.5t49.5 -112.5q0 -50 -52 -65l-46 -15q-30 0 -40 77q-3 32 -5 34q-74 10 -102 -23q-14 -17 -33 -33q-146 -114 -146 -262q0 -60 15 -74t85 -14q134 0 277.5 66.5t169.5 104.5 q14 20 43 20q20 0 20 -27l-4 -33q0 -33 -103.5 -124.5t-238 -119.5t-202.5 -28q-90 0 -151.5 66t-61.5 153z" />
<glyph unicode="&#xaa;" horiz-adv-x="973" d="M122 889q0 186 166 398t328 212q62 0 96 -72q6 -17 20 -17q65 0 65 -52q0 -22 -15 -107q-30 -159 -30 -239q0 -161 59 -191q35 -20 35 -50q0 -25 -33.5 -50t-62.5 -25q-60 0 -95 73t-38 191q-188 -242 -355 -242q-58 0 -99 48.5t-41 122.5zM262 922q0 -69 43 -69 q69 0 202 149t133 276q0 89 -55 89q-84 0 -203.5 -167t-119.5 -278z" />
<glyph unicode="&#xab;" horiz-adv-x="1497" d="M57 691q-5 66 69 81q125 25 282 137q258 182 277 188q25 0 43.5 -28t18.5 -56q0 -50 -103 -110q-56 -32 -85 -54l-91 -69q-23 -15 -41 -28q-7 -5 -23 -10q-98 -33 -109 -46q-5 -10 -7 -18q120 -74 275.5 -198t155.5 -164q0 -21 -17 -41.5t-37 -20.5q-13 0 -27 6 q-25 23 -255 186q-39 27 -65 48q-60 47 -166 102q-56 25 -63 34q-22 14 -32 61zM701 661q0 25 13 32q83 86 482 264q12 5 33 22q83 67 108 82t48 15q20 0 42 -19.5t29 -46.5q2 -21 -17 -44q-6 -24 -23 -40q-19 -8 -53 -20q-34 -13 -66 -27q-5 -8 -54 -35l-167 -92 q-146 -81 -155 -88.5t-6 -18.5q2 -2 28 -17q52 -32 181.5 -125.5t159.5 -123.5q56 -40 56 -65q6 -28 -14.5 -48.5t-42.5 -20.5q-25 0 -81 47q-81 61 -391 262q-62 36 -86 56.5t-24 50.5z" />
<glyph unicode="&#xac;" horiz-adv-x="1475" d="M98 700q0 14 21 38t43 25l174 8l13 1q39 3 116 -9q58 -8 94 -8q39 0 113 10t112 10q60 0 165 12q100 13 171 13q144 0 168 -49q4 -10 -1 -105t-5 -98q0 -60 -4 -174t-7.5 -126.5t-27 -31t-45.5 -18.5q-19 0 -41 21t-24 38l-1 13q-2 25 11 174q12 117 12 147q0 27 -9 43.5 t-16 16.5q-132 0 -243 -15q-96 -12 -193 -12l-317 -4l-135 6h-107q-37 0 -37 74z" />
<glyph unicode="&#xad;" horiz-adv-x="1313" d="M352 578q0 16 13.5 37.5t91.5 34t112 12.5l76 -11h73q186 0 277 13q44 6 88 6q19 0 77.5 -23t69.5 -38.5t11 -41.5q0 -37 -15 -52t-65 -15q-22 0 -62 13t-67 13q-11 0 -73 -5q-33 -3 -120 5q-67 6 -100 6q-46 0 -139 -6t-141 -6t-77.5 10.5t-29.5 47.5z" />
<glyph unicode="&#xae;" horiz-adv-x="1915" d="M84 547q0 104 116.5 290.5t207.5 241.5q115 71 151 113q0 43 10 62t56.5 67.5t102 91.5t74 52.5t104 27.5t124.5 18q169 0 323.5 -55t311 -260t156.5 -291q0 -137 -30.5 -217t-149 -184t-293.5 -197t-372 -151t-347 -58q-12 0 -99 5q-68 4 -116 23.5t-121 72.5 t-119.5 106.5t-68 118t-21.5 123.5zM224 600q0 -117 21 -164t74 -91t150.5 -73.5t204.5 -29.5q100 0 220 30q38 9 93 21q111 20 411 180.5t300 388.5q0 191 -218.5 365t-418.5 174q-84 0 -181.5 -35t-142.5 -86q192 80 279 80q34 0 100 -62t66 -98q0 -16 -21 -51 q-71 54 -92.5 61t-101.5 7q-78 0 -253 -87.5t-332.5 -250.5t-157.5 -279zM694 967q0 14 11.5 28.5t27.5 23.5t60 14l105 13q61 7 116 7q89 0 157 -75t68 -106q0 -49 -168 -106q46 -30 115 -55q142 -52 187.5 -76t45.5 -49q0 -17 -28 -34t-45 -17q-52 0 -202 72 q-148 71 -202 71q-14 0 -25.5 20.5t-11.5 42.5q0 29 20.5 45.5t101.5 52.5q65 29 65 48q0 43 -115 43q-27 0 -109 -31q0 -114 24 -242q3 -19 3 -34q0 -36 -20 -77.5t-48 -41.5q-23 0 -46 17t-30.5 35t-7.5 67q0 30 4 100q3 70 3 100q0 52 -7 72q0 2 -25 26q-24 24 -24 46z " />
<glyph unicode="&#xaf;" horiz-adv-x="725" d="M65 1247q0 29 18.5 43.5t51.5 21.5q54 17 115 21q31 5 68.5 7t84.5 3t75 2t39 2q13 2 22 3t17 2h14l18 1q30 0 47 -19.5t17 -49.5q0 -40 -39 -60q-40 -17 -85 -17q-33 0 -62.5 0.5t-74.5 0.5h-39l-30 -1q-17 0 -40 -5t-55 -15q-63 -18 -90 -18q-15 0 -28.5 6.5t-23 17.5 t-15 25t-5.5 29z" />
<glyph unicode="&#xb0;" horiz-adv-x="1038" d="M192 1082q0 87 98.5 211t175.5 124q25 0 68 6q38 7 75 7q25 0 101 -20t126 -133.5t50 -141.5q0 -138 -118.5 -233t-270.5 -95q-131 0 -218 77t-87 198zM343 1085q0 -63 58.5 -106t113.5 -43q59 0 118 13.5t92.5 74.5t33.5 86q0 73 -34.5 131.5t-68.5 58.5q-17 0 -33 -6 q-18 -6 -34 -17q-11 -7 -10 -9l-83 10q-56 0 -104.5 -64.5t-48.5 -128.5z" />
<glyph unicode="&#xb1;" horiz-adv-x="1169" d="M74 795q21 26 92 26l44 1h40l44 1l228 6q21 39 21 129q0 12 -5 85l5 135q0 34 10.5 48.5t46.5 14.5q52 0 68 -17t16 -71q0 -49 -21 -266l-6 -70q121 -10 238 -10q13 0 50 9q38 9 61 9q28 0 48.5 -19.5t20.5 -47.5q0 -20 -15 -47t-32 -27l-131 10h-75q-32 0 -58 -1h-54 q-28 0 -59 -1q-14 -56 -14 -92q0 -12 5 -112q5 -102 3.5 -141t-29 -63t-57.5 -24q-16 0 -35.5 16.5t-19.5 34.5q0 29 12 125q10 96 10 166q0 60 -4 90q-10 2 -19 2h-20q-64 0 -143 -7t-119 -7h-55q-50 0 -70 12t-22 103zM92 61q0 24 19 49t43 25t76 10q59 11 85 11 q30 0 230 -12l124 -7q40 -4 60 -4l170 4l86 -4q74 0 74 -78q0 -69 -172 -69q-33 0 -131 9q-96 9 -152 9l-264 -4h-68q-134 0 -145.5 5t-23 28t-11.5 28z" />
<glyph unicode="&#xb4;" horiz-adv-x="762" d="M98 1096q0 51 153.5 167t275.5 184q46 26 69 45q17 14 18 11q17 0 39.5 -37t22.5 -57q0 -12 -19 -38t-32 -34q-4 -2 -10 -6q-7 -4 -18 -9q-67 -31 -278 -192q-87 -67 -132 -96l-23 -14q-26 0 -46 25t-20 51z" />
<glyph unicode="&#xb5;" horiz-adv-x="1518" d="M164 -258q0 22 6 58q7 29 10 61q10 97 45 249q27 117 73 400q10 62 26 125q15 68 22 118q28 176 58.5 227.5t89.5 51.5q69 0 69 -117q0 -50 -40 -154q-25 -72 -47.5 -191.5t-22.5 -202.5q0 -32 37 -90t63 -58q145 0 278.5 116t168 205t61.5 235q9 53 18 83q23 136 68 129 q26 0 77.5 -16t51.5 -37q0 -33 -21 -98q-4 -14 -10 -40l-18 -65q-43 -160 -43 -213q0 -93 19.5 -211.5t68.5 -118.5q20 0 51 10q15 5 55 21q17 7 17 8q19 0 31 -18t12 -39q0 -45 -70 -104q-39 -37 -151 -37q-68 0 -118.5 106.5t-70.5 239.5q-81 -116 -211 -222t-205 -106 q-28 0 -68.5 10t-72.5 27t-63 127q0 -69 -27 -182q-35 -134 -59 -302q-18 -122 -74 -122q-43 0 -63.5 44.5t-20.5 92.5z" />
<glyph unicode="&#xb6;" horiz-adv-x="1370" d="M125 911q0 80 49.5 195.5t236 192t283.5 92.5l56 10q166 31 270 31q71 0 152 -41.5t81 -94.5q0 -34 -28 -50t-34 -29t-9 -69q-2 -24 -6 -56l-9 -82q-10 -96 -32 -230q-31 -177 -31 -368q0 -280 53 -426q20 -48 21 -54q-6 -11 -33.5 -23.5t-40.5 -12.5q-74 0 -108.5 181.5 t-34.5 305.5q0 289 84 697q26 124 26 167q0 37 -70 37q-62 0 -229 -21.5t-293.5 -86t-168.5 -135.5t-42 -121q0 -37 59 -131.5t115 -94.5q34 0 45 55.5t11 202.5q0 129 77 129q46 0 46 -63q0 -61 -8 -159q-7 -96 -9 -146q12 -19 33 -19l41 6q70 0 70 -65q0 -32 -14 -43 t-44 -16q-45 -7 -59.5 -22t-23.5 -67.5t-9 -196.5v-77q0 -142 10 -246q10 -76 10 -94q0 -28 -24 -50t-51 -22q-18 0 -47.5 63t-44.5 169t-15 143q0 36 16 196q3 45 3 96t-9.5 65t-47.5 28q-60 24 -166.5 122t-106.5 228z" />
<glyph unicode="&#xb7;" horiz-adv-x="524" d="M141 635q0 21 24 64q24 45 40 61q20 20 110 20q32 0 54 -63q24 -63 24 -96q0 -22 -24 -58q-15 -18 -95 -18q-25 0 -79 33t-54 57z" />
<glyph unicode="&#xb8;" horiz-adv-x="637" d="M49 -462q0 26 21.5 53.5t44.5 27.5q17 0 52 -24q60 -51 98 -51q112 0 143.5 35t31.5 90q0 38 -25.5 63.5t-63.5 25.5q-13 0 -47 -13q-21 -10 -49 -10q-56 0 -56 52l101 262q8 31 69 31q16 0 28.5 -22.5t12.5 -47.5q0 -10 -7 -21q-26 -43 -34 -112q23 -20 80 -24 q43 0 79 -17t57 -61.5t21 -140.5q0 -49 -93.5 -132t-260.5 -83q-24 0 -69 15q-42 14 -73 29q-14 7 -13 7q-48 25 -48 68z" />
<glyph unicode="&#xba;" horiz-adv-x="895" d="M119 932q0 125 82 264q24 40 37 68q57 119 134 172t193 53q33 0 49.5 -11t38.5 -57q12 -20 43 -42q97 -68 97 -244q0 -51 -31 -153t-186 -185.5t-269 -83.5q-188 0 -188 219zM250 911q0 -21 38 -49t64 -28q15 0 57 19.5t111 58t89 56.5t33 67t13 91q0 96 -51 131 q-22 15 -25 21t-6 26q-8 63 -30 58q-116 0 -204.5 -160.5t-88.5 -290.5z" />
<glyph unicode="&#xbb;" horiz-adv-x="1493" d="M150 229q0 25 15 71q41 44 292 193q78 52 95.5 70.5t17.5 40.5q0 24 -190 168q-48 38 -80 67q-32 28 -55 47q-29 30 -42 57q0 32 25 54.5t50 22.5q52 0 188 -140q38 -38 67 -64l49 -46q51 -37 79 -49q14 0 59 -46.5t45 -67.5q0 -36 -17 -49q-19 -20 -202 -147 q-72 -50 -112 -89q-70 -68 -98 -89q-8 -6 -24 -20q-43 -48 -65 -52q-58 -6 -71.5 3t-19.5 34t-6 31zM746 216q-15 84 482 386q-3 10 -143 120q-152 117 -192 151t-40 51q-7 14 21.5 56t46.5 42q37 0 118 -90q189 -199 348 -241q74 -20 74 -51q0 -45 -24 -62t-144 -82 q-18 -10 -26 -17q-67 -57 -130 -95q-150 -106 -229 -183q-46 -65 -87 -65q-30 0 -52.5 23.5t-22.5 56.5z" />
<glyph unicode="&#xbf;" horiz-adv-x="987" d="M64 -239q0 211 88 356t233 188l19 6q89 31 133 31l6 23q-23 75 -23 178q0 233 135 233q62 0 62 -89q0 -21 -16 -50q-27 -46 -32 -75.5t-5 -90.5q0 -5 35 -99q36 -90 36 -124q0 -31 -33 -59.5t-71 -28.5q-28 0 -76 39q-132 -15 -240 -127.5t-108 -231.5q0 -168 184 -168 q93 0 224.5 50.5t211.5 123.5q37 35 89 35q17 0 34 -20t17 -37q0 -39 -82.5 -112t-195.5 -140.5t-331 -67.5q-3 0 -19 4q-16 3 -26 3q-92 0 -170.5 80t-78.5 170zM590 1149q0 158 102 158q57 0 69.5 -54.5t12.5 -113.5q0 -14 -37.5 -51t-56.5 -37q-23 0 -56.5 32.5 t-33.5 65.5z" />
<glyph unicode="&#xc0;" horiz-adv-x="1592" d="M-10 55q0 32 36 86.5t147 219.5q198 293 334 550q215 409 273 482.5t89 73.5q66 0 99 -36q9 -7 9 -49q0 -43 -9 -65l13 -42q33 -118 65 -194q40 -102 79 -219q89 -269 185.5 -460.5t176.5 -269.5q50 -49 62.5 -67.5t12.5 -43.5q0 -44 -29.5 -74.5t-70.5 -30.5 q-128 0 -310 403q-73 159 -88 159q-48 0 -206.5 -29t-289.5 -68q-75 -23 -95 -23q-25 0 -52 25q-5 4 -12 4q-22 0 -95 -130q-120 -215 -151.5 -256.5t-69.5 -41.5q-27 0 -65 31.5t-38 64.5zM481 533q21 16 111 26q69 7 120 18q273 55 317 59q-35 80 -103 293 q-74 227 -94 276q-55 -116 -170 -329zM500 2079q0 20 33.5 44.5t55.5 24.5q14 0 58.5 -38t107.5 -97.5t172.5 -145.5t127 -111.5t17.5 -50.5q0 -35 -25 -62t-57 -27q-11 0 -49 38l-185 180q-8 5 -30 22l-63 46q-163 121 -163 177z" />
<glyph unicode="&#xc1;" horiz-adv-x="1592" d="M-10 55q0 32 36 86.5t147 219.5q198 293 334 550q215 409 273 482.5t89 73.5q66 0 99 -36q9 -7 9 -49q0 -43 -9 -65l13 -42q33 -118 65 -194q40 -102 79 -219q89 -269 185.5 -460.5t176.5 -269.5q50 -49 62.5 -67.5t12.5 -43.5q0 -44 -29.5 -74.5t-70.5 -30.5 q-128 0 -310 403q-73 159 -88 159q-48 0 -206.5 -29t-289.5 -68q-75 -23 -95 -23q-25 0 -52 25q-5 4 -12 4q-22 0 -95 -130q-120 -215 -151.5 -256.5t-69.5 -41.5q-27 0 -65 31.5t-38 64.5zM481 533q21 16 111 26q69 7 120 18q273 55 317 59q-35 80 -103 293 q-74 227 -94 276q-55 -116 -170 -329zM792 1737q0 51 153.5 167t275.5 184q46 26 69 45q17 14 18 11q17 0 39.5 -37t22.5 -57q0 -12 -19 -38t-32 -34q-4 -2 -10 -6q-7 -4 -18 -9q-67 -31 -278 -192q-87 -67 -132 -96l-23 -14q-26 0 -46 25t-20 51z" />
<glyph unicode="&#xc2;" horiz-adv-x="1592" d="M-10 55q0 32 36 86.5t147 219.5q198 293 334 550q215 409 273 482.5t89 73.5q66 0 99 -36q9 -7 9 -49q0 -43 -9 -65l13 -42q33 -118 65 -194q40 -102 79 -219q89 -269 185.5 -460.5t176.5 -269.5q50 -49 62.5 -67.5t12.5 -43.5q0 -44 -29.5 -74.5t-70.5 -30.5 q-128 0 -310 403q-73 159 -88 159q-48 0 -206.5 -29t-289.5 -68q-75 -23 -95 -23q-25 0 -52 25q-5 4 -12 4q-22 0 -95 -130q-120 -215 -151.5 -256.5t-69.5 -41.5q-27 0 -65 31.5t-38 64.5zM481 533q21 16 111 26q69 7 120 18q273 55 317 59q-35 80 -103 293 q-74 227 -94 276q-55 -116 -170 -329zM500 1706q0 43 17 56l107 101q44 42 84 76q76 65 130 129q64 76 107 76q20 0 43.5 -32.5t90.5 -152.5q54 -99 58 -100q6 -5 25 -27t51 -57q65 -71 74.5 -94t9.5 -40q0 -27 -20.5 -48t-42.5 -21q-42 0 -120 114q-25 39 -73 96 q-46 56 -72 104q-29 70 -49 70q-23 0 -148 -144q-92 -105 -141 -153t-75 -48q-56 0 -56 95z" />
<glyph unicode="&#xc3;" horiz-adv-x="1592" d="M-10 55q0 32 36 86.5t147 219.5q198 293 334 550q215 409 273 482.5t89 73.5q66 0 99 -36q9 -7 9 -49q0 -43 -9 -65l13 -42q33 -118 65 -194q40 -102 79 -219q89 -269 185.5 -460.5t176.5 -269.5q50 -49 62.5 -67.5t12.5 -43.5q0 -44 -29.5 -74.5t-70.5 -30.5 q-128 0 -310 403q-73 159 -88 159q-48 0 -206.5 -29t-289.5 -68q-75 -23 -95 -23q-25 0 -52 25q-5 4 -12 4q-22 0 -95 -130q-120 -215 -151.5 -256.5t-69.5 -41.5q-27 0 -65 31.5t-38 64.5zM452 1708q0 71 111 184.5t184 113.5q68 0 102 -13.5t79 -58.5q39 -41 71 -63 q15 -10 31 -22q63 -47 89 -47q27 0 50 19.5t75 90.5q46 65 64 65q54 0 54 -59q0 -39 -76 -144.5t-151 -105.5q-79 0 -129.5 31t-94.5 75q-10 10 -12 11q-17 16 -30 31q-47 49 -93 49q-34 0 -62 -21t-83 -85q-50 -64 -74.5 -84t-55.5 -20q-49 0 -49 53zM481 533q21 16 111 26 q69 7 120 18q273 55 317 59q-35 80 -103 293q-74 227 -94 276q-55 -116 -170 -329z" />
<glyph unicode="&#xc4;" horiz-adv-x="1592" d="M-10 55q0 32 36 86.5t147 219.5q198 293 334 550q215 409 273 482.5t89 73.5q66 0 99 -36q9 -7 9 -49q0 -43 -9 -65l13 -42q33 -118 65 -194q40 -102 79 -219q89 -269 185.5 -460.5t176.5 -269.5q50 -49 62.5 -67.5t12.5 -43.5q0 -44 -29.5 -74.5t-70.5 -30.5 q-128 0 -310 403q-73 159 -88 159q-48 0 -206.5 -29t-289.5 -68q-75 -23 -95 -23q-25 0 -52 25q-5 4 -12 4q-22 0 -95 -130q-120 -215 -151.5 -256.5t-69.5 -41.5q-27 0 -65 31.5t-38 64.5zM481 533q21 16 111 26q69 7 120 18q273 55 317 59q-35 80 -103 293 q-74 227 -94 276q-55 -116 -170 -329zM619 1686q0 125 69 125q64 0 102.5 -35t38.5 -98q0 -45 -100 -45q-23 0 -66.5 15t-43.5 38zM1013 1750q0 39 18.5 57t97.5 37l15 4q28 8 48.5 -14t20.5 -63q0 -111 -109 -111q-38 0 -64.5 26.5t-26.5 63.5z" />
<glyph unicode="&#xc5;" horiz-adv-x="1592" d="M-10 55q0 32 36 86.5t147 219.5q198 293 334 550q219 417 271 478l4 6q-137 59 -137 210q0 83 81.5 161.5t220.5 78.5q26 0 86.5 -26.5t86 -91.5t25.5 -98q0 -65 -48.5 -128t-120.5 -97l1 -11q4 -45 -9 -76l13 -42q33 -118 65 -194q40 -102 79 -219q89 -269 185.5 -460.5 t176.5 -269.5q50 -49 62.5 -67.5t12.5 -43.5q0 -44 -29.5 -74.5t-70.5 -30.5q-128 0 -310 403q-73 159 -88 159q-48 0 -206.5 -29t-289.5 -68q-75 -23 -95 -23q-25 0 -52 25q-5 4 -12 4q-22 0 -95 -130q-120 -215 -151.5 -256.5t-69.5 -41.5q-27 0 -65 31.5t-38 64.5z M481 533q21 16 111 26q69 7 120 18q273 55 317 59q-35 80 -103 293q-74 227 -94 276q-55 -116 -170 -329zM779 1597q0 -39 31.5 -80t70.5 -41q35 0 86 32.5t51 106.5q0 40 -20 78.5t-82 38.5h-16q-68 0 -94.5 -47t-26.5 -88z" />
<glyph unicode="&#xc6;" horiz-adv-x="2273" d="M-82 8q0 23 27 54.5t49 31.5q58 0 201 178q60 77 123 136q85 81 134 132l72 74q82 84 176 205q24 31 49 61q114 137 209.5 322t102.5 238q64 49 88 49q23 0 95 -45l7 -63l86 -5h4q23 0 222 19t475 66q29 5 35 5l15 1q78 5 107.5 -15.5t36.5 -79.5q0 -28 -26 -54t-41 -28 q-3 -1 -54.5 1t-105.5 -10q-54 -13 -96 -16q-29 -2 -63 -8q-43 -8 -170 -9q-191 -3 -240.5 -26t-55.5 -95q-5 -55 -21 -121q-49 -197 -49 -262l15 -1q47 -3 190 13t214 32q146 35 223 35q125 0 125 -67q0 -82 -83.5 -100.5t-348.5 -47.5q-324 -36 -345.5 -64.5t-45.5 -183.5 t-24 -198v-11q5 -50 64 -57l18 -1q55 -3 131 9l192 28q107 15 217 35q137 29 174 29q28 0 62.5 -23.5t34.5 -74.5q0 -37 -18 -51q-102 -45 -263 -50q-139 -5 -434 -47q-149 -22 -196 -22q-117 0 -146.5 18.5t-35.5 90.5l-4 34v4q0 16 18 65q25 71 55 253q-2 8 -3 17l-4 18 q-200 -35 -283 -35q-19 0 -111 27q-92 26 -112 26q-39 0 -169 -168q-132 -165 -202 -235l-42 -45q-79 -82 -161 -82q-32 0 -63 31t-31 63zM735 590q0 -12 45 -25.5t56 -13.5q68 0 296 50q5 33 8 64q8 83 22 155q44 239 44 378q0 4 -7 16q-167 -231 -273 -350 q-191 -213 -191 -274z" />
<glyph unicode="&#xc7;" horiz-adv-x="1432" d="M115 364q0 405 348.5 788.5t671.5 383.5q121 0 193.5 -74.5t72.5 -173.5q0 -92 -10.5 -145t-63.5 -89.5t-85 -36.5q-23 0 -40 20t-17 54q0 23 17 96q17 72 17 107q0 102 -89 102q-138 0 -341.5 -158.5t-345.5 -402t-142 -448.5q0 -137 81.5 -227.5t232.5 -90.5 q87 0 211.5 43.5t228.5 116.5t123 73q39 0 39 -48q0 -50 -111 -143t-256.5 -148t-266.5 -55q-45 0 -98 11q-9 -24 -15 -74q23 -20 80 -24q79 0 119 -52.5t40 -166.5q0 -48 -95 -131.5t-261 -83.5q-24 0 -69 15q-42 14 -73 29q-14 7 -13 7q-48 25 -48 68q0 26 21.5 53.5 t44.5 27.5q17 0 52 -24q60 -51 98 -51q114 0 145.5 37t31.5 88q0 38 -26.5 62.5t-64.5 24.5q-13 0 -47 -13q-17 -8 -49 -8q-56 0 -56 52l76 199q-261 115 -261 410z" />
<glyph unicode="&#xc8;" horiz-adv-x="1401" d="M154 69v4q0 16 18 65q25 71 58.5 270t43.5 315q5 40 16 97q44 239 44 378q0 7 -20 37q-5 6 -7 10q-7 23 -13 38q-7 14 -7 33v10q0 22 27 39t52 17h3q42 0 96 -6h4q23 0 222 19t475 66q29 5 35 5l15 1q78 5 107.5 -15.5t36.5 -79.5q0 -28 -26 -54t-41 -28q-3 -1 -54.5 1 t-105.5 -10q-54 -13 -96 -16q-29 -2 -63 -8q-43 -8 -170 -9q-191 -3 -240.5 -26t-55.5 -95q-5 -55 -21 -121q-49 -197 -49 -262l15 -1q47 -3 190 13t214 32q146 35 223 35q125 0 125 -67q0 -82 -83.5 -100.5t-348.5 -47.5q-324 -36 -345.5 -64.5t-45.5 -183.5t-24 -198v-11 q5 -50 64 -57l18 -1q55 -3 131 9l192 28q107 15 217 35q137 29 174 29q28 0 62.5 -23.5t34.5 -74.5q0 -37 -18 -51q-102 -45 -263 -50q-139 -5 -434 -47q-149 -22 -196 -22q-117 0 -146.5 18.5t-35.5 90.5zM464 2049q0 20 33.5 44.5t55.5 24.5q14 0 58.5 -38t107.5 -97.5 t172.5 -145.5t127 -111.5t17.5 -50.5q0 -35 -25 -62t-57 -27q-11 0 -49 38l-185 180q-8 5 -30 22l-63 46q-163 121 -163 177z" />
<glyph unicode="&#xc9;" horiz-adv-x="1401" d="M154 69v4q0 16 18 65q25 71 58.5 270t43.5 315q5 40 16 97q44 239 44 378q0 7 -20 37q-5 6 -7 10q-7 23 -13 38q-7 14 -7 33v10q0 22 27 39t52 17h3q42 0 96 -6h4q23 0 222 19t475 66q29 5 35 5l15 1q78 5 107.5 -15.5t36.5 -79.5q0 -28 -26 -54t-41 -28q-3 -1 -54.5 1 t-105.5 -10q-54 -13 -96 -16q-29 -2 -63 -8q-43 -8 -170 -9q-191 -3 -240.5 -26t-55.5 -95q-5 -55 -21 -121q-49 -197 -49 -262l15 -1q47 -3 190 13t214 32q146 35 223 35q125 0 125 -67q0 -82 -83.5 -100.5t-348.5 -47.5q-324 -36 -345.5 -64.5t-45.5 -183.5t-24 -198v-11 q5 -50 64 -57l18 -1q55 -3 131 9l192 28q107 15 217 35q137 29 174 29q28 0 62.5 -23.5t34.5 -74.5q0 -37 -18 -51q-102 -45 -263 -50q-139 -5 -434 -47q-149 -22 -196 -22q-117 0 -146.5 18.5t-35.5 90.5zM759 1656q0 51 153.5 167t275.5 184q46 26 69 45q17 14 18 11 q17 0 39.5 -37t22.5 -57q0 -12 -19 -38t-32 -34q-4 -2 -10 -6q-7 -4 -18 -9q-67 -31 -278 -192q-87 -67 -132 -96l-23 -14q-26 0 -46 25t-20 51z" />
<glyph unicode="&#xca;" horiz-adv-x="1401" d="M154 69v4q0 16 18 65q25 71 58.5 270t43.5 315q5 40 16 97q44 239 44 378q0 7 -20 37q-5 6 -7 10q-7 23 -13 38q-7 14 -7 33v10q0 22 27 39t52 17h3q42 0 96 -6h4q23 0 222 19t475 66q29 5 35 5l15 1q78 5 107.5 -15.5t36.5 -79.5q0 -28 -26 -54t-41 -28q-3 -1 -54.5 1 t-105.5 -10q-54 -13 -96 -16q-29 -2 -63 -8q-43 -8 -170 -9q-191 -3 -240.5 -26t-55.5 -95q-5 -55 -21 -121q-49 -197 -49 -262l15 -1q47 -3 190 13t214 32q146 35 223 35q125 0 125 -67q0 -82 -83.5 -100.5t-348.5 -47.5q-324 -36 -345.5 -64.5t-45.5 -183.5t-24 -198v-11 q5 -50 64 -57l18 -1q55 -3 131 9l192 28q107 15 217 35q137 29 174 29q28 0 62.5 -23.5t34.5 -74.5q0 -37 -18 -51q-102 -45 -263 -50q-139 -5 -434 -47q-149 -22 -196 -22q-117 0 -146.5 18.5t-35.5 90.5zM509 1725q0 43 17 56l107 101q44 42 84 76q76 65 130 129 q64 76 107 76q20 0 43.5 -32.5t90.5 -152.5q54 -99 58 -100q6 -5 25 -27t51 -57q65 -71 74.5 -94t9.5 -40q0 -27 -20.5 -48t-42.5 -21q-42 0 -120 114q-25 39 -73 96q-46 56 -72 104q-29 70 -49 70q-23 0 -148 -144q-92 -105 -141 -153t-75 -48q-56 0 -56 95z" />
<glyph unicode="&#xcb;" horiz-adv-x="1401" d="M154 69v4q0 16 18 65q25 71 58.5 270t43.5 315q5 40 16 97q44 239 44 378q0 7 -20 37q-5 6 -7 10q-7 23 -13 38q-7 14 -7 33v10q0 22 27 39t52 17h3q42 0 96 -6h4q23 0 222 19t475 66q29 5 35 5l15 1q78 5 107.5 -15.5t36.5 -79.5q0 -28 -26 -54t-41 -28q-3 -1 -54.5 1 t-105.5 -10q-54 -13 -96 -16q-29 -2 -63 -8q-43 -8 -170 -9q-191 -3 -240.5 -26t-55.5 -95q-5 -55 -21 -121q-49 -197 -49 -262l15 -1q47 -3 190 13t214 32q146 35 223 35q125 0 125 -67q0 -82 -83.5 -100.5t-348.5 -47.5q-324 -36 -345.5 -64.5t-45.5 -183.5t-24 -198v-11 q5 -50 64 -57l18 -1q55 -3 131 9l192 28q107 15 217 35q137 29 174 29q28 0 62.5 -23.5t34.5 -74.5q0 -37 -18 -51q-102 -45 -263 -50q-139 -5 -434 -47q-149 -22 -196 -22q-117 0 -146.5 18.5t-35.5 90.5zM624 1660q0 125 69 125q64 0 102.5 -35t38.5 -98q0 -45 -100 -45 q-23 0 -66.5 15t-43.5 38zM1018 1724q0 39 18.5 57t97.5 37l15 4q28 8 48.5 -14t20.5 -63q0 -111 -109 -111q-38 0 -64.5 26.5t-26.5 63.5z" />
<glyph unicode="&#xcc;" horiz-adv-x="649" d="M160 2120q0 20 33.5 44.5t55.5 24.5q14 0 58.5 -38t107.5 -97.5t172.5 -145.5t127 -111.5t17.5 -50.5q0 -35 -25 -62t-57 -27q-11 0 -49 38l-185 180q-8 5 -30 22l-63 46q-163 121 -163 177zM195 223q0 141 40 390q14 94 16 113q2 34 8 70q5 35 8 70q6 93 36 243 q22 113 32 199q7 60 16 81t46.5 46t56.5 25q42 0 63 -40.5t21 -94.5q-6 -39 -67 -279q-29 -113 -38 -190q-6 -52 -15 -113q-40 -256 -40 -350q0 -141 17 -277q10 -79 -28 -114t-76 -35q-54 0 -75 60.5t-21 195.5z" />
<glyph unicode="&#xcd;" horiz-adv-x="649" d="M195 223q0 141 40 390q14 94 16 113q2 34 8 70q5 35 8 70q6 93 36 243q22 113 32 199q7 60 16 81t46.5 46t56.5 25q42 0 63 -40.5t21 -94.5q-6 -39 -67 -279q-29 -113 -38 -190q-6 -52 -15 -113q-40 -256 -40 -350q0 -141 17 -277q10 -79 -28 -114t-76 -35 q-54 0 -75 60.5t-21 195.5zM332 1729q0 51 153.5 167t275.5 184q46 26 69 45q17 14 18 11q17 0 39.5 -37t22.5 -57q0 -12 -19 -38t-32 -34q-4 -2 -10 -6q-7 -4 -18 -9q-67 -31 -278 -192q-87 -67 -132 -96l-23 -14q-26 0 -46 25t-20 51z" />
<glyph unicode="&#xce;" horiz-adv-x="649" d="M109 1686q0 43 17 56l107 101q44 42 84 76q76 65 130 129q64 76 107 76q20 0 43.5 -32.5t90.5 -152.5q54 -99 58 -100q6 -5 25 -27t51 -57q65 -71 74.5 -94t9.5 -40q0 -27 -20.5 -48t-42.5 -21q-42 0 -120 114q-25 39 -73 96q-46 56 -72 104q-29 70 -49 70 q-23 0 -148 -144q-92 -105 -141 -153t-75 -48q-56 0 -56 95zM195 223q0 141 40 390q14 94 16 113q2 34 8 70q5 35 8 70q6 93 36 243q22 113 32 199q7 60 16 81t46.5 46t56.5 25q42 0 63 -40.5t21 -94.5q-6 -39 -67 -279q-29 -113 -38 -190q-6 -52 -15 -113 q-40 -256 -40 -350q0 -141 17 -277q10 -79 -28 -114t-76 -35q-54 0 -75 60.5t-21 195.5z" />
<glyph unicode="&#xcf;" horiz-adv-x="649" d="M195 223q0 141 40 390q14 94 16 113q2 34 8 70q5 35 8 70q6 93 36 243q22 113 32 199q7 60 16 81t46.5 46t56.5 25q42 0 63 -40.5t21 -94.5q-6 -39 -67 -279q-29 -113 -38 -190q-6 -52 -15 -113q-40 -256 -40 -350q0 -141 17 -277q10 -79 -28 -114t-76 -35 q-54 0 -75 60.5t-21 195.5zM214 1721q0 125 69 125q64 0 102.5 -35t38.5 -98q0 -45 -100 -45q-23 0 -66.5 15t-43.5 38zM608 1785q0 39 18.5 57t97.5 37l15 4q28 8 48.5 -14t20.5 -63q0 -111 -109 -111q-38 0 -64.5 26.5t-26.5 63.5z" />
<glyph unicode="&#xd0;" horiz-adv-x="1627" d="M58 685q0 20 21.5 51t40.5 39t60 20.5t95 23.5q27 203 37 256q18 96 18 132q0 39 -45 51q-82 20 -82 69q0 37 32.5 72.5t69.5 35.5l140 -4q98 0 258 13q159 13 238 13q276 0 443.5 -155.5t167.5 -409.5q0 -279 -239.5 -508.5t-682.5 -335.5q-175 -42 -237 -85 q-82 -56 -136 -56q-38 0 -67.5 40.5t-29.5 64.5q0 10 20 52q21 45 29.5 91t14.5 165q4 106 28 306q-65 -22 -84 -25q-45 0 -77.5 21.5t-32.5 62.5zM392 265q0 -65 13 -98q8 -7 31 -7q64 0 335 84t440 259t169 398q0 185 -130.5 295.5t-344.5 110.5q-130 0 -313 -24 q-41 -6 -81 -9q-17 -96 -66 -427q176 23 304 23q120 0 164 -18t44 -68q0 -39 -27 -66t-64 -27l-103 7q-66 5 -151 5q-62 0 -190 -22l-4 -33q-26 -251 -26 -383z" />
<glyph unicode="&#xd1;" horiz-adv-x="1655" d="M140 68q0 73 44 238q44 164 108.5 505t64.5 433l-1 55q1 29 11.5 51.5t40 38.5t58.5 16q27 0 50 -11.5t33 -35t24 -87.5q40 -194 247.5 -518.5t358.5 -497.5q61 238 119.5 585.5t58.5 485.5q0 73 11.5 99t48 45t79.5 19q28 0 48 -40t20 -95q0 -43 -32 -152 q-63 -248 -124 -588.5t-61 -393.5q0 -107 3 -135q4 -52 -33.5 -82t-98.5 -30q-36 0 -48.5 9.5t-52 53.5t-49.5 85q-8 38 -61 100q-288 368 -518 804q-65 -231 -121 -641l-25 -167q-4 -25 -3.5 -100.5t-8 -101.5t-40 -59.5t-60.5 -33.5q-67 0 -79 57.5t-12 88.5zM551 1716 q0 71 111 184.5t184 113.5q68 0 102 -13.5t79 -58.5q39 -41 71 -63q15 -10 31 -22q63 -47 89 -47q27 0 50 19.5t75 90.5q46 65 64 65q54 0 54 -59q0 -39 -76 -144.5t-151 -105.5q-79 0 -129.5 31t-94.5 75q-10 10 -12 11q-17 16 -30 31q-47 49 -93 49q-34 0 -62 -21t-83 -85 q-50 -64 -74.5 -84t-55.5 -20q-49 0 -49 53z" />
<glyph unicode="&#xd2;" horiz-adv-x="1646" d="M112 417q0 202 123 461t321 422.5t412 163.5q164 0 273 -40.5t196 -116.5t116 -156t29 -224q0 -136 -82 -318t-255.5 -355t-328.5 -249.5t-395 -76.5q-160 0 -284.5 159t-124.5 330zM295 426q0 -139 88 -234t204 -95q302 0 555 278t253 590q0 119 -46.5 187.5t-149.5 117 t-231 48.5q-224 0 -448.5 -304t-224.5 -588zM658 2101q0 20 33.5 44.5t55.5 24.5q14 0 58.5 -38t107.5 -97.5t172.5 -145.5t127 -111.5t17.5 -50.5q0 -35 -25 -62t-57 -27q-11 0 -49 38l-185 180q-8 5 -30 22l-63 46q-163 121 -163 177z" />
<glyph unicode="&#xd3;" horiz-adv-x="1646" d="M112 417q0 202 123 461t321 422.5t412 163.5q164 0 273 -40.5t196 -116.5t116 -156t29 -224q0 -136 -82 -318t-255.5 -355t-328.5 -249.5t-395 -76.5q-160 0 -284.5 159t-124.5 330zM295 426q0 -139 88 -234t204 -95q302 0 555 278t253 590q0 119 -46.5 187.5t-149.5 117 t-231 48.5q-224 0 -448.5 -304t-224.5 -588zM925 1688q0 51 153.5 167t275.5 184q46 26 69 45q17 14 18 11q17 0 39.5 -37t22.5 -57q0 -12 -19 -38t-32 -34q-4 -2 -10 -6q-7 -4 -18 -9q-67 -31 -278 -192q-87 -67 -132 -96l-23 -14q-26 0 -46 25t-20 51z" />
<glyph unicode="&#xd4;" horiz-adv-x="1646" d="M112 417q0 202 123 461t321 422.5t412 163.5q164 0 273 -40.5t196 -116.5t116 -156t29 -224q0 -136 -82 -318t-255.5 -355t-328.5 -249.5t-395 -76.5q-160 0 -284.5 159t-124.5 330zM295 426q0 -139 88 -234t204 -95q302 0 555 278t253 590q0 119 -46.5 187.5t-149.5 117 t-231 48.5q-224 0 -448.5 -304t-224.5 -588zM685 1704q0 43 17 56l107 101q44 42 84 76q76 65 130 129q64 76 107 76q20 0 43.5 -32.5t90.5 -152.5q54 -99 58 -100q6 -5 25 -27t51 -57q65 -71 74.5 -94t9.5 -40q0 -27 -20.5 -48t-42.5 -21q-42 0 -120 114q-25 39 -73 96 q-46 56 -72 104q-29 70 -49 70q-23 0 -148 -144q-92 -105 -141 -153t-75 -48q-56 0 -56 95z" />
<glyph unicode="&#xd5;" horiz-adv-x="1646" d="M112 417q0 202 123 461t321 422.5t412 163.5q164 0 273 -40.5t196 -116.5t116 -156t29 -224q0 -136 -82 -318t-255.5 -355t-328.5 -249.5t-395 -76.5q-160 0 -284.5 159t-124.5 330zM295 426q0 -139 88 -234t204 -95q302 0 555 278t253 590q0 119 -46.5 187.5t-149.5 117 t-231 48.5q-224 0 -448.5 -304t-224.5 -588zM598 1705q0 71 111 184.5t184 113.5q68 0 102 -13.5t79 -58.5q39 -41 71 -63q15 -10 31 -22q63 -47 89 -47q27 0 50 19.5t75 90.5q46 65 64 65q54 0 54 -59q0 -39 -76 -144.5t-151 -105.5q-79 0 -129.5 31t-94.5 75 q-10 10 -12 11q-17 16 -30 31q-47 49 -93 49q-34 0 -62 -21t-83 -85q-50 -64 -74.5 -84t-55.5 -20q-49 0 -49 53z" />
<glyph unicode="&#xd6;" horiz-adv-x="1646" d="M112 417q0 202 123 461t321 422.5t412 163.5q164 0 273 -40.5t196 -116.5t116 -156t29 -224q0 -136 -82 -318t-255.5 -355t-328.5 -249.5t-395 -76.5q-160 0 -284.5 159t-124.5 330zM295 426q0 -139 88 -234t204 -95q302 0 555 278t253 590q0 119 -46.5 187.5t-149.5 117 t-231 48.5q-224 0 -448.5 -304t-224.5 -588zM749 1722q0 125 69 125q64 0 102.5 -35t38.5 -98q0 -45 -100 -45q-23 0 -66.5 15t-43.5 38zM1143 1786q0 39 18.5 57t97.5 37l15 4q28 8 48.5 -14t20.5 -63q0 -111 -109 -111q-38 0 -64.5 26.5t-26.5 63.5z" />
<glyph unicode="&#xd8;" horiz-adv-x="1646" d="M112 417q0 202 123 461t321 422.5t412 163.5q134 0 256 -36q97 125 132 125q20 0 50 -36t30 -58q0 -23 -54 -107q125 -93 162.5 -180.5t37.5 -244.5q0 -136 -82 -318t-255.5 -355t-328.5 -249.5t-395 -76.5q-46 0 -90 15q-4 -5 -7 -10q-56 -88 -76 -88q-25 0 -51 26 t-26 52q0 12 35 90q-85 72 -139.5 185.5t-54.5 218.5zM295 426q0 -146 97 -245q41 72 83 131q45 63 119 174q22 33 79 109q9 12 15 22q64 104 188 284q172 246 247 378q4 8 9 16q-75 23 -164 23q-224 0 -448.5 -304t-224.5 -588zM525 104q28 -7 62 -7q302 0 555 278t253 590 q0 85 -21 141t-86 110l-122 -169q-157 -211 -430 -618q-33 -49 -93 -135q-99 -147 -112 -177z" />
<glyph unicode="&#xd9;" horiz-adv-x="1587" d="M179 568q0 114 50 383q9 49 26 156q32 213 44.5 256t39.5 68.5t63 25.5q25 0 51.5 -47.5t26.5 -73.5q0 -20 -46 -181q-24 -81 -52 -286.5t-28 -289.5q0 -281 131.5 -381t220.5 -100q172 0 292.5 52.5t182.5 190.5t88 513q26 383 63.5 477.5t106.5 94.5q68 0 68 -111 q0 -94 -39 -308q-25 -132 -37 -309q-11 -140 -29 -246.5t-59 -177.5t-103.5 -133t-130.5 -109t-187.5 -74.5t-209.5 -27.5q-98 0 -240.5 66t-217.5 224t-75 348zM506 2089q0 20 33.5 44.5t55.5 24.5q14 0 58.5 -38t107.5 -97.5t172.5 -145.5t127 -111.5t17.5 -50.5 q0 -35 -25 -62t-57 -27q-11 0 -49 38l-185 180q-8 5 -30 22l-63 46q-163 121 -163 177z" />
<glyph unicode="&#xda;" horiz-adv-x="1587" d="M179 568q0 114 50 383q9 49 26 156q32 213 44.5 256t39.5 68.5t63 25.5q25 0 51.5 -47.5t26.5 -73.5q0 -20 -46 -181q-24 -81 -52 -286.5t-28 -289.5q0 -281 131.5 -381t220.5 -100q172 0 292.5 52.5t182.5 190.5t88 513q26 383 63.5 477.5t106.5 94.5q68 0 68 -111 q0 -94 -39 -308q-25 -132 -37 -309q-11 -140 -29 -246.5t-59 -177.5t-103.5 -133t-130.5 -109t-187.5 -74.5t-209.5 -27.5q-98 0 -240.5 66t-217.5 224t-75 348zM838 1684q0 51 153.5 167t275.5 184q46 26 69 45q17 14 18 11q17 0 39.5 -37t22.5 -57q0 -12 -19 -38t-32 -34 q-4 -2 -10 -6q-7 -4 -18 -9q-67 -31 -278 -192q-87 -67 -132 -96l-23 -14q-26 0 -46 25t-20 51z" />
<glyph unicode="&#xdb;" horiz-adv-x="1587" d="M179 568q0 114 50 383q9 49 26 156q32 213 44.5 256t39.5 68.5t63 25.5q25 0 51.5 -47.5t26.5 -73.5q0 -20 -46 -181q-24 -81 -52 -286.5t-28 -289.5q0 -281 131.5 -381t220.5 -100q172 0 292.5 52.5t182.5 190.5t88 513q26 383 63.5 477.5t106.5 94.5q68 0 68 -111 q0 -94 -39 -308q-25 -132 -37 -309q-11 -140 -29 -246.5t-59 -177.5t-103.5 -133t-130.5 -109t-187.5 -74.5t-209.5 -27.5q-98 0 -240.5 66t-217.5 224t-75 348zM586 1739q0 43 17 56l107 101q44 42 84 76q76 65 130 129q64 76 107 76q20 0 43.5 -32.5t90.5 -152.5 q54 -99 58 -100q6 -5 25 -27t51 -57q65 -71 74.5 -94t9.5 -40q0 -27 -20.5 -48t-42.5 -21q-42 0 -120 114q-25 39 -73 96q-46 56 -72 104q-29 70 -49 70q-23 0 -148 -144q-92 -105 -141 -153t-75 -48q-56 0 -56 95z" />
<glyph unicode="&#xdc;" horiz-adv-x="1587" d="M179 568q0 114 50 383q9 49 26 156q32 213 44.5 256t39.5 68.5t63 25.5q25 0 51.5 -47.5t26.5 -73.5q0 -20 -46 -181q-24 -81 -52 -286.5t-28 -289.5q0 -281 131.5 -381t220.5 -100q172 0 292.5 52.5t182.5 190.5t88 513q26 383 63.5 477.5t106.5 94.5q68 0 68 -111 q0 -94 -39 -308q-25 -132 -37 -309q-11 -140 -29 -246.5t-59 -177.5t-103.5 -133t-130.5 -109t-187.5 -74.5t-209.5 -27.5q-98 0 -240.5 66t-217.5 224t-75 348zM665 1724q0 125 69 125q64 0 102.5 -35t38.5 -98q0 -45 -100 -45q-23 0 -66.5 15t-43.5 38zM1059 1788 q0 39 18.5 57t97.5 37l15 4q28 8 48.5 -14t20.5 -63q0 -111 -109 -111q-38 0 -64.5 26.5t-26.5 63.5z" />
<glyph unicode="&#xdd;" horiz-adv-x="1374" d="M26 1404q0 16 31 42.5t57 26.5q61 0 161 -92t181 -194q247 -313 306 -350q59 65 124 133q330 342 402 444q79 110 157 110q30 0 47 -28.5t17 -57.5q0 -27 -75.5 -116t-399.5 -426q-156 -162 -183 -209t-52 -273t-35 -354q-6 -78 -16 -88t-42 -20.5t-51 -10.5 q-75 0 -75 126q0 78 32 277q30 191 30 256q0 57 -15 97q-80 83 -218 268q-97 130 -137 172.5t-110 98.5q-93 72 -114.5 103t-21.5 65zM684 1738q0 51 153.5 167t275.5 184q46 26 69 45q17 14 18 11q17 0 39.5 -37t22.5 -57q0 -12 -19 -38t-32 -34q-4 -2 -10 -6q-7 -4 -18 -9 q-67 -31 -278 -192q-87 -67 -132 -96l-23 -14q-26 0 -46 25t-20 51z" />
<glyph unicode="&#xde;" horiz-adv-x="1620" d="M183 93q0 43 14 127q8 51 12 82l22 200q11 98 40 211q18 57 31 264q11 154 45 323q23 121 29 195q2 55 12 88q15 29 30 36t56 7q46 0 73 -17.5t27 -41.5q0 -29 -16 -91q-15 -57 -15 -82q0 -44 50 -44l223 4q86 0 235 -43q65 -17 127 -29q199 -34 323 -124t124 -222 q0 -167 -280.5 -329t-496.5 -181q-50 -4 -262 -68l-41 -12q-47 -9 -86.5 -24t-54 -24t-25 -49t-10.5 -68q0 -16 4 -38q8 -64 11 -98q1 -21 3 -35q2 -53 -13 -75.5t-65 -22.5t-88 53t-38 128zM395 555q0 -38 13 -52t60 -14h36q72 0 189 37q104 34 153 45q121 21 139.5 26.5 t112.5 42t151.5 68t88 58.5t71.5 84q50 49 50 70q0 125 -307 203.5t-557 78.5q-82 0 -96.5 -60t-14.5 -79q0 -103 -46 -297q-43 -159 -43 -211z" />
<glyph unicode="&#xdf;" horiz-adv-x="1139" d="M-114 -457q0 62 6 69t95 68q33 23 55 68.5t49 155.5t33 196q9 109 37 272q26 148 37 271q19 237 75.5 432.5t140.5 287.5t156 135.5t192 43.5q95 0 148 -43t98.5 -127t45.5 -176q0 -54 -16.5 -96t-53.5 -82.5t-71.5 -64t-116.5 -58.5q-148 -63 -148 -76q0 -15 105 -40 q89 -20 116 -33t73 -78.5t79 -145.5t33 -135q0 -154 -151 -272.5t-318 -118.5q-73 0 -128 46.5t-55 123.5q0 117 60 131q59 -170 119 -170q56 0 145 32.5t137.5 120.5t48.5 130q0 38 -18 75t-54 73t-97 75.5t-85.5 48t-77.5 13.5q-60 5 -78 14.5t-35 45.5t-17 66 q0 40 40 70.5t89 34.5q102 13 177.5 77t104.5 97.5t29 113.5v27q0 172 -186 172q-39 0 -100.5 -45.5t-124 -215t-94 -349.5t-83.5 -570q-27 -194 -56.5 -331t-70.5 -222t-97 -129.5t-97 -44.5q-95 0 -95 37z" />
<glyph unicode="&#xe0;" horiz-adv-x="1202" d="M90 220q0 263 235 566.5t467 303.5q84 0 125 -96q13 -32 41 -32q80 0 80 -62q0 -31 -10 -85q-54 -295 -54 -416q0 -242 92 -290q44 -24 44 -59q0 -31 -43 -62.5t-83 -31.5q-77 0 -127 106t-50 302q-140 -188 -277 -282t-251 -94q-77 0 -133 65t-56 167zM264 269 q0 -115 76 -115q110 0 305 222t195 408q0 143 -94 143q-132 0 -307 -247.5t-175 -410.5zM325 1637q0 20 33.5 44.5t55.5 24.5q14 0 58.5 -38t107.5 -97.5t172.5 -145.5t127 -111.5t17.5 -50.5q0 -35 -25 -62t-57 -27q-11 0 -49 38l-185 180q-8 5 -30 22l-63 46 q-163 121 -163 177z" />
<glyph unicode="&#xe1;" horiz-adv-x="1202" d="M90 220q0 263 235 566.5t467 303.5q84 0 125 -96q13 -32 41 -32q80 0 80 -62q0 -31 -10 -85q-54 -295 -54 -416q0 -242 92 -290q44 -24 44 -59q0 -31 -43 -62.5t-83 -31.5q-77 0 -127 106t-50 302q-140 -188 -277 -282t-251 -94q-77 0 -133 65t-56 167zM264 269 q0 -115 76 -115q110 0 305 222t195 408q0 143 -94 143q-132 0 -307 -247.5t-175 -410.5zM547 1243q0 51 153.5 167t275.5 184q46 26 69 45q17 14 18 11q17 0 39.5 -37t22.5 -57q0 -12 -19 -38t-32 -34q-4 -2 -10 -6q-7 -4 -18 -9q-67 -31 -278 -192q-87 -67 -132 -96 l-23 -14q-26 0 -46 25t-20 51z" />
<glyph unicode="&#xe2;" horiz-adv-x="1202" d="M90 220q0 263 235 566.5t467 303.5q84 0 125 -96q13 -32 41 -32q80 0 80 -62q0 -31 -10 -85q-54 -295 -54 -416q0 -242 92 -290q44 -24 44 -59q0 -31 -43 -62.5t-83 -31.5q-77 0 -127 106t-50 302q-140 -188 -277 -282t-251 -94q-77 0 -133 65t-56 167zM264 269 q0 -115 76 -115q110 0 305 222t195 408q0 143 -94 143q-132 0 -307 -247.5t-175 -410.5zM398 1273q0 43 17 56l107 101q44 42 84 76q76 65 130 129q64 76 107 76q20 0 43.5 -32.5t90.5 -152.5q54 -99 58 -100q6 -5 25 -27t51 -57q65 -71 74.5 -94t9.5 -40q0 -27 -20.5 -48 t-42.5 -21q-42 0 -120 114q-25 39 -73 96q-46 56 -72 104q-29 70 -49 70q-23 0 -148 -144q-92 -105 -141 -153t-75 -48q-56 0 -56 95z" />
<glyph unicode="&#xe3;" horiz-adv-x="1202" d="M90 220q0 263 235 566.5t467 303.5q84 0 125 -96q13 -32 41 -32q80 0 80 -62q0 -31 -10 -85q-54 -295 -54 -416q0 -242 92 -290q44 -24 44 -59q0 -31 -43 -62.5t-83 -31.5q-77 0 -127 106t-50 302q-140 -188 -277 -282t-251 -94q-77 0 -133 65t-56 167zM264 269 q0 -115 76 -115q110 0 305 222t195 408q0 143 -94 143q-132 0 -307 -247.5t-175 -410.5zM335 1207q0 71 111 184.5t184 113.5q68 0 102 -13.5t79 -58.5q39 -41 71 -63q15 -10 31 -22q63 -47 89 -47q27 0 50 19.5t75 90.5q46 65 64 65q54 0 54 -59q0 -39 -76 -144.5 t-151 -105.5q-79 0 -129.5 31t-94.5 75q-10 10 -12 11q-17 16 -30 31q-47 49 -93 49q-34 0 -62 -21t-83 -85q-50 -64 -74.5 -84t-55.5 -20q-49 0 -49 53z" />
<glyph unicode="&#xe4;" horiz-adv-x="1202" d="M90 220q0 263 235 566.5t467 303.5q84 0 125 -96q13 -32 41 -32q80 0 80 -62q0 -31 -10 -85q-54 -295 -54 -416q0 -242 92 -290q44 -24 44 -59q0 -31 -43 -62.5t-83 -31.5q-77 0 -127 106t-50 302q-140 -188 -277 -282t-251 -94q-77 0 -133 65t-56 167zM264 269 q0 -115 76 -115q110 0 305 222t195 408q0 143 -94 143q-132 0 -307 -247.5t-175 -410.5zM475 1265q0 125 69 125q64 0 102.5 -35t38.5 -98q0 -45 -100 -45q-23 0 -66.5 15t-43.5 38zM869 1329q0 39 18.5 57t97.5 37l15 4q28 8 48.5 -14t20.5 -63q0 -111 -109 -111 q-38 0 -64.5 26.5t-26.5 63.5z" />
<glyph unicode="&#xe5;" horiz-adv-x="1202" d="M90 220q0 263 235 566.5t467 303.5q84 0 125 -96q13 -32 41 -32q80 0 80 -62q0 -31 -10 -85q-54 -295 -54 -416q0 -242 92 -290q44 -24 44 -59q0 -31 -43 -62.5t-83 -31.5q-77 0 -127 106t-50 302q-140 -188 -277 -282t-251 -94q-77 0 -133 65t-56 167zM264 269 q0 -115 76 -115q110 0 305 222t195 408q0 143 -94 143q-132 0 -307 -247.5t-175 -410.5zM535 1398q0 83 81.5 161.5t220.5 78.5q26 0 87 -27t86 -92.5t25 -91.5v-7q0 -89 -87.5 -168t-184.5 -79q-99 0 -163.5 62.5t-64.5 162.5zM669 1390q0 -39 31.5 -80t70.5 -41 q35 0 86 32.5t51 106.5q0 40 -20 78.5t-82 38.5h-16q-68 0 -94.5 -47t-26.5 -88z" />
<glyph unicode="&#xe6;" horiz-adv-x="1674" d="M70 169q0 218 103 441.5t239 333t272 109.5q66 0 121.5 -42.5t55.5 -99.5q0 -11 -6 -52q-7 -41 -12 -91q217 343 481 343q75 0 122.5 -49t47.5 -118q0 -154 -151 -295t-404 -277q-52 -27 -52 -70q0 -83 48 -133t142 -50q215 0 439 238q33 33 50 33q32 0 32 -51 q0 -102 -180.5 -246t-372.5 -144q-161 0 -248.5 95t-87.5 265v22q0 105 5 153q2 21 1 22t-9 -22l-20 -55q-8 -23 -51.5 -120.5t-116.5 -192.5t-146 -142t-142 -47q-45 0 -102.5 49t-57.5 193zM236 203q0 -99 42 -99q35 0 120 91.5t193.5 311t108.5 261.5q0 19 6 64 q3 19 3 30q0 34 -46 34q-117 0 -191.5 -90.5t-116.5 -169.5l-31 -56q-16 -31 -46 -123t-36 -130.5t-6 -123.5zM903 495q424 252 424 405q0 60 -54 60q-92 0 -207.5 -135t-162.5 -330z" />
<glyph unicode="&#xe7;" horiz-adv-x="1038" d="M49 -462q0 26 21.5 53.5t44.5 27.5q17 0 52 -24q60 -51 98 -51q104 0 137 29t33 96q0 38 -23 65.5t-61 27.5q-13 0 -47 -13q-31 -14 -49 -14q-56 0 -56 52q23 57 40 102q16 45 29 77q-176 67 -176 304q0 261 207 550.5t385 289.5q81 0 139.5 -87.5t58.5 -185.5 q0 -59 -25.5 -101.5t-51.5 -42.5q-58 0 -82 117q-27 126 -78 126q-104 0 -246 -247t-142 -417t193 -170q147 0 346 138q70 49 103 49q34 0 34 -39q0 -76 -179 -191.5t-351 -115.5h-12q-5 0 -10 1q-8 -27 -12 -67q23 -20 80 -24q42 0 78 -16.5t55 -58t19 -144.5 q0 -51 -90.5 -133t-258.5 -82q-24 0 -69 15q-42 14 -73 29q-14 7 -13 7q-48 25 -48 68z" />
<glyph unicode="&#xe8;" horiz-adv-x="1065" d="M100 309q0 286 193 544t422 258q75 0 122.5 -49t47.5 -118q0 -154 -151 -295t-404 -277q-52 -27 -52 -70q0 -83 48 -133t142 -50q215 0 439 238q33 33 50 33q32 0 32 -51q0 -102 -180.5 -246t-372.5 -144q-161 0 -248.5 95t-87.5 265zM160 1666q0 20 33.5 44.5t55.5 24.5 q14 0 58.5 -38t107.5 -97.5t172.5 -145.5t127 -111.5t17.5 -50.5q0 -35 -25 -62t-57 -27q-11 0 -49 38l-185 180q-8 5 -30 22l-63 46q-163 121 -163 177zM294 495q424 252 424 405q0 60 -54 60q-92 0 -207.5 -135t-162.5 -330z" />
<glyph unicode="&#xe9;" horiz-adv-x="1065" d="M100 309q0 286 193 544t422 258q75 0 122.5 -49t47.5 -118q0 -154 -151 -295t-404 -277q-52 -27 -52 -70q0 -83 48 -133t142 -50q215 0 439 238q33 33 50 33q32 0 32 -51q0 -102 -180.5 -246t-372.5 -144q-161 0 -248.5 95t-87.5 265zM294 495q424 252 424 405 q0 60 -54 60q-92 0 -207.5 -135t-162.5 -330zM390 1266q0 51 153.5 167t275.5 184q46 26 69 45q17 14 18 11q17 0 39.5 -37t22.5 -57q0 -12 -19 -38t-32 -34q-4 -2 -10 -6q-7 -4 -18 -9q-67 -31 -278 -192q-87 -67 -132 -96l-23 -14q-26 0 -46 25t-20 51z" />
<glyph unicode="&#xea;" horiz-adv-x="1065" d="M100 309q0 286 193 544t422 258q75 0 122.5 -49t47.5 -118q0 -154 -151 -295t-404 -277q-52 -27 -52 -70q0 -83 48 -133t142 -50q215 0 439 238q33 33 50 33q32 0 32 -51q0 -102 -180.5 -246t-372.5 -144q-161 0 -248.5 95t-87.5 265zM258 1255q0 43 17 56l107 101 q44 42 84 76q76 65 130 129q64 76 107 76q20 0 43.5 -32.5t90.5 -152.5q54 -99 58 -100q6 -5 25 -27t51 -57q65 -71 74.5 -94t9.5 -40q0 -27 -20.5 -48t-42.5 -21q-42 0 -120 114q-25 39 -73 96q-46 56 -72 104q-29 70 -49 70q-23 0 -148 -144q-92 -105 -141 -153t-75 -48 q-56 0 -56 95zM294 495q424 252 424 405q0 60 -54 60q-92 0 -207.5 -135t-162.5 -330z" />
<glyph unicode="&#xeb;" horiz-adv-x="1065" d="M100 309q0 286 193 544t422 258q75 0 122.5 -49t47.5 -118q0 -154 -151 -295t-404 -277q-52 -27 -52 -70q0 -83 48 -133t142 -50q215 0 439 238q33 33 50 33q32 0 32 -51q0 -102 -180.5 -246t-372.5 -144q-161 0 -248.5 95t-87.5 265zM294 495q424 252 424 405 q0 60 -54 60q-92 0 -207.5 -135t-162.5 -330zM358 1268q0 125 69 125q64 0 102.5 -35t38.5 -98q0 -45 -100 -45q-23 0 -66.5 15t-43.5 38zM752 1332q0 39 18.5 57t97.5 37l15 4q28 8 48.5 -14t20.5 -63q0 -111 -109 -111q-38 0 -64.5 26.5t-26.5 63.5z" />
<glyph unicode="&#xec;" horiz-adv-x="592" d="M-43 1634q0 20 33.5 44.5t55.5 24.5q14 0 58.5 -38t107.5 -97.5t172.5 -145.5t127 -111.5t17.5 -50.5q0 -35 -25 -62t-57 -27q-11 0 -49 38l-185 180q-8 5 -30 22l-63 46q-163 121 -163 177zM149 124q0 184 76 582q26 139 26 171q0 63 23 107.5t65 44.5q51 0 80.5 -24.5 t29.5 -54.5t-14 -79q-75 -264 -93 -378t-18 -271q0 -76 21 -171q4 -18 4 -30q0 -18 -33 -46.5t-70 -28.5q-97 0 -97 178z" />
<glyph unicode="&#xed;" horiz-adv-x="592" d="M149 124q0 184 76 582q26 139 26 171q0 63 23 107.5t65 44.5q51 0 80.5 -24.5t29.5 -54.5t-14 -79q-75 -264 -93 -378t-18 -271q0 -76 21 -171q4 -18 4 -30q0 -18 -33 -46.5t-70 -28.5q-97 0 -97 178zM308 1248q0 51 153.5 167t275.5 184q46 26 69 45q17 14 18 11 q17 0 39.5 -37t22.5 -57q0 -12 -19 -38t-32 -34q-4 -2 -10 -6q-7 -4 -18 -9q-67 -31 -278 -192q-87 -67 -132 -96l-23 -14q-26 0 -46 25t-20 51z" />
<glyph unicode="&#xee;" horiz-adv-x="592" d="M0 1205q0 43 17 56l107 101q44 42 84 76q76 65 130 129q64 76 107 76q20 0 43.5 -32.5t90.5 -152.5q54 -99 58 -100q6 -5 25 -27t51 -57q65 -71 74.5 -94t9.5 -40q0 -27 -20.5 -48t-42.5 -21q-42 0 -120 114q-25 39 -73 96q-46 56 -72 104q-29 70 -49 70q-23 0 -148 -144 q-92 -105 -141 -153t-75 -48q-56 0 -56 95zM149 124q0 184 76 582q26 139 26 171q0 63 23 107.5t65 44.5q51 0 80.5 -24.5t29.5 -54.5t-14 -79q-75 -264 -93 -378t-18 -271q0 -76 21 -171q4 -18 4 -30q0 -18 -33 -46.5t-70 -28.5q-97 0 -97 178z" />
<glyph unicode="&#xef;" horiz-adv-x="592" d="M109 1266q0 125 69 125q64 0 102.5 -35t38.5 -98q0 -45 -100 -45q-23 0 -66.5 15t-43.5 38zM149 124q0 184 76 582q26 139 26 171q0 63 23 107.5t65 44.5q51 0 80.5 -24.5t29.5 -54.5t-14 -79q-75 -264 -93 -378t-18 -271q0 -76 21 -171q4 -18 4 -30q0 -18 -33 -46.5 t-70 -28.5q-97 0 -97 178zM503 1330q0 39 18.5 57t97.5 37l15 4q28 8 48.5 -14t20.5 -63q0 -111 -109 -111q-38 0 -64.5 26.5t-26.5 63.5z" />
<glyph unicode="&#xf0;" horiz-adv-x="1030" d="M70 392q0 128 9 170t54 123.5t133 160.5t193 124.5t215 53.5q-25 33 -64 93q-43 68 -78 102q-27 0 -60 -18t-145 -98q-56 -38 -96 -38q-20 0 -32.5 24.5t-12.5 47.5q0 24 98 71q105 52 117 99l-41 21q-131 62 -131 81q0 32 41.5 69.5t77.5 37.5q51 0 172 -97 q51 -39 53 -39q26 0 48.5 13.5t91.5 69.5q97 83 143 83q43 0 43 -65q0 -34 -23.5 -58t-129.5 -77q-74 -38 -74 -56q24 -17 126.5 -160.5t132.5 -292.5t30 -233q0 -105 -33 -184t-85.5 -131.5t-169 -130.5t-176.5 -106.5t-143 -28.5q-105 0 -178.5 94.5t-91.5 166.5zM230 504 q0 -188 67.5 -251t108.5 -63q54 0 139 54q36 34 82 71q182 144 182 273q0 108 -31.5 214.5t-52.5 106.5q-58 0 -212 -65t-218.5 -167.5t-64.5 -172.5z" />
<glyph unicode="&#xf1;" horiz-adv-x="1358" d="M100 104q0 48 16 136q55 302 55 637q0 38 32.5 84.5t61.5 46.5q52 0 74 -32t22 -129q0 -101 -60 -416q-20 -104 -20 -132q0 -16 8 -16q15 0 139 239q125 243 219 342t207 99q90 0 146.5 -82t82.5 -299q28 -247 50.5 -307.5t71.5 -60.5q31 0 78 22q8 4 12 4q43 0 43 -50 q0 -44 -59 -93.5t-142 -49.5q-85 0 -131.5 67.5t-73.5 360.5q-28 294 -118 294q-52 0 -113.5 -68t-187.5 -305q-166 -318 -214.5 -362t-80.5 -44q-118 0 -118 114zM299 1236q0 71 111 184.5t184 113.5q68 0 102 -13.5t79 -58.5q39 -41 71 -63q15 -10 31 -22q63 -47 89 -47 q27 0 50 19.5t75 90.5q46 65 64 65q54 0 54 -59q0 -39 -76 -144.5t-151 -105.5q-79 0 -129.5 31t-94.5 75q-10 10 -12 11q-17 16 -30 31q-47 49 -93 49q-34 0 -62 -21t-83 -85q-50 -64 -74.5 -84t-55.5 -20q-49 0 -49 53z" />
<glyph unicode="&#xf2;" horiz-adv-x="1158" d="M110 311q0 258 173.5 508.5t415.5 250.5q160 0 259.5 -123t99.5 -293q0 -260 -205.5 -482t-427.5 -222q-137 0 -226 104t-89 257zM263 1634q0 20 33.5 44.5t55.5 24.5q14 0 58.5 -38t107.5 -97.5t172.5 -145.5t127 -111.5t17.5 -50.5q0 -35 -25 -62t-57 -27q-11 0 -49 38 l-185 180q-8 5 -30 22l-63 46q-163 121 -163 177zM286 337q0 -101 42.5 -165t112.5 -64q149 0 299 163.5t150 363.5q0 123 -57.5 199.5t-154.5 76.5q-161 0 -276.5 -197.5t-115.5 -376.5z" />
<glyph unicode="&#xf3;" horiz-adv-x="1158" d="M110 311q0 258 173.5 508.5t415.5 250.5q160 0 259.5 -123t99.5 -293q0 -260 -205.5 -482t-427.5 -222q-137 0 -226 104t-89 257zM286 337q0 -101 42.5 -165t112.5 -64q149 0 299 163.5t150 363.5q0 123 -57.5 199.5t-154.5 76.5q-161 0 -276.5 -197.5t-115.5 -376.5z M555 1244q0 51 153.5 167t275.5 184q46 26 69 45q17 14 18 11q17 0 39.5 -37t22.5 -57q0 -12 -19 -38t-32 -34q-4 -2 -10 -6q-7 -4 -18 -9q-67 -31 -278 -192q-87 -67 -132 -96l-23 -14q-26 0 -46 25t-20 51z" />
<glyph unicode="&#xf4;" horiz-adv-x="1158" d="M110 311q0 258 173.5 508.5t415.5 250.5q160 0 259.5 -123t99.5 -293q0 -260 -205.5 -482t-427.5 -222q-137 0 -226 104t-89 257zM286 337q0 -101 42.5 -165t112.5 -64q149 0 299 163.5t150 363.5q0 123 -57.5 199.5t-154.5 76.5q-161 0 -276.5 -197.5t-115.5 -376.5z M332 1261q0 43 17 56l107 101q44 42 84 76q76 65 130 129q64 76 107 76q20 0 43.5 -32.5t90.5 -152.5q54 -99 58 -100q6 -5 25 -27t51 -57q65 -71 74.5 -94t9.5 -40q0 -27 -20.5 -48t-42.5 -21q-42 0 -120 114q-25 39 -73 96q-46 56 -72 104q-29 70 -49 70q-23 0 -148 -144 q-92 -105 -141 -153t-75 -48q-56 0 -56 95z" />
<glyph unicode="&#xf5;" horiz-adv-x="1158" d="M110 311q0 258 173.5 508.5t415.5 250.5q160 0 259.5 -123t99.5 -293q0 -260 -205.5 -482t-427.5 -222q-137 0 -226 104t-89 257zM286 337q0 -101 42.5 -165t112.5 -64q149 0 299 163.5t150 363.5q0 123 -57.5 199.5t-154.5 76.5q-161 0 -276.5 -197.5t-115.5 -376.5z M300 1225q0 71 111 184.5t184 113.5q68 0 102 -13.5t79 -58.5q39 -41 71 -63q15 -10 31 -22q63 -47 89 -47q27 0 50 19.5t75 90.5q46 65 64 65q54 0 54 -59q0 -39 -76 -144.5t-151 -105.5q-79 0 -129.5 31t-94.5 75q-10 10 -12 11q-17 16 -30 31q-47 49 -93 49 q-34 0 -62 -21t-83 -85q-50 -64 -74.5 -84t-55.5 -20q-49 0 -49 53z" />
<glyph unicode="&#xf6;" horiz-adv-x="1158" d="M110 311q0 258 173.5 508.5t415.5 250.5q160 0 259.5 -123t99.5 -293q0 -260 -205.5 -482t-427.5 -222q-137 0 -226 104t-89 257zM286 337q0 -101 42.5 -165t112.5 -64q149 0 299 163.5t150 363.5q0 123 -57.5 199.5t-154.5 76.5q-161 0 -276.5 -197.5t-115.5 -376.5z M418 1264q0 125 69 125q64 0 102.5 -35t38.5 -98q0 -45 -100 -45q-23 0 -66.5 15t-43.5 38zM812 1328q0 39 18.5 57t97.5 37l15 4q28 8 48.5 -14t20.5 -63q0 -111 -109 -111q-38 0 -64.5 26.5t-26.5 63.5z" />
<glyph unicode="&#xf7;" horiz-adv-x="1184" d="M135 528q0 78 74 78l86 4l170 -4q39 0 200 11q146 12 214 12q26 0 84 -11q54 -10 77 -10q24 0 43 -25t19 -48q0 -12 -14.5 -33.5t-37.5 -25.5t-135 -4q-174 0 -294 -4q-145 -5 -200 -10q-94 -9 -130 -9q-156 0 -156 79zM475 109q0 37 46.5 67.5t84.5 30.5q78 0 78 -49 q0 -46 -23.5 -85.5t-60.5 -39.5q-34 0 -79.5 23.5t-45.5 52.5zM496 958q0 17 29 33.5t50 16.5q7 0 25 -9q7 -4 41 -5q72 -2 72 -31q0 -41 -18.5 -86.5t-53.5 -45.5q-86 0 -115.5 46t-29.5 81z" />
<glyph unicode="&#xf8;" horiz-adv-x="1158" d="M110 311q0 258 173.5 508.5t415.5 250.5q74 0 139 -29q83 108 118 108q20 0 50 -36t30 -58q0 -25 -65 -123q87 -120 87 -278q0 -260 -205.5 -482t-427.5 -222q-51 0 -97 16l-44 -65q-54 -76 -68 -76q-25 0 -51 26t-26 52q0 24 64 146q-93 107 -93 262zM286 337 q0 -69 19 -118q12 19 25 37q182 263 315 494l22 35q38 59 59 96l13 21q-27 9 -61 9q-161 0 -276.5 -197.5t-115.5 -376.5zM407 112q16 -4 34 -4q149 0 299 163.5t150 363.5q0 78 -26 144l-99 -135q-30 -38 -47 -66q-10 -15 -57 -80q-41 -58 -57 -89q-49 -100 -197 -297z" />
<glyph unicode="&#xf9;" horiz-adv-x="1249" d="M125 298q0 131 63 386q53 213 53 299q29 60 91 60q42 0 67 -29.5t25 -61.5q0 -70 -49 -199q-93 -251 -93 -431q0 -164 76 -164q97 0 247 165t257 460q42 118 68.5 153.5t71.5 35.5q68 0 68 -90q0 -11 -19 -73q-60 -219 -60 -414q0 -234 77 -303q40 -37 40 -60 q0 -28 -40.5 -51t-73.5 -23q-70 0 -113 104t-43 307v33q0 16 1 33q-128 -215 -262 -333t-249 -118q-66 0 -134.5 77t-68.5 237zM214 1631q0 20 33.5 44.5t55.5 24.5q14 0 58.5 -38t107.5 -97.5t172.5 -145.5t127 -111.5t17.5 -50.5q0 -35 -25 -62t-57 -27q-11 0 -49 38 l-185 180q-8 5 -30 22l-63 46q-163 121 -163 177z" />
<glyph unicode="&#xfa;" horiz-adv-x="1249" d="M125 298q0 131 63 386q53 213 53 299q29 60 91 60q42 0 67 -29.5t25 -61.5q0 -70 -49 -199q-93 -251 -93 -431q0 -164 76 -164q97 0 247 165t257 460q42 118 68.5 153.5t71.5 35.5q68 0 68 -90q0 -11 -19 -73q-60 -219 -60 -414q0 -234 77 -303q40 -37 40 -60 q0 -28 -40.5 -51t-73.5 -23q-70 0 -113 104t-43 307v33q0 16 1 33q-128 -215 -262 -333t-249 -118q-66 0 -134.5 77t-68.5 237zM532 1245q0 51 153.5 167t275.5 184q46 26 69 45q17 14 18 11q17 0 39.5 -37t22.5 -57q0 -12 -19 -38t-32 -34q-4 -2 -10 -6q-7 -4 -18 -9 q-67 -31 -278 -192q-87 -67 -132 -96l-23 -14q-26 0 -46 25t-20 51z" />
<glyph unicode="&#xfb;" horiz-adv-x="1249" d="M125 298q0 131 63 386q53 213 53 299q29 60 91 60q42 0 67 -29.5t25 -61.5q0 -70 -49 -199q-93 -251 -93 -431q0 -164 76 -164q97 0 247 165t257 460q42 118 68.5 153.5t71.5 35.5q68 0 68 -90q0 -11 -19 -73q-60 -219 -60 -414q0 -234 77 -303q40 -37 40 -60 q0 -28 -40.5 -51t-73.5 -23q-70 0 -113 104t-43 307v33q0 16 1 33q-128 -215 -262 -333t-249 -118q-66 0 -134.5 77t-68.5 237zM322 1289q0 43 17 56l107 101q44 42 84 76q76 65 130 129q64 76 107 76q20 0 43.5 -32.5t90.5 -152.5q54 -99 58 -100q6 -5 25 -27t51 -57 q65 -71 74.5 -94t9.5 -40q0 -27 -20.5 -48t-42.5 -21q-42 0 -120 114q-25 39 -73 96q-46 56 -72 104q-29 70 -49 70q-23 0 -148 -144q-92 -105 -141 -153t-75 -48q-56 0 -56 95z" />
<glyph unicode="&#xfc;" horiz-adv-x="1249" d="M125 298q0 131 63 386q53 213 53 299q29 60 91 60q42 0 67 -29.5t25 -61.5q0 -70 -49 -199q-93 -251 -93 -431q0 -164 76 -164q97 0 247 165t257 460q42 118 68.5 153.5t71.5 35.5q68 0 68 -90q0 -11 -19 -73q-60 -219 -60 -414q0 -234 77 -303q40 -37 40 -60 q0 -28 -40.5 -51t-73.5 -23q-70 0 -113 104t-43 307v33q0 16 1 33q-128 -215 -262 -333t-249 -118q-66 0 -134.5 77t-68.5 237zM412 1266q0 125 69 125q64 0 102.5 -35t38.5 -98q0 -45 -100 -45q-23 0 -66.5 15t-43.5 38zM806 1330q0 39 18.5 57t97.5 37l15 4q28 8 48.5 -14 t20.5 -63q0 -111 -109 -111q-38 0 -64.5 26.5t-26.5 63.5z" />
<glyph unicode="&#xfd;" horiz-adv-x="1210" d="M19 -342q0 33 15.5 65t39.5 32q12 0 26 -19q131 -201 412 -201q145 0 243.5 254.5t108.5 477.5q2 43 8 86q-184 -160 -323.5 -232.5t-213.5 -72.5q-99 0 -151.5 82.5t-52.5 192.5q0 154 62.5 380.5t93 269t97.5 42.5q28 0 46 -33t18 -75q0 -25 -23 -65 q-54 -94 -56.5 -104t-38.5 -120.5t-36 -207.5q0 -34 16.5 -106t68.5 -72q55 0 135.5 33.5t181.5 109.5t136 123t49.5 107t20.5 260t97 200q54 0 70 -28.5t16 -108.5q0 -66 -9 -165q-11 -125 -14 -178q-14 -275 -71.5 -552.5t-167.5 -464t-303 -186.5q-196 0 -348.5 102.5 t-152.5 173.5zM585 1205q0 51 153.5 167t275.5 184q46 26 69 45q17 14 18 11q17 0 39.5 -37t22.5 -57q0 -12 -19 -38t-32 -34q-4 -2 -10 -6q-7 -4 -18 -9q-67 -31 -278 -192q-87 -67 -132 -96l-23 -14q-26 0 -46 25t-20 51z" />
<glyph unicode="&#xfe;" horiz-adv-x="1324" d="M4 -615q0 55 25 152q160 645 201 1333q5 79 25 298l24 266q4 47 43 80t83 33q41 0 52.5 -52t11.5 -143q0 -96 -38.5 -371.5t-89.5 -539.5q280 657 647 657q101 0 170.5 -75.5t69.5 -187.5q0 -326 -250 -592t-487 -266q-113 0 -177 139q-44 -158 -82 -505 q-19 -166 -28.5 -201.5t-37.5 -71t-52 -35.5q-31 0 -70.5 31.5t-39.5 50.5zM390 246q0 -36 41 -70t104 -34q143 0 329 211.5t186 415.5q0 73 -29.5 112.5t-73.5 39.5q-141 0 -349 -264t-208 -411z" />
<glyph unicode="&#xff;" horiz-adv-x="1210" d="M19 -342q0 33 15.5 65t39.5 32q12 0 26 -19q131 -201 412 -201q145 0 243.5 254.5t108.5 477.5q2 43 8 86q-184 -160 -323.5 -232.5t-213.5 -72.5q-99 0 -151.5 82.5t-52.5 192.5q0 154 62.5 380.5t93 269t97.5 42.5q28 0 46 -33t18 -75q0 -25 -23 -65 q-54 -94 -56.5 -104t-38.5 -120.5t-36 -207.5q0 -34 16.5 -106t68.5 -72q55 0 135.5 33.5t181.5 109.5t136 123t49.5 107t20.5 260t97 200q54 0 70 -28.5t16 -108.5q0 -66 -9 -165q-11 -125 -14 -178q-14 -275 -71.5 -552.5t-167.5 -464t-303 -186.5q-196 0 -348.5 102.5 t-152.5 173.5zM417 1267q0 125 69 125q64 0 102.5 -35t38.5 -98q0 -45 -100 -45q-23 0 -66.5 15t-43.5 38zM811 1331q0 39 18.5 57t97.5 37l15 4q28 8 48.5 -14t20.5 -63q0 -111 -109 -111q-38 0 -64.5 26.5t-26.5 63.5z" />
<glyph unicode="&#x131;" horiz-adv-x="592" d="M149 124q0 184 76 582q26 139 26 171q0 63 23 107.5t65 44.5q51 0 80.5 -24.5t29.5 -54.5t-14 -79q-75 -264 -93 -378t-18 -271q0 -76 21 -171q4 -18 4 -30q0 -18 -33 -46.5t-70 -28.5q-97 0 -97 178z" />
<glyph unicode="&#x152;" horiz-adv-x="2368" d="M112 417q0 202 123 461t321 422.5t412 163.5q213 0 368 -82l96 -6h4q23 0 222 19t475 66q29 5 35 5l15 1q78 5 107.5 -15.5t36.5 -79.5q0 -28 -26 -54t-41 -28q-3 -1 -54.5 1t-105.5 -10q-54 -13 -96 -16q-29 -2 -63 -8q-43 -8 -170 -9q-191 -3 -240.5 -26t-55.5 -95 q-5 -55 -21 -121q-49 -197 -49 -262l15 -1q47 -3 190 13t214 32q146 35 223 35q125 0 125 -67q0 -82 -83.5 -100.5t-348.5 -47.5q-324 -36 -345.5 -64.5t-45.5 -183.5t-24 -198v-11q5 -50 64 -57l18 -1q55 -3 131 9l192 28q107 15 217 35q137 29 174 29q28 0 62.5 -23.5 t34.5 -74.5q0 -37 -18 -51q-102 -45 -263 -50q-139 -5 -434 -47q-149 -22 -196 -22q-117 0 -146.5 18.5t-35.5 90.5l-4 34v4q0 10 7 32l18 59q-137 -121 -275 -178.5t-350 -57.5q-160 0 -284.5 159t-124.5 330zM295 426q0 -139 88 -234t204 -95q338 0 616 350q31 194 38 276 q5 40 16 97q44 239 44 378q0 1 -4 9q-130 111 -329 111q-224 0 -448.5 -304t-224.5 -588z" />
<glyph unicode="&#x153;" horiz-adv-x="1739" d="M105 311q0 259 156.5 509t374.5 250q104 0 183.5 -69t116.5 -189q211 299 453 299q75 0 122.5 -49t47.5 -118q0 -154 -151 -295t-404 -277q-52 -27 -52 -70q0 -83 48 -133t142 -50q215 0 439 238q33 33 50 33q32 0 32 -51q0 -102 -180.5 -246t-372.5 -144 q-263 0 -323 238q-5 -6 -9 -12q-42 -63 -156 -144t-233 -81q-123 0 -203.5 104.5t-80.5 256.5zM264 337q0 -102 38 -165.5t101 -63.5q133 0 268.5 162t135.5 365q0 120 -51 198t-139 78q-146 0 -249.5 -197t-103.5 -377zM968 495q424 252 424 405q0 60 -54 60 q-92 0 -207.5 -135t-162.5 -330z" />
<glyph unicode="&#x178;" horiz-adv-x="1374" d="M26 1404q0 16 31 42.5t57 26.5q61 0 161 -92t181 -194q247 -313 306 -350q59 65 124 133q330 342 402 444q79 110 157 110q30 0 47 -28.5t17 -57.5q0 -27 -75.5 -116t-399.5 -426q-156 -162 -183 -209t-52 -273t-35 -354q-6 -78 -16 -88t-42 -20.5t-51 -10.5 q-75 0 -75 126q0 78 32 277q30 191 30 256q0 57 -15 97q-80 83 -218 268q-97 130 -137 172.5t-110 98.5q-93 72 -114.5 103t-21.5 65zM558 1663q0 125 69 125q64 0 102.5 -35t38.5 -98q0 -45 -100 -45q-23 0 -66.5 15t-43.5 38zM952 1727q0 39 18.5 57t97.5 37l15 4 q28 8 48.5 -14t20.5 -63q0 -111 -109 -111q-38 0 -64.5 26.5t-26.5 63.5z" />
<glyph unicode="&#x192;" horiz-adv-x="1044" d="M-37 41q0 82 74 82q8 0 40 -17q28 -16 40 -16q13 0 47.5 29.5t90.5 95.5t89 112t69.5 148t55.5 213q-21 8 -59 8q-24 0 -86 -8q-45 -7 -83 14.5t-38 61.5q0 32 25.5 52t56.5 20l28 -5q53 0 123.5 6.5t80.5 9t17 30t7 55.5q13 267 100 381t248 114q53 0 90 -26.5t37 -71.5 q0 -21 -27 -46.5t-49 -25.5q-7 0 -42 18q-34 19 -44 19q-45 0 -106.5 -98.5t-61.5 -198.5q0 -31 -7 -66t-7 -54q35 -9 45 -9q38 0 108 8q71 9 115 9q22 0 58.5 -27.5t33.5 -50.5q0 -32 -40 -58t-72 -26h-47q-65 0 -111 -8q-15 -2 -41 -4q-60 -2 -86 -21q-29 -63 -56 -165 q-67 -251 -111.5 -312t-163 -172t-202.5 -111q-64 0 -101.5 30t-37.5 81z" />
<glyph unicode="&#x2c6;" horiz-adv-x="801" d="M18 1194q0 43 17 56l107 101q44 42 84 76q76 65 130 129q64 76 107 76q20 0 43.5 -32.5t90.5 -152.5q54 -99 58 -100q6 -5 25 -27t51 -57q65 -71 74.5 -94t9.5 -40q0 -27 -20.5 -48t-42.5 -21q-42 0 -120 114q-25 39 -73 96q-46 56 -72 104q-29 70 -49 70 q-23 0 -148 -144q-92 -105 -141 -153t-75 -48q-56 0 -56 95z" />
<glyph unicode="&#x2c7;" horiz-adv-x="788" d="M18 1552q0 63 57 63q55 0 67.5 -15t62 -80t68.5 -99q12 -24 17 -29q9 -9 40 -69q30 -55 60 -80q11 12 25 30q81 106 174.5 194.5t118.5 88.5q17 0 38 -24.5t21 -42.5q0 -43 -118 -146q-53 -48 -53 -51q-112 -121 -163 -197q-16 -20 -60 -20q-42 0 -97 91 q-170 274 -239 343q-19 18 -19 43z" />
<glyph unicode="&#x2d8;" horiz-adv-x="793" d="M45 1426q0 27 23.5 59t46.5 32q18 0 32 -32q40 -95 104.5 -163.5t143.5 -68.5q162 0 262 148q7 12 39.5 47t42.5 35q15 0 32.5 -32t17.5 -50q0 -31 -49.5 -95.5t-97.5 -98.5q-30 -27 -114.5 -60t-149.5 -33q-52 0 -151.5 64.5t-140.5 148t-41 99.5z" />
<glyph unicode="&#x2d9;" horiz-adv-x="465" d="M99 1244q0 42 39 103.5t72 61.5q61 0 98 -31t37 -88q0 -46 -38 -81t-85 -35q-33 0 -78 16.5t-45 53.5z" />
<glyph unicode="&#x2da;" horiz-adv-x="752" d="M146 1288q0 83 81.5 161.5t220.5 78.5q26 0 87 -27t86 -92.5t25 -91.5v-7q0 -89 -87.5 -168t-184.5 -79q-99 0 -163.5 62.5t-64.5 162.5zM280 1280q0 -39 31.5 -80t70.5 -41q35 0 86 32.5t51 106.5q0 40 -20 78.5t-82 38.5h-16q-68 0 -94.5 -47t-26.5 -88z" />
<glyph unicode="&#x2db;" horiz-adv-x="578" d="M94 -348q0 127 112 261t163 134q49 0 49 -61q0 -30 -38 -62q-149 -127 -149 -254q0 -33 20 -56.5t54 -23.5q91 0 154 46q44 32 67 32t23 -57q0 -148 -283 -148q-78 0 -125 52.5t-47 136.5z" />
<glyph unicode="&#x2dc;" horiz-adv-x="940" d="M12 1139q0 71 111 184.5t184 113.5q68 0 102 -13.5t79 -58.5q39 -41 71 -63q15 -10 31 -22q63 -47 89 -47q27 0 50 19.5t75 90.5q46 65 64 65q54 0 54 -59q0 -39 -76 -144.5t-151 -105.5q-79 0 -129.5 31t-94.5 75q-10 10 -12 11q-17 16 -30 31q-47 49 -93 49 q-34 0 -62 -21t-83 -85q-50 -64 -74.5 -84t-55.5 -20q-49 0 -49 53z" />
<glyph unicode="&#x2dd;" horiz-adv-x="864" d="M76 1165q0 9 57 85.5t118 140.5l144 153q45 53 92 53q24 0 44 -18.5t20 -42.5q0 -14 -44 -54q-142 -129 -188 -190q-135 -198 -192 -198q-18 0 -34.5 27.5t-16.5 43.5zM412 1120q0 35 21.5 69t100.5 125l56 66l73 76q30 30 52 62q11 15 38.5 32t41.5 17q61 0 61 -37 q0 -20 -31 -51q-11 -11 -54 -74q-39 -56 -73 -84q-133 -91 -170 -174q-35 -80 -69 -80q-47 0 -47 53z" />
<glyph unicode="&#x3a9;" horiz-adv-x="2032" d="M43 48q0 44 43 75t196 33q222 2 294 13q-112 133 -159.5 241.5t-47.5 276.5q0 148 78.5 322.5t231.5 304t271.5 170t263.5 40.5q254 0 426.5 -159.5t172.5 -409.5q0 -317 -264 -619q-67 -76 -87 -106q86 0 337 24q48 4 90 4q128 0 132 -75q17 -118 -175 -118l-182 4 q-207 0 -252.5 -11t-94.5 -38q-57 -33 -89 -33q-35 0 -61 28.5t-26 60.5q0 57 52 98q179 127 311 335t132 459q0 214 -133 305t-323 91q-264 0 -451 -226t-187 -465q0 -174 63 -291.5t165 -176.5q83 -49 83 -108q0 -31 -27 -60t-57 -29q-4 0 -61 10q-51 9 -228.5 -12.5 t-255.5 -40.5q-43 -11 -60 -11q-50 0 -85.5 25t-35.5 69z" />
<glyph unicode="&#x3c0;" horiz-adv-x="1585" d="M20 775q0 33 24 55t47 22q374 12 641 71q530 115 621 115q110 0 110 -68q0 -36 -26 -63t-43 -27h-33q-148 0 -166 -4q-28 -2 -42 -23.5t-59 -221t-45 -306.5q0 -83 35 -115t108 -32q133 0 320 102q27 15 41 15q9 0 18.5 -9t9.5 -20q0 -60 -143 -141t-286 -81 q-118 0 -188.5 66t-70.5 185q0 175 95 513q6 29 -17 29q-28 0 -184.5 -37t-190 -55.5t-52.5 -164.5q-7 -55 -20 -121q-10 -72 -11 -123q-1 -52 -9 -90q-3 -22 -4 -70q-3 -117 -26.5 -159t-88.5 -42q-67 0 -67 102q0 97 37 290q9 47 15 86q3 20 10 52q28 140 28 185 q0 20 -19 20q-33 0 -123 -10t-138 -10q-108 0 -108 85z" />
<glyph unicode="&#x401;" horiz-adv-x="1518" d="M186 41q0 57 35 197l88 495q8 48 21 108q63 288 63 361q0 29 -20 57q-39 52 -39 72q0 26 18 48t50 22q15 0 21 -5q25 -22 77 -22q121 0 589 53q102 11 121 11q104 0 134 -22t30 -77v-2q0 -28 -33.5 -58t-66.5 -30q-36 0 -70 6q-34 5 -67 5q-50 0 -105 -8q-55 -9 -102 -9 q-33 0 -73 -5q-40 -6 -85 -11q-118 -14 -156 -31t-45 -62q-9 -60 -35 -155q-54 -195 -55 -246q125 0 309 57q128 37 225 37q32 0 61.5 -28t29.5 -84q0 -55 -62 -80l-116 -15q-199 -24 -338.5 -61.5t-149.5 -58.5q-16 -20 -38.5 -155.5t-22.5 -180.5q0 -55 57 -55 q46 0 114 14l285 52q298 56 339 56q36 0 86.5 -20.5t50.5 -85.5q0 -40 -33.5 -65t-113 -40.5t-230.5 -15.5q-190 0 -382 -54q-66 -19 -161 -28q-23 -2 -47 -11t-53 -9q-23 4 -41 6q-64 5 -64 133zM626 1638q0 125 69 125q64 0 102.5 -35t38.5 -98q0 -45 -100 -45 q-23 0 -66.5 15t-43.5 38zM1020 1702q0 39 18.5 57t97.5 37l15 4q28 8 48.5 -14t20.5 -63q0 -111 -109 -111q-38 0 -64.5 26.5t-26.5 63.5z" />
<glyph unicode="&#x402;" horiz-adv-x="1712" d="M98 1409q0 38 35 53l62 2h233l187 7q236 2 296 16q24 6 90 6h78q80 0 119 8q90 19 268 19q29 0 35 -9q39 -32 39 -67q0 -69 -41 -72l-34 -4q-296 -41 -429 -41q-66 0 -106.5 -9t-49.5 -13t-23.5 -72.5t-14.5 -83.5q0 -75 -25 -218q-28 -158 -29 -218h3q10 0 85 54 q216 155 310 155q206 0 287 -130t81 -395q0 -143 -72.5 -385t-217 -378t-377.5 -136q-38 0 -79.5 38t-41.5 77q0 26 45.5 52t75.5 26q162 0 251 58.5t162.5 259.5t73.5 407q0 158 -53 248t-135 90q-213 0 -367 -219q-29 -41 -63 -76q-7 -45 -15 -111q-21 -158 -47.5 -246 t-55.5 -116.5t-69 -28.5q-36 0 -60 32.5t-24 78.5q0 26 34 124q51 150 73.5 296.5t43.5 388t21 364.5q0 17 -20 46.5t-33 29.5q-23 0 -365 -24q-72 -5 -85 -5q-16 0 -36 28.5t-20 92.5z" />
<glyph unicode="&#x403;" horiz-adv-x="1464" d="M201 33q0 62 14 155q4 26 8 64q0 9 59 383q21 133 21 139l47 373q0 189 4.5 246.5t38.5 88.5t84 31q31 0 55 -9q127 -52 238 -52q33 0 345 28q108 9 126 9q270 0 270 -113v-12q0 -15 -13.5 -38t-45.5 -23h-215q-59 0 -270 -21q-211 -22 -287 -22l-78 18 q-18 0 -39.5 -15.5t-23.5 -29.5l-78 -625q-41 -329 -41 -366q0 -24 19 -96q18 -73 18 -105q0 -46 -64 -83.5t-84 -37.5q-23 0 -65.5 41t-42.5 72zM712 1683q0 51 153.5 167t275.5 184q46 26 69 45q17 14 18 11q17 0 39.5 -37t22.5 -57q0 -12 -19 -38t-32 -34q-4 -2 -10 -6 q-7 -4 -18 -9q-67 -31 -278 -192q-87 -67 -132 -96l-23 -14q-26 0 -46 25t-20 51z" />
<glyph unicode="&#x404;" horiz-adv-x="1364" d="M105 583q0 143 51.5 335.5t182 349.5t267 231t355.5 74q140 0 257 -82.5t117 -192.5q0 -50 -23.5 -87t-64.5 -37q-52 0 -108 84q-101 151 -258 151q-47 0 -143.5 -33.5t-183.5 -126t-132 -180.5l-13 -24q-43 -72 -43 -120q0 -44 35 -44q109 0 426 19q117 7 158 7 q90 0 90 -78q0 -60 -51.5 -75t-117.5 -18l-552 -31q-29 0 -46 -29t-17 -124q0 -145 22 -229t99 -146t184 -62q92 0 179 27.5t217 84.5q48 21 83 21q19 0 46.5 -20.5t27.5 -41.5q0 -17 -22.5 -57t-122 -86t-241 -74t-215.5 -28q-168 0 -305.5 140.5t-137.5 501.5z" />
<glyph unicode="&#x405;" horiz-adv-x="1442" d="M90 38q0 30 18.5 73.5t37.5 43.5q20 0 41 -7q107 -40 212 -40q189 0 401 110.5t212 206.5q0 41 -64.5 78.5t-326.5 120.5q-325 103 -399.5 200.5t-74.5 205.5q0 202 244.5 343.5t520.5 141.5q173 0 266 -58.5t93 -129.5q0 -34 -21 -99t-106 -65q0 133 -69 162.5 t-172 29.5q-239 0 -411 -98t-172 -208q0 -84 76.5 -146.5t333.5 -137.5q249 -72 354.5 -148.5t105.5 -184.5q0 -109 -147 -235.5t-354.5 -192.5t-352.5 -66q-121 0 -183.5 28.5t-62.5 71.5z" />
<glyph unicode="&#x406;" horiz-adv-x="637" d="M143 98v17q0 199 86 575q17 75 53 286q22 134 59 310.5t64 209t46 32.5q34 0 76 -36t42 -99v-54q0 -25 -43 -117q-30 -65 -43 -95.5t-37.5 -176t-44.5 -286t-46.5 -284t-26.5 -212.5q0 -16 11 -39q11 -24 11 -37q0 -34 -52.5 -66t-88.5 -32q-66 0 -66 104z" />
<glyph unicode="&#x407;" horiz-adv-x="637" d="M143 98v17q0 199 86 575q17 75 53 286q22 134 59 310.5t64 209t46 32.5q34 0 76 -36t42 -99v-54q0 -25 -43 -117q-30 -65 -43 -95.5t-37.5 -176t-44.5 -286t-46.5 -284t-26.5 -212.5q0 -16 11 -39q11 -24 11 -37q0 -34 -52.5 -66t-88.5 -32q-66 0 -66 104zM220 1764 q0 125 69 125q64 0 102.5 -35t38.5 -98q0 -45 -100 -45q-23 0 -66.5 15t-43.5 38zM614 1828q0 39 18.5 57t97.5 37l15 4q28 8 48.5 -14t20.5 -63q0 -111 -109 -111q-38 0 -64.5 26.5t-26.5 63.5z" />
<glyph unicode="&#x408;" horiz-adv-x="1220" d="M-10 313q0 88 99 88q31 0 87 -55q184 -185 339 -185q135 0 218.5 144.5t134.5 484t51 637.5q0 31 36.5 57t69.5 26q32 0 60 -22t28 -49q0 -259 -62 -679t-196.5 -596.5t-342.5 -176.5q-165 0 -343.5 121t-178.5 205z" />
<glyph unicode="&#x409;" horiz-adv-x="2424" d="M-8 66q0 39 10.5 51.5t62.5 36.5q74 35 119.5 72.5t123 136t186 285.5t195.5 347t197 414q37 88 108.5 124t215.5 36q76 0 126 -24.5t50 -102.5q0 -26 -18 -148q-28 -178 -37 -270q5 -4 8 -6q6 -7 32 -7q19 0 83 6q64 5 117 5q231 0 349.5 -6.5t220 -49t152.5 -115 t51 -165.5q0 -189 -164.5 -360t-395.5 -275t-380 -104q-36 0 -63 19t-27 54q0 55 67.5 82t106.5 27q179 45 351 138.5t244.5 207t72.5 187.5q0 95 -120 144.5t-461 49.5q-95 0 -260 -21q-33 -71 -52.5 -318t-19.5 -301l18 -132q0 -48 -21.5 -92.5t-62.5 -44.5 q-45 0 -82 33.5t-37 214.5q0 20 43 457q3 36 3 42q6 53 28 166q18 99 23 155q8 91 15 134q0 3 1 4q0 7 17 123q15 108 12 111q-5 25 -50 25q-72 0 -107 -81q-73 -177 -337 -659.5t-388 -592t-235 -109.5q-91 0 -91 96z" />
<glyph unicode="&#x40a;" horiz-adv-x="2486" d="M203 45q0 136 50 534q39 320 47 431q22 321 40 423.5t102 102.5q38 0 61 -29t23 -65q0 -66 -31 -259q-32 -194 -32 -292q0 -39 37 -39q55 0 366.5 53.5t319 75.5t23.5 132l5 36q27 129 46 352q4 29 33.5 52.5t54.5 23.5q41 0 65.5 -32t24.5 -64q0 -12 -26 -182 q-29 -183 -37 -275q5 -4 8 -6q6 -7 32 -7q19 0 83 6q64 5 117 5q231 0 349.5 -6.5t220 -49t152.5 -115t51 -165.5q0 -189 -164.5 -360t-395.5 -275t-380 -104q-36 0 -63 19t-27 54q0 55 67.5 82t106.5 27q179 45 351 138.5t244.5 207t72.5 187.5q0 95 -120 144.5t-461 49.5 q-95 0 -260 -21q-33 -71 -52.5 -318t-19.5 -301l18 -132q0 -48 -21.5 -92.5t-62.5 -44.5q-45 0 -82 33.5t-37 214.5q0 20 43 457q3 36 3 42q0 96 -53 96q-20 0 -214 -29.5t-224 -39.5q-21 -9 -52 -16q-101 -24 -137.5 -46t-61 -228.5t-24.5 -307.5q0 -32 13 -74 q11 -38 11 -55q0 -40 -37 -76.5t-72 -36.5q-94 0 -94 164z" />
<glyph unicode="&#x40b;" horiz-adv-x="1683" d="M18 1358q0 42 15.5 64.5t39 25t44.5 2.5q22 -6 137 -6h76q116 0 332 27.5t282 43.5q55 13 109 19q52 5 232 43q60 12 65 12q118 0 118 -92q0 -34 -17 -49.5t-66 -23t-279 -38.5q-237 -32 -283 -50t-59.5 -38t-13.5 -86l-13 -180q-8 -130 -21 -213q-25 -166 -25 -199 q0 -11 5 -14t10 -8q106 136 217.5 217t208 102t115.5 21q56 0 130.5 -33.5t99 -103.5t24.5 -203q0 -4 -3 -34q-42 -356 -42 -480q0 -37 4 -57l2 -17q5 -42 -17 -84.5t-67 -42.5q-49 0 -78.5 60t-29.5 118q0 25 62 553q10 81 -21 118.5t-125 37.5q-22 0 -167 -76.5t-249 -249 t-112 -354.5q-7 -143 -121 -143q-35 0 -55.5 28t-20.5 62q0 25 44 303q15 98 15 111q7 77 16 153q13 107 17 187q6 81 20 160q13 78 13 159q1 46 -0.5 99t-15 74.5t-31.5 21.5q-21 0 -110 -6q-253 -17 -302 -17q-44 0 -76.5 20t-32.5 56z" />
<glyph unicode="&#x40c;" horiz-adv-x="1970" d="M266 45q0 63 10 159q27 261 42.5 712t15.5 458v43q0 180 117 180q39 0 62.5 -35t23.5 -67q0 -255 -35 -518q-10 -130 -10 -197q0 -15 5 -21t11 -22q113 68 348 295q241 234 332 301q21 15 41 35q115 115 166 115q30 0 75.5 -30.5t45.5 -51.5q0 -9 -5 -12 q-107 -124 -329 -306q-248 -204 -432 -391q174 -81 446 -170q3 -1 15 -7q56 -28 77 -34q52 -16 88 -32q130 -60 254 -97t148 -37q10 0 23 10q12 9 24 9q41 0 73.5 -45t32.5 -72q0 -46 -33 -77t-79 -31q-72 0 -267 70.5t-297 117.5q-65 30 -346.5 137t-324.5 107 q-75 0 -109 -33q6 -18 6 -51q0 -41 -21 -220q-18 -146 -18 -186t-42 -74t-93 -34q-41 0 -41 102zM848 1723q0 51 153.5 167t275.5 184q46 26 69 45q17 14 18 11q17 0 39.5 -37t22.5 -57q0 -12 -19 -38t-32 -34q-4 -2 -10 -6q-7 -4 -18 -9q-67 -31 -278 -192 q-87 -67 -132 -96l-23 -14q-26 0 -46 25t-20 51z" />
<glyph unicode="&#x40e;" horiz-adv-x="1407" d="M-31 67q0 56 58 56q14 0 30 -8q85 -44 126 -44q147 0 281 160t134 210q0 19 -64 135.5t-130 207.5q-188 261 -262 428t-74 244q0 25 38.5 53.5t59.5 28.5q27 0 54 -18.5t32 -51.5q37 -224 236 -520q158 -236 200 -314q13 -21 29 -21q5 0 72 99q232 346 374.5 525.5 t178.5 201t85 21.5q66 0 66 -71q0 -48 -96 -142q-46 -45 -179 -205t-192 -242t-179 -276q-227 -370 -349 -486.5t-300 -116.5q-99 0 -164 47t-65 99zM427 1941q0 26 7 43.5t17.5 28t23.5 14.5t25 4q30 0 50 -11.5t22 -35.5q4 -46 18.5 -86t43.5 -68q29 -29 77 -47.5 t114 -18.5q16 0 37.5 3t43.5 9t42.5 14t35.5 18q24 16 41.5 38t30 46t21 48t14.5 44q10 30 29 43t39 13q37 0 56 -21t19 -67q0 -18 -10.5 -47.5t-29.5 -61.5t-46 -64t-61 -55q-24 -17 -57.5 -31.5t-70.5 -24.5t-75.5 -15.5t-73.5 -5.5q-57 0 -110 13.5t-98 38t-81 58.5 t-60 75q-7 12 -13.5 29t-11 33.5t-7 29.5t-2.5 17z" />
<glyph unicode="&#x40f;" horiz-adv-x="1722" d="M197 115q0 118 42 466q39 331 39 566q0 60 -6 119t-6 107v4q0 123 78 123q75 0 92.5 -57t17.5 -236q0 -298 -36 -530q-39 -245 -39 -362v-79q0 -54 8 -60q420 57 487 57q14 0 58 4l48 4q25 1 48 3q46 4 62 4q114 0 126 43t21 161q6 90 18 183q15 110 34 390 q26 392 63.5 466.5t95.5 74.5q31 0 53.5 -47.5t22.5 -73.5q0 -40 -20 -207q-53 -443 -89 -873l-2 -18q-4 -33 10 -90q9 -41 9 -58q0 -36 -20 -73.5t-103 -37.5l-172 8q-221 0 -262 -35.5t-41 -171.5q0 -11 18 -93t18 -93q0 -50 -38.5 -76t-83.5 -26q-44 0 -67.5 29.5 t-23.5 131.5l15 238v4q0 9 -9 16t-24 21q-64 -2 -288 -40q-38 -7 -44 -7q-110 0 -110 121z" />
<glyph unicode="&#x410;" horiz-adv-x="1753" d="M-6 100q0 42 114 199q190 265 277 402t228 402q249 468 335 468q46 0 74.5 -14t35.5 -27t7 -47q0 -41 -10 -68l15 -44q43 -142 69 -202q31 -75 94 -251q122 -341 214 -505.5t142 -207.5q89 -80 118.5 -119.5t29.5 -73.5q0 -51 -29.5 -88t-69.5 -37q-75 0 -181.5 145.5 t-180.5 299.5q-101 209 -117 209q-52 0 -204.5 -26.5t-310.5 -70.5q-101 -28 -136 -28q-25 0 -42 7q-18 7 -32 7q-36 0 -149 -215q-114 -215 -179 -215q-31 0 -71.5 33.5t-40.5 66.5zM532 598q15 16 115 27q68 7 131 19q271 54 344 61q-9 15 -115 318q-89 253 -102 261 q-49 -110 -189.5 -353.5t-183.5 -332.5z" />
<glyph unicode="&#x411;" horiz-adv-x="1458" d="M141 -59q0 26 21 78q20 52 20 81v4q0 72 1 151t23.5 289t49.5 352q27 145 49 286q0 137 32 245.5t95 108.5q21 0 45 -9q133 -50 246 -50q47 0 154 11t163 11q10 0 51 14q40 13 50 13q37 0 66.5 -14.5t29.5 -38.5q0 -86 -116.5 -129.5t-254.5 -43.5q-70 0 -136 8 q-66 7 -142 7h-4q-10 0 -23 6t-24 6q-23 0 -55 -127.5t-37 -186.5q-6 -60 -21 -120q0 -10 10 -23h10q26 0 78 27q44 23 71 30t161.5 23.5t148.5 16.5q204 0 312 -92.5t108 -272.5q0 -207 -174.5 -356t-636.5 -266q-67 -17 -119 -33q-12 -8 -12 -17v-4q-14 -8 -30 -18 q-65 -43 -99 -43t-72.5 28t-38.5 48zM348 231q0 -86 23 -108q28 7 107 15q155 14 357.5 105.5t261 173t58.5 128.5q0 120 -61.5 190t-171.5 70q-199 0 -329 -38t-166 -75.5t-57.5 -160t-21.5 -261.5v-39z" />
<glyph unicode="&#x412;" horiz-adv-x="1567" d="M210 141q0 19 33 153q40 182 80 498.5t40 337.5q0 42 -11.5 62t-52.5 20q-16 0 -31.5 -1t-31 19t-15.5 48q0 79 262 168.5t625 89.5q133 0 236.5 -90t103.5 -185q0 -68 -90.5 -192.5t-231.5 -221.5q0 -15 80 -52q89 -42 131.5 -79.5t70 -100t27.5 -149.5 q0 -80 -107.5 -217.5t-278 -230t-355.5 -92.5q-35 0 -97.5 21t-62.5 44q0 126 178 126q55 -1 108 1.5t135.5 35t155.5 91.5t105 115.5t32 108.5q0 92 -77 163t-210 71q-20 0 -95 -32q-75 -33 -98 -33q-78 0 -97.5 20t-19.5 71q0 35 168 101q165 65 297.5 199t132.5 214 q0 54 -55.5 95.5t-151.5 41.5q-124 0 -288 -33.5t-179.5 -65.5t-84.5 -486.5t-69 -525.5q0 -38 4 -73q3 -36 3 -68q0 -137 -133 -137q-37 0 -61 53t-24 97z" />
<glyph unicode="&#x413;" horiz-adv-x="1464" d="M201 33q0 62 14 155q4 26 8 64q0 9 59 383q21 133 21 139l47 373q0 189 4.5 246.5t38.5 88.5t84 31q31 0 55 -9q127 -52 238 -52q33 0 345 28q108 9 126 9q270 0 270 -113v-12q0 -15 -13.5 -38t-45.5 -23h-215q-59 0 -270 -21q-211 -22 -287 -22l-78 18 q-18 0 -39.5 -15.5t-23.5 -29.5l-78 -625q-41 -329 -41 -366q0 -24 19 -96q18 -73 18 -105q0 -46 -64 -83.5t-84 -37.5q-23 0 -65.5 41t-42.5 72z" />
<glyph unicode="&#x414;" horiz-adv-x="1939" d="M63 -481q0 58 20 210q22 165 23 214q3 113 89 125l25 4q59 18 94 77q10 17 22 34q61 92 163.5 270t136 243.5t150.5 315.5l138 291q72 151 90.5 175t63 45.5t83.5 21.5q86 0 99 -41q31 -64 65 -266q41 -241 141.5 -590t186.5 -456q45 8 101 8q47 0 60 -19.5t13 -68.5 q0 -31 -8 -149q-5 -76 -8 -163q-2 -63 -6 -118q-5 -55 -8 -115q0 -33 -28 -58t-68 -27q-6 -4 -38 13t-32 51q0 31 24 279q4 42 4 49q0 9 -5 72q-6 78 -58 78q-30 0 -361.5 -20t-768.5 -63q-55 -6 -62 -6q-16 -2 -35 -3q-75 -6 -87 -32t-32 -115t-20 -176q0 -72 -4.5 -98.5 t-29.5 -48.5t-67 -22q-66 0 -66 79zM521 139q0 -29 16 -43l880 74q-3 42 -81 277q-101 298 -144 509l-62 297l-12 24q-29 -1 -137 -232q-221 -464 -325 -646q-135 -234 -135 -260z" />
<glyph unicode="&#x415;" horiz-adv-x="1518" d="M186 41q0 57 35 197l88 495q8 48 21 108q63 288 63 361q0 29 -20 57q-39 52 -39 72q0 26 18 48t50 22q15 0 21 -5q25 -22 77 -22q121 0 589 53q102 11 121 11q104 0 134 -22t30 -77v-2q0 -28 -33.5 -58t-66.5 -30q-36 0 -70 6q-34 5 -67 5q-50 0 -105 -8q-55 -9 -102 -9 q-33 0 -73 -5q-40 -6 -85 -11q-118 -14 -156 -31t-45 -62q-9 -60 -35 -155q-54 -195 -55 -246q125 0 309 57q128 37 225 37q32 0 61.5 -28t29.5 -84q0 -55 -62 -80l-116 -15q-199 -24 -338.5 -61.5t-149.5 -58.5q-16 -20 -38.5 -155.5t-22.5 -180.5q0 -55 57 -55 q46 0 114 14l285 52q298 56 339 56q36 0 86.5 -20.5t50.5 -85.5q0 -40 -33.5 -65t-113 -40.5t-230.5 -15.5q-190 0 -382 -54q-66 -19 -161 -28q-23 -2 -47 -11t-53 -9q-23 4 -41 6q-64 5 -64 133z" />
<glyph unicode="&#x416;" horiz-adv-x="2087" d="M-33 -47q0 65 114.5 184.5t517.5 437.5q145 115 235 200q-22 36 -155 131q-62 44 -165 144q-39 38 -69 59q-242 174 -242 255q0 34 25.5 63t52.5 29q10 0 50 -14t61 -34t104 -100q373 -367 510 -430q8 0 18 16q6 151 6 275q0 23 5 75q5 51 5 59q0 56 -18 120t-18 80 q0 47 37.5 78t82.5 31q41 0 65.5 -26.5t24.5 -60.5l-6 -148q-6 -152 -12 -215q-6 -59 -6 -116q0 -157 12 -183q57 14 229 195q153 160 314 312t197 152q30 0 55.5 -25.5t25.5 -58.5q0 -17 -108.5 -130t-177.5 -179q-341 -328 -341 -334q0 -7 200.5 -179.5t272.5 -214.5 q167 -98 167 -178q0 -30 -27 -62t-51 -32q-39 0 -161 89t-491 409q-30 26 -40 32l-36 25q-15 10 -29 10q-12 0 -23 -10t-11 -16q-4 -31 -7 -131q-7 -168 -30 -348.5t-42 -205t-70 -24.5q-92 0 -92 96q62 426 62 554q0 48 -24 48q-20 0 -86 -60l-27 -23q-259 -207 -409 -343 q-132 -120 -204 -180q-16 -12 -40 -62q-38 -79 -64.5 -98.5t-59.5 -19.5q-30 0 -68.5 27t-38.5 55z" />
<glyph unicode="&#x417;" horiz-adv-x="1329" d="M66 225q0 42 24.5 62t52.5 20q51 0 109 -92q48 -77 130 -122.5t150 -45.5q211 0 355.5 168t144.5 272q0 117 -75 199t-191 82q-67 0 -146 -45t-135 -45q-32 0 -71 21t-39 53q0 12 13 34.5t27 29t71 26.5q205 69 281 117t151 158t75 192q0 114 -106 114q-80 0 -164.5 -28 t-150.5 -65.5t-85.5 -51t-57.5 -83.5q-34 -61 -105 -90.5t-93 -29.5q-65 0 -65 55q0 62 98 168t286 194.5t392 88.5q93 0 160 -86.5t67 -206.5q0 -124 -233 -401q0 -12 62 -38q58 -25 80 -45.5t58.5 -74.5t50 -102.5t13.5 -137.5q0 -164 -108 -303.5t-273 -221t-276 -81.5 q-166 0 -321.5 93t-155.5 249z" />
<glyph unicode="&#x418;" horiz-adv-x="1898" d="M209 45q0 39 44 309q25 154 75 691l27 297q11 103 46 158.5t72 55.5q47 0 74.5 -38.5t27.5 -77.5q0 -14 -29 -165q-22 -117 -48 -345q0 -14 -24 -151q-25 -138 -25 -171q0 -24 -9 -119q-10 -95 -10 -127t6 -38q72 50 340 308q57 55 105 97q211 185 278 275q35 47 103 129 q132 159 167 208q90 127 160 127q38 0 60 -29t22 -63q0 -14 -27 -227q-79 -607 -79 -889q0 -77 23.5 -123t23.5 -65q0 -41 -49 -93.5t-78 -52.5q-109 0 -109 310q0 176 68 710l4 121q-27 3 -140 -128q-189 -221 -400.5 -416t-283.5 -249q-103 -78 -131.5 -110.5 t-63.5 -100.5q-21 -41 -50.5 -76.5t-99.5 -35.5t-70 94z" />
<glyph unicode="&#x419;" horiz-adv-x="1898" d="M209 45q0 39 44 309q25 154 75 691l27 297q11 103 46 158.5t72 55.5q47 0 74.5 -38.5t27.5 -77.5q0 -14 -29 -165q-22 -117 -48 -345q0 -14 -24 -151q-25 -138 -25 -171q0 -24 -9 -119q-10 -95 -10 -127t6 -38q72 50 340 308q57 55 105 97q211 185 278 275q35 47 103 129 q132 159 167 208q90 127 160 127q38 0 60 -29t22 -63q0 -14 -27 -227q-79 -607 -79 -889q0 -77 23.5 -123t23.5 -65q0 -41 -49 -93.5t-78 -52.5q-109 0 -109 310q0 176 68 710l4 121q-27 3 -140 -128q-189 -221 -400.5 -416t-283.5 -249q-103 -78 -131.5 -110.5 t-63.5 -100.5q-21 -41 -50.5 -76.5t-99.5 -35.5t-70 94zM677 1931q0 26 7 43.5t17.5 28t23.5 14.5t25 4q30 0 50 -11.5t22 -35.5q4 -46 18.5 -86t43.5 -68q29 -29 77 -47.5t114 -18.5q16 0 37.5 3t43.5 9t42.5 14t35.5 18q24 16 41.5 38t30 46t21 48t14.5 44q10 30 29 43 t39 13q37 0 56 -21t19 -67q0 -18 -10.5 -47.5t-29.5 -61.5t-46 -64t-61 -55q-24 -17 -57.5 -31.5t-70.5 -24.5t-75.5 -15.5t-73.5 -5.5q-57 0 -110 13.5t-98 38t-81 58.5t-60 75q-7 12 -13.5 29t-11 33.5t-7 29.5t-2.5 17z" />
<glyph unicode="&#x41a;" horiz-adv-x="1970" d="M266 45q0 63 10 159q27 261 42.5 712t15.5 458v43q0 180 117 180q39 0 62.5 -35t23.5 -67q0 -255 -35 -518q-10 -130 -10 -197q0 -15 5 -21t11 -22q113 68 348 295q241 234 332 301q21 15 41 35q115 115 166 115q30 0 75.5 -30.5t45.5 -51.5q0 -9 -5 -12 q-107 -124 -329 -306q-248 -204 -432 -391q174 -81 446 -170q3 -1 15 -7q56 -28 77 -34q52 -16 88 -32q130 -60 254 -97t148 -37q10 0 23 10q12 9 24 9q41 0 73.5 -45t32.5 -72q0 -46 -33 -77t-79 -31q-72 0 -267 70.5t-297 117.5q-65 30 -346.5 137t-324.5 107 q-75 0 -109 -33q6 -18 6 -51q0 -41 -21 -220q-18 -146 -18 -186t-42 -74t-93 -34q-41 0 -41 102z" />
<glyph unicode="&#x41b;" horiz-adv-x="1743" d="M-12 -6q0 78 122 218q94 108 355 553t391 697q24 43 64 43q36 0 75 -16t52 -35t32 -74t68 -235q122 -426 210.5 -661t126 -312t90.5 -108q71 -43 71 -89q0 -27 -29 -65.5t-127 -38.5q-25 0 -38.5 9t-51.5 47.5t-67.5 89.5t-66 152t-90.5 264q-23 68 -49 136l-118 382 q-64 207 -76 220h-2q-41 0 -80 -86q-29 -55 -115 -198q-93 -155 -127 -219q-134 -251 -293 -502l-23 -38q-139 -232 -208 -232q-96 0 -96 98z" />
<glyph unicode="&#x41c;" horiz-adv-x="2049" d="M130 47q0 10 4 19q35 108 67 422q34 337 68 487q58 262 58 372q0 175 55 175q31 0 101 -36.5t86.5 -74t52.5 -141.5q29 -80 137.5 -325.5t190.5 -383.5q14 -16 28 -16q10 0 16 3.5t76 85.5l182 211q112 127 206.5 257t152.5 250q98 196 147 196q25 0 90 -26.5t65 -79.5 q-11 -45 -30 -93q-44 -107 -74 -427.5t-30 -527.5q0 -89 6 -123t30 -100q34 -96 34 -159q0 -44 -17 -96q-3 -6 -10 -6t-44 11q-38 11 -55 11q-50 0 -73 20.5t-36 96.5t-13 223q0 180 45 803q-115 -160 -262.5 -341.5t-201.5 -229.5q-64 -54 -95 -169q-24 -91 -83 -91 q-4 0 -53 21.5t-78 69.5t-221 431l-188 381q-108 -624 -108 -891q0 -65 6 -119l3 -20v-2q0 -65 -27.5 -131t-47.5 -68h-4q-67 0 -111.5 52.5t-44.5 78.5z" />
<glyph unicode="&#x41d;" horiz-adv-x="1647" d="M165 63v7q0 31 17 89q18 63 40 220.5t97 840.5l17 153q7 67 24.5 88.5t35.5 23.5t31 2q102 -19 106 -92v-25q0 -90 -43 -294q-45 -210 -45 -292v-8q0 -37 111 -37q160 0 435.5 27t290.5 71t37.5 237.5t28.5 404.5q0 18 40.5 49t76.5 31q35 0 68.5 -20t33.5 -54v-6 q0 -74 -51 -338q-109 -560 -121 -1073q0 -44 -51 -86.5t-84 -42.5q-29 0 -57.5 23.5t-30.5 60.5v4q0 25 19 141q53 325 53 395v15q0 47 -55 47q-43 0 -183 -14q-140 -15 -186 -15q-29 0 -206 -15t-191 -24q-20 -5 -31 -193q-17 -282 -38 -353.5t-77 -71.5q-25 0 -67.5 45.5 t-44.5 78.5z" />
<glyph unicode="&#x41e;" horiz-adv-x="1860" d="M123 440q0 239 120.5 490.5t310.5 411t372 159.5q2 0 93.5 9.5t160.5 9.5q116 0 199.5 -40t171 -130t131.5 -208t44 -237q0 -168 -171.5 -405.5t-414.5 -401.5t-433 -164h-183q-157 0 -279 173t-122 333zM285 436q0 -151 95 -252.5t224 -101.5q190 0 402 131.5 t366.5 317.5t157.5 270l2 48q12 286 -125.5 405.5t-251.5 123.5h-6q-21 0 -76 -13q-64 -15 -94 -17q-99 -16 -243.5 -98t-297.5 -336.5t-153 -477.5z" />
<glyph unicode="&#x41f;" horiz-adv-x="1568" d="M170 72q0 103 17 182q28 134 47 258q12 78 28 169q64 362 64 516q0 52 -48 57q-95 11 -95 78q0 45 23.5 73t61.5 30q96 4 140 31q40 20 60 20q41 0 71 -18q33 -20 192 -20q2 0 212.5 6t230.5 10t49 16q47 20 77 20l80 -12l89 6q81 0 81 -71q0 -46 -30 -77.5t-68 -33.5 q-27 -2 -47 -19.5t-53 -152.5t-64.5 -473t-31.5 -608v-36q0 -21 -26 -43.5t-48 -26.5q-52 0 -80 49.5t-28 192.5q0 246 116 1058q7 35 -25 42.5t-262 7.5q-314 0 -360 -37t-72 -334q-10 -118 -58 -383q-58 -318 -58 -453l4 -63q0 -90 -86 -90q-103 0 -103 129z" />
<glyph unicode="&#x420;" horiz-adv-x="1447" d="M203 83q0 65 36 362l71 593q3 15 1.5 86t-17.5 90q-57 20 -57 103q0 65 264.5 126.5t461.5 61.5q218 0 346 -90t128 -239q0 -221 -243.5 -396t-656.5 -257q-109 -22 -122.5 -36.5t-21 -178t-7.5 -227.5q0 -45 -28.5 -81t-66.5 -36q-88 0 -88 119zM432 666q329 45 584 184 t255 305q0 204 -316 204q-207 0 -453 -88q-7 -29 -14 -107q-14 -139 -35 -307q-11 -88 -21 -191z" />
<glyph unicode="&#x421;" horiz-adv-x="1432" d="M115 364q0 405 348.5 788.5t671.5 383.5q121 0 193.5 -74.5t72.5 -173.5q0 -92 -10.5 -145t-63.5 -89.5t-85 -36.5q-23 0 -40 20t-17 54q0 23 17 96q17 72 17 107q0 102 -89 102q-138 0 -341.5 -158.5t-345.5 -402t-142 -448.5q0 -137 81.5 -227.5t232.5 -90.5 q87 0 211.5 43.5t228.5 116.5t123 73q39 0 39 -48q0 -50 -111 -143t-256.5 -148t-266.5 -55q-177 0 -322.5 117t-145.5 339z" />
<glyph unicode="&#x422;" horiz-adv-x="1376" d="M29 1266q0 45 32.5 61t194.5 18q199 1 357.5 14.5t488.5 58.5q125 17 238 17q57 0 108.5 -7t73 -13.5t34.5 -36t13 -45.5q0 -71 -50 -71q-33 0 -90 6q-58 5 -157 5q-102 0 -247.5 -14.5t-161.5 -47.5t-52.5 -390t-36.5 -532q0 -81 25 -187q4 -20 4 -24q0 -44 -24 -79.5 t-58 -35.5q-52 0 -86.5 50t-34.5 280q0 218 83 851q4 34 4 35q0 34 -37 34q-60 0 -229 -15q-169 -16 -241 -16q-108 0 -140 34q-11 20 -11 50z" />
<glyph unicode="&#x423;" horiz-adv-x="1407" d="M-31 67q0 56 58 56q14 0 30 -8q85 -44 126 -44q147 0 281 160t134 210q0 19 -64 135.5t-130 207.5q-188 261 -262 428t-74 244q0 25 38.5 53.5t59.5 28.5q27 0 54 -18.5t32 -51.5q37 -224 236 -520q158 -236 200 -314q13 -21 29 -21q5 0 72 99q232 346 374.5 525.5 t178.5 201t85 21.5q66 0 66 -71q0 -48 -96 -142q-46 -45 -179 -205t-192 -242t-179 -276q-227 -370 -349 -486.5t-300 -116.5q-99 0 -164 47t-65 99z" />
<glyph unicode="&#x424;" horiz-adv-x="1796" d="M119 500q0 150 98.5 325t243.5 294.5t395 219.5q43 17 49 30.5t11.5 42.5t5.5 132q0 96 24 125t68 29l37 4q53 0 53 -109q0 -28 -9 -122.5t0 -96.5q16 -9 95 -21q159 -25 290 -85.5t175.5 -169.5t44.5 -187q0 -90 -61 -222t-269.5 -293.5t-402.5 -237.5q-31 -14 -31 -113 q0 -42 20 -82q19 -41 19 -55q0 -30 -36 -69.5t-58 -39.5q-49 0 -76 29.5t-27 123.5v34q0 96 -43 96q-10 0 -88 -5q-79 -5 -92 -5q-207 0 -321.5 111.5t-114.5 316.5zM287 483q0 -119 91 -188.5t236 -69.5q28 0 79.5 8.5t67 14.5t18 8.5t8.5 95.5t18 201l21 205 q11 110 44 299q11 67 11 79q0 5 -15 14t-37 9q-59 0 -204 -93t-241.5 -270.5t-96.5 -312.5zM927 368q0 -49 18 -57q96 15 335.5 189t239.5 422q0 136 -153 217.5t-272 81.5q-29 0 -45.5 -30t-69.5 -380.5t-53 -442.5z" />
<glyph unicode="&#x425;" horiz-adv-x="1502" d="M-15 -50q0 145 560 712q80 80 80 91q0 13 -67 103q-349 460 -349 509q0 44 25 85.5t51 41.5q64 0 122 -117q109 -222 344 -503q351 391 466.5 505t145.5 114q29 0 64 -31.5t35 -63.5q0 -23 -97 -109q-124 -112 -321 -317.5t-197 -234.5q0 -5 27.5 -47.5t132 -166.5 t154.5 -170t120 -86q47 -29 85.5 -80t38.5 -67q0 -26 -22 -51.5t-55 -25.5q-88 0 -189 93.5t-328 384.5q-46 59 -86 108q-28 -30 -72 -75q-377 -386 -415 -496q-37 -112 -71 -148t-107 -36q-75 0 -75 78z" />
<glyph unicode="&#x426;" horiz-adv-x="1804" d="M170 115q0 72 30 402l28 340q27 382 42.5 488t51.5 142.5t77 36.5q86 0 86 -88q0 -40 -35 -138q-23 -66 -58.5 -461.5t-35.5 -496.5q0 -120 13.5 -155t44.5 -35q13 0 196 40q271 58 561 58q50 0 50 26l1 351q2 181 30 419t58 328.5t59.5 112.5t68.5 22q40 0 66 -27 t26 -65q0 -31 -24 -99q-54 -153 -69 -235t-29.5 -325.5t-14.5 -380.5q0 -47 15.5 -83t45.5 -36l143 4q72 0 89.5 -23.5t17.5 -84.5q0 -6 -20 -79q-37 -134 -37 -268v-57q0 -27 8 -70t8 -73q0 -46 -32 -70t-72 -24l-33 -5q-26 0 -45 33.5t-19 243.5q0 14 17 124 q16 110 16 124q0 53 -43 53l-59 -4l-258 10q-265 0 -612 -88q-162 -41 -204 -41q-58 0 -103.5 47t-45.5 107z" />
<glyph unicode="&#x427;" horiz-adv-x="1669" d="M216 1021q0 121 38.5 308.5t96 215.5t86.5 28q24 0 43 -26t19 -74q0 -10 -54 -199q-55 -190 -55 -287q0 -154 20 -194.5t121 -40.5q65 0 187 40t243 107t186 129t79 87.5t23 124.5q2 29 5 51q10 82 10 157q0 31 41.5 75t74.5 44q37 0 69 -26.5t32 -64.5l-3 -49 q-5 -20 -54 -262l-6 -26q-9 -64 -47 -499l-26 -263q-6 -65 -9 -180q-7 -200 -22.5 -226t-51 -47.5t-67.5 -21.5q-36 0 -56 42.5t-20 104.5q0 73 42 337q29 181 38 425q-5 33 -29 35q-27 0 -171 -87q-167 -102 -304.5 -140.5t-218.5 -38.5q-132 0 -196 84.5t-64 356.5z" />
<glyph unicode="&#x428;" horiz-adv-x="2501" d="M166 115q0 27 30 226q103 684 103 972q0 168 100 174q54 0 69 -26t15 -107q0 -57 -14 -169q-15 -116 -18 -169q0 -33 -21.5 -200.5t-28.5 -207.5q-28 -180 -28 -346q0 -74 29.5 -87t119.5 -13q33 0 131.5 2t262 9t168.5 9.5t14 18.5l26 320q11 157 29 292q17 118 25 404 q3 104 6 128.5t20 49t37 26.5h2q30 0 82.5 -31.5t52.5 -70.5v-4q0 -21 -56 -622q-30 -315 -30 -335q0 -116 35 -148t197 -32q200 0 462 21q11 0 37 53l60 1145q2 31 37.5 67.5t60.5 36.5q84 0 84 -108q0 -96 -21 -314q-25 -245 -30 -436l-16 -461q0 -59 -25 -101t-55 -55.5 t-150 -18.5t-395 -5q-320 0 -483 -22l-229 12q-35 0 -68 -4q-53 -7 -112 -7q-52 0 -149 4q-175 6 -247 -12q-50 9 -84.5 23t-34.5 119z" />
<glyph unicode="&#x429;" horiz-adv-x="2654" d="M203 279q0 22 42 443l24 265q14 162 14 310q0 31 -5 66q-6 41 -6 63q0 23 34.5 48.5t68.5 25.5q82 0 82 -281q0 -119 -38 -425q-22 -167 -22 -258q0 -95 9 -198t16 -121.5t53.5 -33.5t110.5 -15q29 0 155 18t173 18q26 8 55 11q128 14 164 53l26 533q2 43 21 262.5 t33.5 313t36 116t34.5 22.5q54 0 83.5 -68t29.5 -173q0 -32 -19 -159q-57 -369 -57 -574q0 -57 4 -110q4 -54 4 -109q0 -35 27 -54.5t59 -11.5q75 6 179 22.5t210 16.5l138 -4q105 0 116 92v2q0 12 -4 50q-14 133 -14 315q0 109 34 416.5t47 334t39 49.5t52 23q38 0 66 -43 t28 -97q0 -23 -21 -180q-60 -450 -60 -544q0 -340 11.5 -375t72.5 -35q8 0 83 5q71 5 122.5 -20.5t51.5 -74.5l-41 -134q-10 -36 -10 -73l6 -200q0 -90 -7.5 -126t-31.5 -61t-63 -25q-30 0 -65 47t-35 128q0 56 10 158q10 103 10 130v4q0 24 -25 45q-178 21 -284 21 q-28 0 -370 -19q-126 -7 -154 -7q-37 0 -94.5 -11t-82.5 -29q-33 -24 -67 -24q-9 2 -22 7q-60 23 -81 23q-6 0 -71 -10q-228 -35 -365 -43t-315 -8q-205 0 -205 277z" />
<glyph unicode="&#x42a;" horiz-adv-x="1726" d="M6 1421q0 76 35.5 95.5t195.5 23.5q117 2 212 28q151 42 169 42q42 0 71.5 -21.5t29.5 -60.5q0 -33 -21 -53q-14 -20 -28.5 -86.5t-14.5 -94.5l4 -233q0 -36 -3 -72q-5 -47 -5 -69q3 -9 8 -9q39 0 164 47q228 93 410 93q146 0 244.5 -55t121.5 -104.5t23 -182.5 q0 -139 -128 -309.5t-386 -321t-418 -150.5q-10 0 -46 26t-50 26q-15 0 -49 -16q-40 -20 -68 -23q-18 0 -42.5 43.5t-24.5 193.5v48q0 23 2 38q0 10 12 112q61 548 61 703v136q0 198 -26 198q-5 0 -96 -21q-263 -63 -277 -63q-34 0 -57 24t-23 68zM602 289q0 -119 12 -164 q46 29 64 29q7 0 36 -19q29 -20 50 -20q79 0 203 72l61 34q191 101 303.5 249.5t112.5 258.5q0 56 -46 109.5t-106 56.5q-32 7 -70 7q-169 0 -448 -120q-40 -17 -88 -34q-8 -4 -18.5 -18t-13 -29t-27.5 -204.5t-25 -207.5z" />
<glyph unicode="&#x42b;" horiz-adv-x="1987" d="M195 94q0 15 10 45q11 32 12 58q21 345 39 496q21 182 32 393l13 226q7 121 17.5 150.5t49.5 55.5t83 26h2q63 0 63 -100q0 -45 -39 -334q-14 -104 -14 -123q0 -39 24 -39q3 0 21 4q91 21 184 21q596 0 596 -434q0 -204 -217.5 -374t-453.5 -183q-65 -4 -87 -9 q-208 -32 -225 -32q-50 0 -80 40.5t-30 112.5zM389 195q0 -17 17 -43.5t30 -26.5l148 18q153 3 339.5 127t186.5 265q0 128 -114.5 202t-270.5 74q-119 0 -268 -23q-30 -52 -34 -82t-10 -118q-7 -91 -10 -109q-14 -126 -14 -284zM1509 174q0 52 8 109q7 57 7 108 q1 72 12 187t12 180q0 7 9 84q13 124 18 190q14 226 25.5 314t46 130t77.5 42q31 0 58.5 -24t27.5 -56q0 -23 -13 -68q-14 -48 -16.5 -95t-24.5 -235.5t-25 -291.5q0 -23 -7 -130l-26 -413q0 -64 -24.5 -108t-69.5 -44q-95 0 -95 121z" />
<glyph unicode="&#x42c;" horiz-adv-x="1522" d="M207 135q0 32 26 216q43 304 48 428q7 177 17 331q7 127 7 246q0 61 -13 95q-13 32 -13 38q0 28 44 59t87 31q67 0 67 -80l5 -114q0 -51 -15 -171l-26 -224q-8 -38 -8 -68q0 -45 16 -64q51 25 103 53q113 60 268.5 105t268.5 45q154 0 260 -105t106 -240 q0 -225 -179 -426.5t-400 -297.5t-321 -96q-43 0 -72.5 29t-29.5 73q0 39 23.5 59.5t45.5 20.5q14 0 25 -4q12 -5 35 -5q141 0 318.5 112t280 257t102.5 218q0 92 -66.5 168t-165.5 76q-97 0 -323 -65.5t-284 -170.5q-35 -141 -68 -605q-2 -15 -25 -29t-45 -14 q-57 0 -78 26.5t-21 92.5z" />
<glyph unicode="&#x42d;" horiz-adv-x="1395" d="M45 217q0 111 80 111q51 0 90 -74q28 -53 101 -97t139 -44q184 0 332.5 103.5t204 259t55.5 208.5q0 43 -105 43q-39 0 -123 -6t-114 -6q-63 0 -176 -11q-114 -12 -177 -12q-100 0 -100 76q0 44 33.5 64t153.5 25q41 2 162.5 13.5t211.5 11.5l143 2q67 1 93 29.5t26 98.5 q0 52 -28.5 154.5t-110.5 158t-211 55.5q-106 0 -249 -75l-112 -59q-32 -17 -67 -17q-20 0 -51 20t-31 39q0 48 83.5 108.5t121.5 71.5q32 10 74 24q171 58 286 58q143 0 262 -73t173.5 -231.5t54.5 -217.5q0 -257 -71.5 -506.5t-293.5 -410t-499 -160.5q-147 0 -254 78.5 t-107 187.5z" />
<glyph unicode="&#x42e;" horiz-adv-x="2048" d="M162 182q0 331 96 817q16 78 30 158q50 284 86 345t109 61q36 0 61 -38.5t25 -78.5q0 -11 -92 -256q-47 -141 -47 -299q10 -17 31 -17l221 15q54 0 131.5 12.5t100 22t47.5 42.5t36 66q12 30 65 122q11 20 19 36q62 126 222.5 248t273.5 122q119 0 176 -69q13 -16 79 -45 q79 -36 108 -65t58.5 -109.5t29.5 -138.5q0 -54 -41 -239.5t-140 -353t-259 -313.5t-263 -177t-168 -31q-128 0 -214.5 124.5t-86.5 233.5q0 176 19 266q10 48 10 57q0 31 -49 31q-297 0 -433 -67q-45 -233 -45 -357q0 -55 6 -118q5 -64 5 -123q0 -119 -80 -119 q-127 0 -127 235zM1036 438q0 -61 33.5 -151t87.5 -90q230 0 459 314.5t229 614.5q0 81 -84.5 174t-150.5 93q-226 0 -400 -318.5t-174 -636.5z" />
<glyph unicode="&#x42f;" horiz-adv-x="1518" d="M41 0v2q0 23 71.5 86.5t75.5 63.5q35 30 151 114q138 99 263.5 211.5t132.5 128.5q-4 10 -55 10q-14 0 -104 -3t-161 27.5t-125.5 70t-74.5 102t-20 119.5q0 199 212 360t458 215t319 54q12 0 33 -6q20 -7 32 -7q10 0 27 4t31 4q37 0 77.5 -22.5t45.5 -54.5v-4 q0 -27 -57 -156q-54 -123 -116.5 -454.5t-62.5 -532.5l16 -359q0 -16 -22.5 -32.5t-38.5 -16.5h-4q-99 0 -115 105l-2 43q-3 71 7 334q5 119 5 192q0 25 -6.5 29.5t-15.5 4.5q-13 0 -246 -211q-123 -112 -248 -218q-225 -186 -301 -287q-7 -11 -32 -27t-35 -16h-2 q-80 0 -113 127zM373 914q0 -65 75.5 -113.5t217.5 -48.5t245 18t137 53t48 97l96 414q-12 57 -64 57q-122 0 -305.5 -57t-316.5 -168.5t-133 -251.5z" />
<glyph unicode="&#x430;" horiz-adv-x="1202" d="M90 220q0 263 235 566.5t467 303.5q84 0 125 -96q13 -32 41 -32q80 0 80 -62q0 -31 -10 -85q-54 -295 -54 -416q0 -242 92 -290q44 -24 44 -59q0 -31 -43 -62.5t-83 -31.5q-77 0 -127 106t-50 302q-140 -188 -277 -282t-251 -94q-77 0 -133 65t-56 167zM264 269 q0 -115 76 -115q110 0 305 222t195 408q0 143 -94 143q-132 0 -307 -247.5t-175 -410.5z" />
<glyph unicode="&#x431;" horiz-adv-x="1056" d="M110 367q0 262 161.5 494t341.5 232q24 0 60 -31q33 -30 48 -23q-38 103 -176 223q-130 112 -130 192q0 64 42 103.5t156 71.5q142 39 289 88.5t177 63.5q19 9 39 9q33 0 33 -59q0 -33 -80 -90t-283 -106q-128 -32 -156.5 -47.5t-28.5 -31.5q0 -36 78 -104 q294 -257 294 -645q0 -167 -88 -357.5t-234.5 -283.5t-286.5 -93q-126 0 -191 123t-65 271zM285 363q0 -111 29.5 -174t77.5 -63q64 0 173 79t175.5 234t66.5 290q0 112 -31.5 181.5t-58.5 69.5q-178 0 -305 -217t-127 -400z" />
<glyph unicode="&#x432;" horiz-adv-x="1048" d="M110 465q0 311 109.5 629.5t273 481t330.5 162.5q101 0 162.5 -66.5t61.5 -184.5q0 -94 -81.5 -223t-214.5 -245q227 -92 227 -436q0 -258 -161 -451t-350 -193q-169 0 -263 134t-94 392zM279 469q0 -182 54.5 -274t150.5 -92q134 0 222.5 140.5t88.5 309.5v2 q0 149 -55 240t-122 91q-20 0 -223 -154q-52 -40 -101 -74q-15 -86 -15 -189zM317 837q385 297 476 424.5t91 200.5q0 117 -94 117q-131 0 -263.5 -197t-209.5 -545z" />
<glyph unicode="&#x433;" horiz-adv-x="994" d="M108 194q-10 101 62.5 212t364.5 258q186 94 186 171q0 41 -34 63t-59 22q-75 0 -288 -106q-17 -9 -20 -9q-82 0 -82 58q0 94 162 156.5t282 62.5q75 0 157 -59.5t82 -159.5q0 -82 -53 -158t-265 -193q-174 -96 -235.5 -158t-61.5 -140q0 -57 53 -75t80 -18q188 0 336 78 q51 26 76 26q52 0 52 -58q0 -88 -142 -147t-360 -59q-104 0 -193 59.5t-98 152.5z" />
<glyph unicode="&#x434;" horiz-adv-x="1080" d="M110 232q0 227 99.5 400.5t223 281.5t341.5 174q72 21 98 33t22 43q-36 156 -89 218t-140 96t-157 34q-27 0 -79.5 -20.5t-80.5 -37.5q-39 -23 -72 -23q-38 0 -38 40q0 43 65 119t229 76h43q163 0 288 -85.5t177.5 -244.5t52.5 -427q0 -182 -115 -441t-292.5 -392 t-377.5 -133q-72 0 -135 83t-63 206zM289 228q0 -43 15 -80.5t34 -37.5q74 0 135 26t149 108.5t159.5 204.5t104 235t34.5 173.5t1 102.5q-231 -47 -354 -149q-278 -260 -278 -583z" />
<glyph unicode="&#x435;" horiz-adv-x="1065" d="M100 309q0 286 193 544t422 258q75 0 122.5 -49t47.5 -118q0 -154 -151 -295t-404 -277q-52 -27 -52 -70q0 -83 48 -133t142 -50q215 0 439 238q33 33 50 33q32 0 32 -51q0 -102 -180.5 -246t-372.5 -144q-161 0 -248.5 95t-87.5 265zM294 495q424 252 424 405 q0 60 -54 60q-92 0 -207.5 -135t-162.5 -330z" />
<glyph unicode="&#x436;" horiz-adv-x="1777" d="M68 -3q0 62 116.5 184.5t257.5 209.5q172 106 237 171q-29 41 -113 90q-85 50 -158 112q-10 8 -24 18q-129 87 -171.5 130.5t-42.5 93.5q0 33 25 60.5t49 27.5q15 0 54 -16t56 -34l49 -46q259 -254 410 -323q8 0 20 19q10 34 10 109q0 70 -15 157q-8 45 -8 59 q0 47 36.5 76t79.5 29q49 0 67 -20t18 -68l-13 -318v-20q0 -14 1 -23q35 0 73 27.5t113 109.5q329 341 381 341q29 0 53 -24t24 -56q0 -16 -109.5 -135.5t-225.5 -219.5q-149 -128 -149 -133q0 -7 124 -104q134 -105 185 -149q7 -5 20 -13q148 -91 185 -136t37 -76 q0 -29 -25 -59.5t-49 -30.5q-89 0 -413 299q-144 134 -174 141q-13 2 -20 5q-10 3 -36 1.5t-28 -8.5q-13 -225 -43 -441q-15 -41 -76 -41q-88 0 -88 90q0 37 21 138q15 88 16 119.5t5 69t-1 59.5q-51 -7 -208 -122t-269 -228v1q-7 -4 -44 -75q-53 -106 -117 -106 q-30 0 -66.5 26t-36.5 52z" />
<glyph unicode="&#x437;" horiz-adv-x="985" d="M36 138q0 60 69 60q10 0 31 -17q110 -95 261 -95q133 0 229 70t96 182q0 74 -54.5 123.5t-126.5 49.5q-55 0 -193 -43q-27 -9 -58 -9q-60 0 -60 81q0 28 28.5 45t122.5 39q285 65 285 231q0 50 -35.5 82.5t-91.5 32.5q-104 0 -222 -92q-69 -54 -105 -54q-61 0 -61 57 q0 75 141.5 153.5t271.5 78.5t204.5 -69t74.5 -145q0 -181 -221 -284q129 -21 201 -95t72 -181q0 -169 -143 -281.5t-376 -112.5q-139 0 -239.5 60t-100.5 133z" />
<glyph unicode="&#x438;" horiz-adv-x="1249" d="M125 298q0 131 63 386q53 213 53 299q29 60 91 60q42 0 67 -29.5t25 -61.5q0 -70 -49 -199q-93 -251 -93 -431q0 -164 76 -164q97 0 247 165t257 460q42 118 68.5 153.5t71.5 35.5q68 0 68 -90q0 -11 -19 -73q-60 -219 -60 -414q0 -234 77 -303q40 -37 40 -60 q0 -28 -40.5 -51t-73.5 -23q-70 0 -113 104t-43 307v33q0 16 1 33q-128 -215 -262 -333t-249 -118q-66 0 -134.5 77t-68.5 237z" />
<glyph unicode="&#x439;" horiz-adv-x="1249" d="M125 298q0 131 63 386q53 213 53 299q29 60 91 60q42 0 67 -29.5t25 -61.5q0 -70 -49 -199q-93 -251 -93 -431q0 -164 76 -164q97 0 247 165t257 460q42 118 68.5 153.5t71.5 35.5q68 0 68 -90q0 -11 -19 -73q-60 -219 -60 -414q0 -234 77 -303q40 -37 40 -60 q0 -28 -40.5 -51t-73.5 -23q-70 0 -113 104t-43 307v33q0 16 1 33q-128 -215 -262 -333t-249 -118q-66 0 -134.5 77t-68.5 237zM322 1454q0 26 7 43.5t17.5 28t23.5 14.5t25 4q30 0 50 -11.5t22 -35.5q4 -46 18.5 -86t43.5 -68q29 -29 77 -47.5t114 -18.5q16 0 37.5 3 t43.5 9t42.5 14t35.5 18q24 16 41.5 38t30 46t21 48t14.5 44q10 30 29 43t39 13q37 0 56 -21t19 -67q0 -18 -10.5 -47.5t-29.5 -61.5t-46 -64t-61 -55q-24 -17 -57.5 -31.5t-70.5 -24.5t-75.5 -15.5t-73.5 -5.5q-57 0 -110 13.5t-98 38t-81 58.5t-60 75q-7 12 -13.5 29 t-11 33.5t-7 29.5t-2.5 17z" />
<glyph unicode="&#x43a;" horiz-adv-x="1175" d="M110 13q0 36 27 170q48 244 96 805q4 54 41 97.5t84 43.5q26 0 43.5 -28t17.5 -72q0 -35 -12 -80q-57 -207 -71 -423q237 41 425 306q88 123 154.5 174.5t141.5 51.5q30 0 60 -27t30 -64q0 -49 -93 -77q-49 -15 -92 -51t-163 -172q-94 -106 -169 -149q-7 -4 -7 -7 q0 -4 9 -8q73 -39 154 -151q118 -163 177 -205.5t135 -42.5l33 1q35 2 35 -31q0 -38 -43 -79t-142 -41q-76 0 -147.5 65.5t-163.5 212.5q-53 87 -99 132t-102 45q-12 0 -74 -20t-69.5 -38.5t-11 -133t-3.5 -184.5q0 -37 -35 -66t-76 -29q-42 0 -66 24.5t-24 50.5z" />
<glyph unicode="&#x43b;" horiz-adv-x="1223" d="M50 21q0 68 97 185q94 111 247 376.5t248 476.5q18 38 54 38q15 0 53.5 -13.5t49.5 -29.5t49 -186q123 -613 259 -727q32 -28 38 -37.5t6 -26.5q0 -31 -20 -56.5t-39 -32.5t-78 -7q-21 0 -98 103.5t-180 564.5q-25 124 -42 166q-24 1 -47 -46q-207 -414 -313 -562 q-9 -13 -23 -38q-125 -223 -183 -223q-78 0 -78 75z" />
<glyph unicode="&#x43c;" horiz-adv-x="1791" d="M59 -27q6 41 14 51q87 107 150 228t160.5 363t124.5 397q13 66 97 66q49 0 67 -15t35.5 -61t20.5 -82q6 -43 34 -191q25 -139 33 -197q14 -83 49.5 -218t55.5 -135q14 0 40 61l84 194q23 53 49 104l115 235q94 194 144.5 281.5t68 105.5t39.5 18q38 0 85 -20.5t49 -45.5 t9 -209l13 -312q6 -149 18 -253.5t42 -168.5q47 -102 47 -158q0 -48 -39.5 -66t-73.5 -18q-70 0 -107.5 112t-54.5 642q-6 159 -19 195q-81 -130 -228 -440q-33 -70 -67 -135q-11 -21 -42 -93q-105 -244 -183 -244q-62 0 -90.5 15t-54.5 82t-77 315q-59 281 -80 346 q-68 -153 -121 -295q-80 -209 -155 -340.5t-108 -158t-63 -26.5q-31 0 -56 24t-25 47z" />
<glyph unicode="&#x43d;" horiz-adv-x="1205" d="M123 72q0 70 18 178q33 198 66 682q4 63 11 80t36.5 37.5t64.5 20.5q72 0 72 -59q0 -9 -23 -150q-24 -141 -24 -219q0 -55 38 -55q76 0 278 25.5t209 40.5q11 21 35 251q18 184 117 184q81 0 81 -81q0 -19 -14 -77q-77 -319 -77 -535q0 -234 77 -303q40 -37 40 -60 q0 -28 -40.5 -51t-73.5 -23q-156 0 -156 482q0 32 -24 32q-94 0 -230 -11t-194.5 -28t-72 -31.5t-24 -77t-10.5 -129.5v-123q0 -107 -98 -107q-82 0 -82 107z" />
<glyph unicode="&#x43e;" horiz-adv-x="1158" d="M110 311q0 258 173.5 508.5t415.5 250.5q160 0 259.5 -123t99.5 -293q0 -260 -205.5 -482t-427.5 -222q-137 0 -226 104t-89 257zM286 337q0 -101 42.5 -165t112.5 -64q149 0 299 163.5t150 363.5q0 123 -57.5 199.5t-154.5 76.5q-161 0 -276.5 -197.5t-115.5 -376.5z " />
<glyph unicode="&#x43f;" horiz-adv-x="1358" d="M100 104q0 48 16 136q55 302 55 637q0 38 32.5 84.5t61.5 46.5q52 0 74 -32t22 -129q0 -101 -60 -416q-20 -104 -20 -132q0 -16 8 -16q15 0 139 239q125 243 219 342t207 99q90 0 146.5 -82t82.5 -299q28 -247 50.5 -307.5t71.5 -60.5q31 0 78 22q8 4 12 4q43 0 43 -50 q0 -44 -59 -93.5t-142 -49.5q-85 0 -131.5 67.5t-73.5 360.5q-28 294 -118 294q-52 0 -113.5 -68t-187.5 -305q-166 -318 -214.5 -362t-80.5 -44q-118 0 -118 114z" />
<glyph unicode="&#x440;" horiz-adv-x="1324" d="M4 -615q0 55 25 152q183 739 183 1298l-1 84q-2 108 38 157t92 49q24 0 46 -37.5t22 -106.5q0 -97 -20 -235q-26 -174 -27 -200q149 260 316 406t310 146q101 0 170.5 -75.5t69.5 -187.5q0 -326 -250 -592t-487 -266q-59 0 -93.5 30t-71.5 109q-49 -180 -92 -505 l-28 -189q-7 -40 -37 -79.5t-55 -39.5q-31 0 -70.5 31.5t-39.5 50.5zM390 246q0 -36 41 -70t104 -34q143 0 329 211.5t186 415.5q0 73 -29.5 112.5t-73.5 39.5q-141 0 -349 -264t-208 -411z" />
<glyph unicode="&#x441;" horiz-adv-x="1038" d="M95 270q0 261 207 550.5t385 289.5q81 0 139.5 -87.5t58.5 -185.5q0 -59 -25.5 -101.5t-51.5 -42.5q-58 0 -82 117q-27 126 -78 126q-104 0 -246 -247t-142 -417t193 -170q147 0 346 138q70 49 103 49q34 0 34 -39q0 -76 -179 -191.5t-351 -115.5q-150 0 -230.5 86 t-80.5 241z" />
<glyph unicode="&#x442;" horiz-adv-x="2105" d="M165 257q0 147 63 532q26 156 26 223q0 66 59 66q111 0 111 -160q0 -75 -37 -294q-43 -250 -44 -304q62 60 182 263q170 278 250.5 352.5t166.5 74.5q65 0 103.5 -87t46.5 -415q2 -82 15 -122t19 -40q47 0 204 320q84 169 163.5 257t176.5 88q81 0 118 -83.5t53 -247.5 q15 -166 46.5 -304t115.5 -177q57 -27 57 -63q0 -35 -48 -72t-88 -37q-80 0 -143 98t-95 424q-14 131 -27 186t-41 55q-42 0 -99.5 -80t-185.5 -325q-100 -191 -151.5 -254.5t-99.5 -63.5q-43 0 -77 34.5t-43 83t-19 238.5q-15 316 -55 368q-93 -2 -398 -551 q-103 -185 -120 -201.5t-62.5 -29.5t-75.5 -13q-67 0 -67 261z" />
<glyph unicode="&#x443;" horiz-adv-x="1210" d="M20 -279q0 33 15.5 65t39.5 32q12 0 26 -19q131 -201 403 -201q173 0 259 211.5t109 543.5q-152 -143 -304 -224t-233 -81q-93 0 -148.5 79.5t-55.5 195.5q0 169 64.5 399.5t98.5 261.5t90 31q30 0 47 -35.5t17 -72.5q0 -25 -23 -65q-131 -227 -131 -469q0 -56 21 -98.5 t64 -42.5q55 0 135.5 33.5t181.5 109.5t136 123t49.5 107t20.5 260t97 200q54 0 70 -28.5t16 -108.5q0 -60 -18 -260q-4 -45 -5 -83q-29 -534 -160 -837t-381 -303q-196 0 -348.5 102.5t-152.5 173.5z" />
<glyph unicode="&#x444;" horiz-adv-x="1851" d="M105 278q0 243 183.5 500.5t345.5 257.5q59 0 108 -49.5t72 -134.5q31 367 31 538q0 81 -24 188q-5 19 -5 23q0 44 24 79.5t58 35.5q46 0 85.5 -50.5t39.5 -279.5q0 -150 -9 -259t-50 -475q-4 -36 -7 -75q227 511 558 511q100 0 167.5 -74.5t67.5 -188.5 q0 -382 -233 -606t-445 -224q-122 0 -178 138q-42 -147 -81 -519q-19 -171 -28.5 -205.5t-37.5 -70t-52 -35.5q-31 0 -70.5 31.5t-39.5 50.5q0 55 25 152q73 287 119 571q-181 -134 -335 -134q-137 0 -213 80t-76 224zM281 280q0 -136 156 -136q65 0 162 47t144 99l12 12 q35 251 40 363q-28 -17 -55 -17q-39 0 -73 122q-15 52 -28.5 67.5t-37.5 15.5q-52 0 -137 -109.5t-134 -244t-49 -219.5zM963 330q0 -67 40.5 -118.5t112.5 -51.5q143 0 299.5 196.5t156.5 402.5q0 152 -98 152q-79 0 -146.5 -48.5t-159 -178.5t-205.5 -354z" />
<glyph unicode="&#x445;" horiz-adv-x="1103" d="M0 -11q0 153 341 464l48 45q-199 299 -199 459q0 142 120 142q34 0 49.5 -29t24.5 -132q13 -159 137 -337q277 238 374 426q33 60 51 76t48 16q36 0 67.5 -28t31.5 -71q0 -100 -486 -548q167 -214 356 -321q23 -13 44 -27q4 -9 4 -28q0 -43 -31.5 -77t-75.5 -34 q-135 0 -427 387q-228 -196 -301 -395q-28 -66 -57 -99q-119 7 -119 111z" />
<glyph unicode="&#x446;" horiz-adv-x="1201" d="M125 298q0 131 63 386q53 213 53 299q29 60 91 60q42 0 67 -29.5t25 -61.5q0 -70 -49 -199q-93 -251 -93 -431q0 -164 76 -164q97 0 247 165t257 460q41 114 67 150.5t69 38.5h10q47 0 62 -21t15 -85q0 -41 -23 -143q-67 -291 -78 -579q4 -29 20 -29q3 0 10 3 q44 29 90 29q72 0 77 -76l7 -63q0 -99 -64 -265t-162 -166q-29 0 -29 32q0 26 43 161q42 133 42 178q0 37 -14 37q-1 0 -44 -19.5t-55 -19.5q-52 0 -74 32t-22 129q0 95 57 349q2 22 3 27q-138 -228 -283 -363.5t-258 -135.5q-66 0 -134.5 77t-68.5 237z" />
<glyph unicode="&#x447;" horiz-adv-x="1106" d="M100 569q0 148 52 329.5t178 181.5q28 0 46 -33t18 -75q0 -55 -54 -148q-70 -119 -70 -203q0 -49 17.5 -96t60.5 -47q108 0 272.5 109.5t202.5 192t38 127.5q0 20 -4 38t-4 38q0 37 25 86.5t67 49.5q51 0 71 -23t20 -114q0 -57 -18 -251q-4 -43 -5 -81 q-7 -127 -43.5 -372t-57.5 -275t-59 -30q-95 0 -95 61q0 31 9 55q14 36 74 501q-156 -136 -308 -216t-229 -80q-99 0 -151.5 82.5t-52.5 192.5z" />
<glyph unicode="&#x448;" horiz-adv-x="1868" d="M99 265q0 129 11 194q9 59 15 122q6 50 14 94q39 215 30 277q21 71 97 71q30 0 58.5 -24.5t28.5 -80.5q0 -92 -41 -230q-55 -185 -55 -328q0 -78 11.5 -121t51.5 -43q132 0 297.5 234t262.5 488q43 115 108 115q42 0 67 -29.5t25 -61.5q0 -70 -49 -199q-93 -247 -93 -421 q0 -164 76 -164q34 0 83.5 24t122.5 97.5t142.5 181t87.5 156t73 228.5q35 117 64.5 158.5t76.5 41.5q68 0 68 -90q0 -11 -19 -73q-28 -96 -47 -243.5t-19 -243.5q0 -234 77 -303q40 -37 40 -60q0 -28 -40.5 -51t-73.5 -23q-70 0 -113 104t-43 307v33q0 16 1 33 q-128 -215 -262 -333t-249 -118q-66 0 -134.5 77t-68.5 237q0 82 17 181q-95 -188 -244 -323t-266 -135q-56 0 -122.5 66t-66.5 178z" />
<glyph unicode="&#x449;" horiz-adv-x="1898" d="M130 265q0 129 11 194q9 59 15 122q6 50 14 94q39 215 30 277q21 71 97 71q30 0 58.5 -24.5t28.5 -80.5q0 -92 -41 -230q-55 -185 -55 -328q0 -78 11.5 -121t51.5 -43q108 0 274.5 209t281.5 510q46 118 122 118q42 0 67 -29.5t25 -61.5q0 -70 -49 -199 q-93 -247 -93 -421q0 -164 76 -164q31 0 77.5 20.5t114 86t130.5 157.5t92 145t104 286q40 123 68 161t71 40h24q34 0 56.5 -14.5t22.5 -91.5q0 -43 -40 -184q-76 -269 -94 -620q4 -29 20 -29q3 0 10 3q44 29 90 29q73 0 78 -76l7 -63q0 -77 -26 -143l-42 -107 q-3 -4 -14 -30q-60 -135 -128 -144l-27 -5q-27 0 -27 27q0 21 50 164q43 125 43 173q0 42 -14 42q-1 0 -44 -19.5t-55 -19.5q-52 0 -74 32t-22 129q0 95 57 349q2 22 3 27q-138 -228 -283 -363.5t-258 -135.5q-66 0 -134.5 77t-68.5 237q0 83 21 202q-126 -224 -268 -351.5 t-256 -127.5q-56 0 -122.5 66t-66.5 178z" />
<glyph unicode="&#x44a;" horiz-adv-x="1370" d="M18 998q0 43 27.5 75t78.5 32q41 0 83 -7q41 -7 69 -7q122 0 223 34q52 17 60 17q88 0 102 -73q4 -23 -44 -205q-30 -112 -30 -162q0 -20 12 -22q230 221 426 221q121 0 203 -91.5t82 -167.5q0 -232 -236.5 -445.5t-476.5 -213.5q-107 0 -166.5 88.5t-59.5 253.5 q0 178 65 474q23 104 23 114q0 25 -7 30t-30 5q-8 0 -108 -11q-110 -13 -126 -13q-127 0 -148.5 22.5t-21.5 51.5zM540 284q0 -151 119 -151q134 0 300 160t166 311q0 62 -33 104t-91 42q-79 0 -155.5 -39.5t-170.5 -127.5q-36 -34 -57.5 -52.5t-57.5 -24.5 q-21 -111 -20 -222z" />
<glyph unicode="&#x44b;" horiz-adv-x="1520" d="M129 325q0 179 45 396t72 290q11 31 20 63q10 40 99 59q13 9 29 9q25 0 42 -67q0 -43 -23 -109q-68 -189 -68 -264q0 -20 12 -22q230 221 426 221q121 0 203 -91.5t82 -167.5q0 -232 -236.5 -445.5t-476.5 -213.5q-107 0 -166.5 88.5t-59.5 253.5zM298 284 q0 -151 119 -151q134 0 300 160t166 311q0 62 -33 104t-91 42q-79 0 -155.5 -39.5t-170.5 -127.5q-36 -34 -57.5 -52.5t-57.5 -24.5q-20 -111 -20 -222zM1150 178q0 177 77 594q28 152 28 184q0 63 23 107.5t65 44.5q51 0 80.5 -24.5t29.5 -54.5t-14 -83q-78 -285 -96 -399 t-18 -271q0 -76 21 -171q4 -18 4 -30q0 -18 -33 -46.5t-70 -28.5q-97 0 -97 178z" />
<glyph unicode="&#x44c;" horiz-adv-x="1128" d="M129 325q0 179 45 396t72 290q11 31 20 63q10 40 99 59q13 9 29 9q25 0 42 -67q0 -43 -23 -109q-68 -189 -68 -264q0 -20 12 -22q230 221 426 221q121 0 203 -91.5t82 -167.5q0 -232 -236.5 -445.5t-476.5 -213.5q-107 0 -166.5 88.5t-59.5 253.5zM298 284 q0 -151 119 -151q134 0 300 160t166 311q0 62 -33 104t-91 42q-79 0 -155.5 -39.5t-170.5 -127.5q-36 -34 -57.5 -52.5t-57.5 -24.5q-20 -111 -20 -222z" />
<glyph unicode="&#x44d;" horiz-adv-x="1020" d="M51 196q0 29 29 45t57 16q23 0 38 -12t40 -61q38 -74 138 -74q114 0 227.5 65.5t154 175t40.5 136.5q0 22 -17 22q-13 0 -131 -24t-261 -24q-34 0 -56 21.5t-22 47.5q0 46 109 69q22 4 25 5q37 7 84 12q221 21 273 46q-9 114 -62 182.5t-132 68.5q-133 0 -271 -113 q-57 -47 -69.5 -55t-31.5 -8q-65 0 -65 69q0 100 160 174.5t317 74.5q88 0 178.5 -61.5t124.5 -185.5t34 -218q0 -218 -159.5 -422t-506.5 -204q-94 0 -169.5 79.5t-75.5 152.5z" />
<glyph unicode="&#x44e;" horiz-adv-x="1825" d="M141 72l4 88q0 16 22 154q27 170 51 534q8 117 11.5 144t36 52.5t71.5 25.5q72 0 72 -59q0 -9 -23 -150q-24 -141 -24 -219q0 -55 38 -55q83 0 273.5 16.5t193.5 29.5q2 5 5 10l7 12q91 223 228.5 342.5t300.5 119.5q160 0 259.5 -123t99.5 -293q0 -260 -205.5 -482 t-427.5 -222q-136 0 -225.5 104t-89.5 256l-2 41q-2 35 -4.5 44t-20.5 9h-173q-96 -1 -166 -14t-83.5 -25t-20.5 -53q-11 -64 -19 -93q-9 -34 -9 -71l4 -84q0 -45 -24.5 -95.5t-77.5 -50.5q-82 0 -82 107zM995 384q0 -101 42.5 -165t112.5 -64q149 0 299 163.5t150 363.5 q0 123 -57.5 199.5t-154.5 76.5q-161 0 -276.5 -197.5t-115.5 -376.5z" />
<glyph unicode="&#x44f;" horiz-adv-x="1089" d="M59 52q0 25 102 113q28 24 54 42q148 101 294 240l-109 -1q-54 4 -128.5 44.5t-91 91t-16.5 95.5q0 144 155 261t374 159q25 0 86 12q61 11 69 11q10 0 49 -10l33 6q31 0 64 -20.5t41 -50.5q0 -27 -42 -119q-34 -74 -70 -294t-36 -357q0 -60 12 -161q5 -48 5 -80 q0 -17 -29.5 -35t-53.5 -18q-62 0 -79.5 28t-17.5 115l9 323q-150 -125 -214 -185q-73 -67 -102 -89q-138 -111 -200 -189q-10 -12 -31 -25t-29 -13q-44 0 -71 42t-27 64zM326 666q0 -36 44.5 -62t127.5 -26q150 0 230 29q24 16 39 66l67 274q-11 20 -25 20 q-140 0 -311.5 -87.5t-171.5 -213.5z" />
<glyph unicode="&#x451;" horiz-adv-x="1065" d="M100 309q0 286 193 544t422 258q75 0 122.5 -49t47.5 -118q0 -154 -151 -295t-404 -277q-52 -27 -52 -70q0 -83 48 -133t142 -50q215 0 439 238q33 33 50 33q32 0 32 -51q0 -102 -180.5 -246t-372.5 -144q-161 0 -248.5 95t-87.5 265zM294 495q424 252 424 405 q0 60 -54 60q-92 0 -207.5 -135t-162.5 -330zM316 1271q0 125 69 125q64 0 102.5 -35t38.5 -98q0 -45 -100 -45q-23 0 -66.5 15t-43.5 38zM710 1335q0 39 18.5 57t97.5 37l15 4q28 8 48.5 -14t20.5 -63q0 -111 -109 -111q-38 0 -64.5 26.5t-26.5 63.5z" />
<glyph unicode="&#x452;" horiz-adv-x="1210" d="M30 1124q0 104 113 104q14 0 43 5t60 8q32 3 63 8q30 5 44 5q28 0 28 175l-3 103q0 48 46.5 84.5t96.5 36.5q67 0 69 -76q3 -20 -12 -139q-13 -98 -13 -127q0 -27 6 -34t32 -7q36 0 150 19q187 22 230 22q41 0 41 -38q0 -41 -29 -61t-207 -53q-236 -45 -244 -51 q-9 -5 -31 -150t-18 -162q234 188 367 188q247 0 272 -469l1 -19q6 -119 -44.5 -389.5t-208 -426t-353.5 -155.5q-103 0 -164.5 40.5t-61.5 90.5q0 83 44 83q28 0 74 -23q49 -26 107 -26q176 0 290 172.5t141 648.5q-14 133 -52.5 218t-88.5 85q-27 0 -82.5 -28 t-122.5 -82.5t-102 -97t-40 -60.5t-27.5 -230t-22.5 -222q0 -49 -32 -87t-68 -38q-25 0 -47 8q-49 31 -49 82q0 57 8 105q46 194 81 493.5t35 387.5q0 24 -5.5 30.5t-27.5 6.5q-25 0 -98 -13q-96 -18 -145 -18q-43 0 -43 73z" />
<glyph unicode="&#x453;" horiz-adv-x="994" d="M108 194q-10 101 62.5 212t364.5 258q186 94 186 171q0 41 -34 63t-59 22q-75 0 -288 -106q-17 -9 -20 -9q-82 0 -82 58q0 94 162 156.5t282 62.5q75 0 157 -59.5t82 -159.5q0 -82 -53 -158t-265 -193q-174 -96 -235.5 -158t-61.5 -140q0 -57 53 -75t80 -18q188 0 336 78 q51 26 76 26q52 0 52 -58q0 -88 -142 -147t-360 -59q-104 0 -193 59.5t-98 152.5zM584 1275q0 51 153.5 167t275.5 184q46 26 69 45q17 14 18 11q17 0 39.5 -37t22.5 -57q0 -12 -19 -38t-32 -34q-4 -2 -10 -6q-7 -4 -18 -9q-67 -31 -278 -192q-87 -67 -132 -96l-23 -14 q-26 0 -46 25t-20 51z" />
<glyph unicode="&#x454;" horiz-adv-x="989" d="M74 309q0 286 193 544t422 258q75 0 122.5 -49t47.5 -118q0 -144 -72 -144q-95 0 -95 100q0 60 -54 60q-70 0 -158 -78.5t-153 -209.5l-3 -13q-15 -47 24 -47l314 19q42 0 42 -70q0 -66 -339 -100l-9 -1q-81 -9 -101 -55q-3 -30 -3 -73v-30q0 -83 48 -133t142 -50 q215 0 439 238q33 33 50 33q32 0 32 -51q0 -102 -180.5 -246t-372.5 -144q-161 0 -248.5 95t-87.5 265z" />
<glyph unicode="&#x455;" horiz-adv-x="869" d="M20 46q0 38 36.5 56t73.5 18q15 0 57 -10q41 -10 54 -10q111 0 238 37t157 92q0 65 -160 148q-203 104 -274.5 166.5t-71.5 139.5q0 199 199.5 330t325.5 131q81 0 117.5 -28t36.5 -97q0 -31 -26.5 -53t-41.5 -22q-11 0 -43 15q-32 14 -42 14q-50 0 -203 -73t-153 -165 q0 -56 54 -101.5t194 -111.5q113 -54 180.5 -115.5t67.5 -144.5q0 -153 -211 -239.5t-403 -86.5q-162 0 -162 110z" />
<glyph unicode="&#x456;" horiz-adv-x="592" d="M149 124q0 184 76 582q26 139 26 171q0 63 23 107.5t65 44.5q51 0 80.5 -24.5t29.5 -54.5t-14 -79q-75 -264 -93 -378t-18 -271q0 -76 21 -171q4 -18 4 -30q0 -18 -33 -46.5t-70 -28.5q-97 0 -97 178zM385 1528q0 40 47.5 81.5t105.5 41.5q29 0 65 -22.5t36 -43.5 q0 -33 -24.5 -112t-78 -106.5t-81.5 -27.5q-21 0 -32 45q-4 14 -11 31q-27 65 -27 113z" />
<glyph unicode="&#x457;" horiz-adv-x="592" d="M105 1240q0 125 69 125q64 0 102.5 -35t38.5 -98q0 -45 -100 -45q-23 0 -66.5 15t-43.5 38zM178 124q0 184 76 582q26 139 26 171q0 63 23 107.5t65 44.5q51 0 80.5 -24.5t29.5 -54.5t-14 -79q-75 -264 -93 -378t-18 -271q0 -76 21 -171q4 -18 4 -30q0 -18 -33 -46.5 t-70 -28.5q-97 0 -97 178zM499 1304q0 39 18.5 57t97.5 37l15 4q28 8 48.5 -14t20.5 -63q0 -111 -109 -111q-38 0 -64.5 26.5t-26.5 63.5z" />
<glyph unicode="&#x458;" horiz-adv-x="660" d="M-335 -364q0 20 14 39.5t21 19.5t31 -20q157 -138 253 -138q79 0 136 75.5t82 280t47 635.5q15 311 26.5 395t47.5 117.5t92 33.5q29 0 54.5 -22.5t25.5 -54.5q0 -18 -7 -49q-73 -316 -95 -823q-14 -306 -57 -453t-132.5 -227t-196.5 -80q-119 0 -230.5 99.5 t-111.5 171.5zM328 1489q0 108 84 128h3q28 0 84 -20t73.5 -33.5t17.5 -45.5q0 -62 -57 -108.5t-85 -46.5q-48 0 -84 42t-36 84z" />
<glyph unicode="&#x459;" horiz-adv-x="1817" d="M-3 6q0 32 16.5 53.5t78.5 59.5q174 104 603 793q75 122 106 145q19 21 81.5 42.5t98.5 21.5q32 0 82 -27t50 -53q0 -11 -14 -56q-68 -221 -68 -290q0 -10 14 -15q230 221 426 221q121 0 203 -91.5t82 -167.5q0 -232 -236.5 -445.5t-476.5 -213.5q-107 0 -166.5 88.5 t-59.5 253.5q0 164 74 485q13 59 13 89q0 14 -18 14t-56 -51t-163 -262q-143 -243 -314.5 -459.5t-277.5 -216.5q-37 0 -57.5 25.5t-20.5 56.5zM986 284q0 -151 119 -151q134 0 300 160t166 311q0 62 -33 104t-91 42q-79 0 -155.5 -39.5t-170.5 -127.5q-36 -34 -57.5 -52.5 t-57.5 -24.5q-21 -111 -20 -222z" />
<glyph unicode="&#x45a;" horiz-adv-x="1888" d="M110 90q0 18 16 118l51 335q60 419 98 486.5t84 67.5q84 0 84 -71q0 -38 -25 -118q-61 -203 -61 -326q0 -40 57 -40q477 0 511 163q53 235 80 306q12 31 21 63q10 40 99 59q13 9 29 9q25 0 42 -67q0 -43 -23 -109q-68 -189 -68 -264q0 -20 12 -22q230 221 426 221 q121 0 203 -91.5t82 -167.5q0 -232 -236.5 -445.5t-476.5 -213.5q-207 0 -222 304l-2 65q-1 17 -0.5 57.5t-35.5 40.5q-17 0 -112 -17q-234 -42 -398 -48q-52 -91 -52 -245q0 -192 -65 -192q-52 0 -85 23t-33 119zM1058 284q0 -151 119 -151q134 0 300 160t166 311 q0 62 -33 104t-91 42q-79 0 -155.5 -39.5t-170.5 -127.5q-36 -34 -57.5 -52.5t-57.5 -24.5q-21 -111 -20 -222z" />
<glyph unicode="&#x45b;" horiz-adv-x="1343" d="M3 1002q0 20 14 35q29 46 239 89l38 327q8 74 41.5 131.5t64.5 57.5q43 0 78 -35t35 -97q0 -139 -48 -341q62 13 145 26q105 15 212 45q51 15 83 15q14 0 32 -14t18 -31q0 -22 -11 -40l-16 -28q-20 -27 -100.5 -48.5t-402.5 -78.5q-40 -142 -92 -414.5t-52 -302.5 q0 -10 15 -12q353 649 618 649q80 0 125.5 -63t58.5 -313q9 -190 37 -276t84 -142q17 -17 17 -41q0 -26 -30 -48t-64 -22q-87 0 -149 106t-69 363q-5 174 -21 215t-51 41q-29 0 -74 -30.5t-115 -112.5t-169 -250l-151 -256q-91 -159 -160 -159q-44 0 -74 26t-30 64 q0 28 16 108q91 471 140 828q-40 -9 -100 -19l-45 -7q-39 -7 -45 -7q-42 19 -42 62z" />
<glyph unicode="&#x45c;" horiz-adv-x="1175" d="M110 13q0 36 27 170q48 244 96 805q4 54 41 97.5t84 43.5q26 0 43.5 -28t17.5 -72q0 -35 -12 -80q-57 -207 -71 -423q237 41 425 306q88 123 154.5 174.5t141.5 51.5q30 0 60 -27t30 -64q0 -49 -93 -77q-49 -15 -92 -51t-163 -172q-94 -106 -169 -149q-7 -4 -7 -7 q0 -4 9 -8q73 -39 154 -151q118 -163 177 -205.5t135 -42.5l33 1q35 2 35 -31q0 -38 -43 -79t-142 -41q-76 0 -147.5 65.5t-163.5 212.5q-53 87 -99 132t-102 45q-12 0 -74 -20t-69.5 -38.5t-11 -133t-3.5 -184.5q0 -37 -35 -66t-76 -29q-42 0 -66 24.5t-24 50.5zM557 1234 q0 51 153.5 167t275.5 184q46 26 69 45q17 14 18 11q17 0 39.5 -37t22.5 -57q0 -12 -19 -38t-32 -34q-4 -2 -10 -6q-7 -4 -18 -9q-67 -31 -278 -192q-87 -67 -132 -96l-23 -14q-26 0 -46 25t-20 51z" />
<glyph unicode="&#x45e;" horiz-adv-x="1210" d="M20 -279q0 33 15.5 65t39.5 32q12 0 26 -19q131 -201 403 -201q173 0 259 211.5t109 543.5q-152 -143 -304 -224t-233 -81q-93 0 -148.5 79.5t-55.5 195.5q0 169 64.5 399.5t98.5 261.5t90 31q30 0 47 -35.5t17 -72.5q0 -25 -23 -65q-131 -227 -131 -469q0 -56 21 -98.5 t64 -42.5q55 0 135.5 33.5t181.5 109.5t136 123t49.5 107t20.5 260t97 200q54 0 70 -28.5t16 -108.5q0 -60 -18 -260q-4 -45 -5 -83q-29 -534 -160 -837t-381 -303q-196 0 -348.5 102.5t-152.5 173.5zM308 1475q0 26 7 43.5t17.5 28t23.5 14.5t25 4q30 0 50 -11.5t22 -35.5 q4 -46 18.5 -86t43.5 -68q29 -29 77 -47.5t114 -18.5q16 0 37.5 3t43.5 9t42.5 14t35.5 18q24 16 41.5 38t30 46t21 48t14.5 44q10 30 29 43t39 13q37 0 56 -21t19 -67q0 -18 -10.5 -47.5t-29.5 -61.5t-46 -64t-61 -55q-24 -17 -57.5 -31.5t-70.5 -24.5t-75.5 -15.5 t-73.5 -5.5q-57 0 -110 13.5t-98 38t-81 58.5t-60 75q-7 12 -13.5 29t-11 33.5t-7 29.5t-2.5 17z" />
<glyph unicode="&#x45f;" horiz-adv-x="1192" d="M125 298q0 131 63 386q53 213 53 299q29 60 91 60q42 0 67 -29.5t25 -61.5q0 -70 -49 -199q-93 -251 -93 -431q0 -164 76 -164q97 0 247 165t257 460q42 118 68.5 153.5t71.5 35.5q68 0 68 -90q0 -11 -19 -73q-60 -219 -60 -414q0 -234 77 -303q40 -37 40 -60 q0 -28 -40.5 -51t-73.5 -23q-70 0 -113 104t-43 307v33q0 16 1 33q-208 -343 -408 -429q-13 -18 -34 -168l-1 -13q-2 -26 3 -91l8 -105q-9 -34 -49.5 -55t-70.5 -21q-58 0 -58 78q0 59 15.5 153.5t43.5 169.5q6 16 8 35q-171 61 -171 309z" />
<glyph unicode="&#x490;" horiz-adv-x="1360" d="M201 33q0 62 14 155q4 26 8 64q0 9 59 383q21 133 21 139l47 405l-5 208q0 61 34 96.5t88 35.5q31 0 56 -6q133 -35 247 -35l398 4q30 0 70 14t45 41t5 153q0 39 39 63.5t80 24.5q64 0 64 -74q0 -56 -12 -111q-13 -51 -19 -88q-36 -209 -120 -209q-51 0 -111 5 q-35 5 -81 5q-77 0 -215 -7q-139 -7 -233 -7l-78 18q-55 0 -65 -71l-76 -631q-32 -266 -32 -325q0 -45 7 -99q6 -54 6 -108q0 -60 -28.5 -101.5t-77.5 -41.5q-57 0 -96 36.5t-39 63.5z" />
<glyph unicode="&#x491;" horiz-adv-x="938" d="M110 48q0 27 33 79q56 98 60 188q4 88 10 135q24 182 24 276l-3 149q0 94 13 130t49.5 63t67.5 27q105 0 256 -17q47 -6 59 -6q73 0 89 32t16 62l-5 65q0 61 63 61q86 0 86 -61q0 -18 -5 -37q-12 -41 -20 -87l-4 -24q-20 -109 -56.5 -143.5t-156.5 -34.5q-52 0 -163 14 q-64 8 -68 8q-43 0 -43 -88q0 -83 -27 -355l-37 -342q-10 -68 -44.5 -120.5t-110.5 -52.5q-83 0 -83 79z" />
<glyph unicode="&#x2000;" horiz-adv-x="1094" />
<glyph unicode="&#x2001;" horiz-adv-x="2189" />
<glyph unicode="&#x2002;" horiz-adv-x="1094" />
<glyph unicode="&#x2003;" horiz-adv-x="2189" />
<glyph unicode="&#x2004;" horiz-adv-x="729" />
<glyph unicode="&#x2005;" horiz-adv-x="547" />
<glyph unicode="&#x2006;" horiz-adv-x="364" />
<glyph unicode="&#x2007;" horiz-adv-x="364" />
<glyph unicode="&#x2008;" horiz-adv-x="273" />
<glyph unicode="&#x2009;" horiz-adv-x="437" />
<glyph unicode="&#x200a;" horiz-adv-x="121" />
<glyph unicode="&#x2010;" horiz-adv-x="1313" d="M352 578q0 16 13.5 37.5t91.5 34t112 12.5l76 -11h73q186 0 277 13q44 6 88 6q19 0 77.5 -23t69.5 -38.5t11 -41.5q0 -37 -15 -52t-65 -15q-22 0 -62 13t-67 13q-11 0 -73 -5q-33 -3 -120 5q-67 6 -100 6q-46 0 -139 -6t-141 -6t-77.5 10.5t-29.5 47.5z" />
<glyph unicode="&#x2011;" horiz-adv-x="1313" d="M352 578q0 16 13.5 37.5t91.5 34t112 12.5l76 -11h73q186 0 277 13q44 6 88 6q19 0 77.5 -23t69.5 -38.5t11 -41.5q0 -37 -15 -52t-65 -15q-22 0 -62 13t-67 13q-11 0 -73 -5q-33 -3 -120 5q-67 6 -100 6q-46 0 -139 -6t-141 -6t-77.5 10.5t-29.5 47.5z" />
<glyph unicode="&#x2012;" horiz-adv-x="1313" d="M352 578q0 16 13.5 37.5t91.5 34t112 12.5l76 -11h73q186 0 277 13q44 6 88 6q19 0 77.5 -23t69.5 -38.5t11 -41.5q0 -37 -15 -52t-65 -15q-22 0 -62 13t-67 13q-11 0 -73 -5q-33 -3 -120 5q-67 6 -100 6q-46 0 -139 -6t-141 -6t-77.5 10.5t-29.5 47.5z" />
<glyph unicode="&#x2013;" horiz-adv-x="1649" d="M305 584q0 9 15.5 32t32 28.5t99.5 7.5l349 20q37 0 121 -11q76 -10 114 -10q54 0 172 21q116 22 176 22q187 0 187 -100q0 -37 -13 -49.5t-51 -12.5q-25 0 -65 7q-46 8 -62 8q-59 0 -221 -29q-80 -10 -192 -10l-383 -4q-36 0 -89 14t-57 14q-25 0 -45 -5 q-23 -6 -55.5 9.5t-32.5 47.5z" />
<glyph unicode="&#x2014;" horiz-adv-x="2341" d="M322 543q0 54 32 77t176 23q35 0 69 6q17 4 28 6q158 21 342 21l641 -10q16 0 312 16q74 4 130 4q41 0 86 -12.5t45 -40.5q0 -22 -23.5 -66.5t-41.5 -44.5h-353q-18 0 -60 -2l-169 -7l-11 -1h-3l-422 10q-221 0 -410 -15l-71 -4q-182 -11 -234 -11q-6 0 -23 7 q-18 7 -30 7q-10 13 -10 37z" />
<glyph unicode="&#x2018;" horiz-adv-x="637" d="M152 1073q0 85 86.5 202.5t162.5 143.5l15 8q7 3 15 8q32 17 48 17q12 0 42 -35t30 -45q0 -17 -20.5 -30.5t-43.5 -26.5q-21 -15 -41 -33q-26 -29 -59 -46q-37 -19 -48 -31t-24.5 -47t-13.5 -73q0 -27 29 -77q30 -48 30 -70q0 -19 -17.5 -46.5t-35.5 -27.5 q-54 0 -104.5 81.5t-50.5 127.5z" />
<glyph unicode="&#x2019;" horiz-adv-x="485" d="M143 1016q0 51 41 86q95 84 95 215q0 50 -85 125q-27 24 -32 30.5t-7 55.5t1 53q3 10 40.5 26.5t53.5 16.5t62 -47l27 -28q45 -45 69 -104q10 -21 10 -67q0 -85 -59.5 -255.5t-141.5 -170.5q-30 0 -52 18t-22 46z" />
<glyph unicode="&#x201a;" horiz-adv-x="485" d="M100 289q0 6 6 15l9 15q3 10 41.5 26.5t52.5 16.5t71 -56t77 -91.5t20 -97.5q0 -99 -61 -262.5t-140 -163.5q-30 0 -52 17.5t-22 45.5q0 50 41 86q95 84 95 215q0 31 -7 41q-4 12 -60 63q-54 53 -54 60q0 13 -8 37q-9 23 -9 33z" />
<glyph unicode="&#x201c;" horiz-adv-x="1192" d="M88 1143q0 42 31.5 115.5t66.5 95.5q27 16 113 94q39 35 55 42t49 7q78 0 78 -47q0 -41 -9 -56.5t-62 -32.5q-91 -30 -143 -97t-52 -107q0 -16 40 -43q55 -35 66 -49.5t11 -40.5q0 -19 -16 -43.5t-35 -24.5q-50 0 -121.5 67t-71.5 120zM651 1110q0 85 87.5 202.5 t156.5 143.5q10 3 34 17q28 16 46 16q12 0 42 -34t30 -46q0 -17 -20.5 -30.5t-43.5 -26.5l-17 -13q-71 -58 -112 -82q-26 -15 -41.5 -57t-15.5 -78q0 -29 28 -73q33 -49 33 -72q0 -18 -19 -47t-36 -29q-56 0 -104 82t-48 127z" />
<glyph unicode="&#x201d;" horiz-adv-x="1176" d="M109 977q0 40 18.5 57t65.5 32q46 14 62 33.5t33 61t17 70.5q0 27 -55 89q-51 57 -51 69q0 114 57 114q24 0 55 -34l35 -35q50 -35 71 -66t21 -92q0 -71 -38 -174.5t-59.5 -118.5t-86 -46.5t-74.5 -31.5q-28 0 -49.5 21.5t-21.5 50.5zM788 944q0 54 37 86q99 88 99 219 q0 38 -87 120q-36 35 -36 40l-4 100q4 10 40.5 26.5t57.5 16.5q10 0 64.5 -50t79 -91t24.5 -104q0 -102 -63 -264t-140 -162q-29 0 -50.5 17t-21.5 46z" />
<glyph unicode="&#x201e;" horiz-adv-x="1176" d="M82 -201q0 39 14.5 55t69.5 35q45 13 63 33.5t34 61.5t16 69q0 24 -54 85q-53 62 -53 73q0 115 57 115q5 0 66 -27.5t89 -98.5t28 -114q0 -60 -38 -160.5t-54 -113.5t-84 -48.5t-82 -35.5q-29 0 -50.5 21.5t-21.5 49.5zM762 -233q0 53 37 86q98 87 98 219q0 42 -84 113 q-39 35 -39 46q0 25 -4 52t0 49q3 10 41.5 26.5t56.5 16.5q17 0 92.5 -77.5t75.5 -168.5q0 -103 -63 -264.5t-139 -161.5q-29 0 -50.5 17.5t-21.5 46.5z" />
<glyph unicode="&#x2020;" horiz-adv-x="854" d="M27 883q0 31 83 57.5t267 26.5q9 0 23 10.5t14 21.5q0 143 50 284.5t103 141.5q23 0 45.5 -16.5t22.5 -36.5q0 -25 -28 -82q-28 -60 -32 -82q-5 -34 -21 -94q-19 -69 -19 -92q0 -7 10 -15t18 -8q23 0 87 8q65 9 106 9q21 0 44 -23t23 -49q0 -78 -100 -78l-70 2 q-79 2 -108 -11.5t-31 -35.5l-15 -179q-14 -157 -14 -198t-11 -162t-20 -134t-26 -22t-35 -9q-24 0 -63 44t-39 70q0 12 9 40q10 30 23 119t15 114q3 45 20 139q19 108 19 137q0 28 -7.5 35.5t-29.5 7.5q-23 0 -105 -14q-80 -14 -118 -14t-64 23t-26 65z" />
<glyph unicode="&#x2021;" horiz-adv-x="987" d="M14 446q0 22 29 41.5t171 31.5q103 11 135 24.5t38 24t12 70.5q6 56 13 89q9 36 15 113q6 78 9 96q-61 -14 -137 -14q-26 0 -76 -12q-55 -11 -69 -11q-80 0 -80 68q0 44 37.5 57t175.5 23q111 8 168 20q9 -2 15.5 144t6.5 186q0 20 31 39.5t49 19.5q70 0 70 -74 q0 -48 -22 -135q-21 -91 -21 -133q0 -12 28 -12q35 0 107 21q70 22 110 22q42 0 65.5 -9.5t23.5 -43.5q0 -11 -16.5 -36.5t-31.5 -30.5l-92 -23q-75 -19 -110 -19q-63 0 -101 -29q-2 -11 -6 -40l-36 -224q-7 -38 -7 -78q0 -20 31 -20q60 0 114 11q111 21 136 24l59 8 q32 4 37 4q23 0 38 -31t15 -53q0 -29 -33 -47.5t-65 -18.5q-8 0 -24 5q-17 4 -31 4q-16 -2 -77 -18q-60 -15 -95 -15q-10 0 -44 -4t-44 -4q-15 0 -27 -34.5t-12 -53.5q0 -46 -7 -107q-6 -67 -6 -98q0 -68 -63 -68q-38 0 -84 58q0 24 13 89q13 68 13 101v21q0 41 -8 41 q-72 0 -174 -21q-60 -12 -102 -12q-64 0 -64 73z" />
<glyph unicode="&#x2022;" horiz-adv-x="877" d="M156 809q0 94 79 161.5t177 67.5q41 0 63 -16q19 -14 58 -25q40 -12 53 -22q12 -11 59 -29q46 -18 62 -71.5t16 -151.5q0 -85 -21 -123.5t-66 -47.5q-44 -8 -77 -50q-31 -39 -70 -39q-171 0 -253 57q-6 8 -10 18l-9 21q-61 132 -61 250z" />
<glyph unicode="&#x2026;" horiz-adv-x="1663" d="M170 137q0 54 66 70t106 16q47 0 47 -24q0 -56 -43 -119.5t-96 -63.5q-48 0 -64 31.5t-16 89.5zM694 59q0 89 40 125.5t83 36.5q22 0 41 -24.5t19 -46.5q0 -53 -18.5 -102.5t-63.5 -49.5q-37 0 -69 15.5t-32 45.5zM1217 115q0 35 40.5 69.5t73.5 34.5q35 0 72 -28.5 t37 -77.5q0 -44 -35 -74.5t-80 -30.5q-40 0 -74 33t-34 74z" />
<glyph unicode="&#x202f;" horiz-adv-x="437" />
<glyph unicode="&#x2030;" horiz-adv-x="2101" d="M106 1051q0 125 146 254q3 2 28 35q34 45 48.5 55t38.5 10q57 0 86 -15.5t61 -55.5q22 -29 47 -29q28 0 69 10q44 10 68 10q62 0 235.5 -13t198.5 -42t25 -43q0 -39 -76 -82q-94 -54 -241 -357q-70 -141 -90 -174q-128 -215 -197 -397q-5 -14 -43 -72q-42 -64 -33 -96 q-31 -18 -53 -18q-27 0 -61.5 37.5t-34.5 68.5q0 15 74 144t108 180q140 220 328 632l34 74q-14 43 -184 43q-113 0 -119.5 -16t-9.5 -59q-5 -66 -65 -156t-193 -90q-195 0 -195 162zM236 1049q0 -16 25 -33t47 -17q59 0 109 59t54 134q-90 0 -137 29q-98 -104 -98 -172z M762 309q0 81 116 217t187 136q97 0 173.5 -51.5t76.5 -98.5v-5q0 -136 -118.5 -241.5t-268.5 -105.5q-46 0 -106 51t-60 98zM913 342q0 -22 15.5 -37.5t36.5 -15.5q23 0 113 27q16 5 28 6q35 7 57.5 66t22.5 99q0 15 -25.5 34.5t-42.5 19.5q-51 0 -128 -72.5t-77 -126.5z M1395 303q0 36 47.5 156.5t71.5 132.5t71 53t121 41q132 0 178 -10t93.5 -68.5t47.5 -113.5q0 -122 -82.5 -190t-218.5 -124q-7 -1 -55 -33q-49 -30 -61 -30h-35q-23 0 -46 9q-16 6 -44 15q-53 18 -70.5 57.5t-17.5 104.5zM1526 305q0 -59 106 -59q38 0 150 86.5t112 152.5 q0 18 -41.5 54t-70.5 36q-83 0 -169.5 -90t-86.5 -180z" />
<glyph unicode="&#x2039;" horiz-adv-x="809" d="M50 592q0 64 55 87q16 6 44 20q46 12 274 143q34 19 68 37q15 15 55 38q14 9 31 23l76 61q18 13 35 28q22 14 37 14q21 0 35.5 -20.5t14.5 -46.5q14 -47 -127.5 -147.5t-344.5 -206.5q-22 -12 -22 -16q77 -57 148 -105q70 -48 114 -82q18 -15 42 -30q33 -22 49 -38 q49 -34 49 -76q7 -22 -16 -54q-10 -30 -36 -30q-12 0 -58 30q-21 18 -48 37q-28 18 -54 43q-64 46 -84 66q-158 130 -268 154q-69 15 -69 71z" />
<glyph unicode="&#x203a;" horiz-adv-x="813" d="M81 239q0 91 472 363q4 7 -153 120q-172 118 -215 152.5t-43 53.5q-4 19 25 58t46 39q36 0 110 -81q125 -121 365 -248q4 -4 31 -15q61 -31 61 -55q0 -59 -107 -104q-24 -14 -40 -22t-24 -14q-43 -29 -137 -89l-72 -48q-30 -21 -50 -33q-151 -160 -195 -160q-30 0 -52 24 t-22 59z" />
<glyph unicode="&#x2044;" horiz-adv-x="1196" d="M2 2q0 27 25 64q33 51 70.5 100.5t66.5 85.5q14 18 35.5 43.5t49.5 57.5q56 66 81 96q40 48 84.5 107.5t95.5 131.5q104 150 177 258q38 55 77.5 112t81.5 120l293 428q5 8 20 8q29 0 69 -22t40 -48t-15.5 -48.5t-35.5 -51.5q-26 -36 -57 -78.5t-66 -91.5t-56.5 -78 t-29.5 -39q-17 -23 -36.5 -49.5t-39.5 -57.5q-20 -30 -41.5 -61.5t-44.5 -65.5q-22 -34 -39.5 -59.5t-30.5 -44.5q-42 -60 -84.5 -121t-88.5 -127t-91 -128.5t-91 -122.5q-90 -118 -161 -189q-23 -23 -45.5 -57t-44.5 -66q-7 -11 -16.5 -24.5t-20.5 -25.5t-23 -20t-24 -8 q-23 0 -54 25q-30 24 -30 47z" />
<glyph unicode="&#x205f;" horiz-adv-x="547" />
<glyph unicode="&#x20ac;" horiz-adv-x="1689" d="M81 481q0 32 19.5 68t46.5 36q188 0 220 12.5t45 70.5q13 63 43 141q-12 7 -90 7l-131 -1q-54 0 -68.5 17t-14.5 49q0 90 101 90l266 -5q136 276 314.5 384.5t323.5 108.5q153 0 266 -65.5t113 -114.5q0 -39 -34.5 -78t-71.5 -39q-3 0 -17 13q-94 80 -146 101t-149 21 q-96 0 -193.5 -66t-147 -145t-49.5 -99q0 -14 60 -14l222 4q8 0 90 7q81 6 89 6q67 0 67 -68q0 -94 -111 -94h-403q-62 0 -86.5 -15.5t-47 -81t-22.5 -99.5q0 -24 23 -24q56 0 224 17q172 17 245 17q86 0 86 -69q0 -36 -36.5 -60.5t-72.5 -28.5t-191 -10t-186 -6 q-85 0 -98 -22q13 -132 113.5 -223t229.5 -91q249 0 411 111q118 81 146 81q26 0 35.5 -19t9.5 -75q0 -33 -37.5 -81.5t-203 -113.5t-376.5 -65q-390 0 -491 378q-10 35 -17 57q-19 28 -23 28q-23 0 -111 -5q-89 -5 -112 -5q-15 0 -43.5 21.5t-28.5 36.5z" />
<glyph unicode="&#x2122;" horiz-adv-x="2120" d="M129 1266q0 31 40 63.5t72 41.5t147 20q96 8 138 14t57 19q17 14 48 14q12 0 37 -12q28 -11 37 -11q17 0 77 10q28 6 83 8q75 3 133 22q38 13 61 13q22 0 96 -22t80 -39q0 -56 5 -71q13 -31 48.5 -92t72.5 -98q53 -52 87 -77t45 -25q20 0 107 136q94 143 162 228t130 85 q21 0 38.5 -13t17.5 -30q0 -16 -6 -61q-9 -85 -9 -144q0 -54 19 -162t59 -130q27 -13 46.5 -46.5t19.5 -50.5q0 -61 -76 -61q-170 0 -189 413q0 11 -18 29q-48 -28 -67 -50t-58 -90q-8 -13 -12 -18q-3 -3 -44 -77q-86 -154 -143 -154q-37 0 -91 69q-18 28 -31 41 q-97 97 -160 172q-18 -4 -25 -38q-3 -23 -25 -119l-26 -117q-21 -121 -88 -121q-24 0 -55 22t-31 42q0 59 131 387q27 68 27 74q0 43 -47 43q-35 0 -189.5 -12t-184 -21t-70 -143.5t-40.5 -204.5q0 -18 9 -42q8 -25 8 -44q0 -32 -31.5 -66.5t-46.5 -34.5q-74 0 -74 146 q0 147 35 232q45 111 45 140q0 21 -61 21q-43 0 -125 -32t-103 -32q-92 0 -92 56z" />
<glyph unicode="&#x2202;" horiz-adv-x="1012" d="M56 322q0 258 194 426t608 176q-6 270 -62 354.5t-143 84.5q-62 0 -107 -38t-90 -129q-31 -64 -44.5 -78t-38.5 -14q-33 0 -58.5 25t-25.5 53q0 34 47.5 113.5t153.5 148t175 68.5q173 0 264 -156t91 -430q0 -366 -157 -668t-499 -302q-111 0 -209.5 96t-98.5 270z M249 320q0 -83 51 -137t119 -54q62 0 114.5 19.5t123.5 97t123.5 211.5t73.5 339q-332 -12 -468.5 -145.5t-136.5 -330.5z" />
<glyph unicode="&#x2206;" horiz-adv-x="1872" d="M90 111q0 73 71 195.5t292 394.5q39 48 59 77q27 42 96 129q194 247 256 376q40 85 105 142q6 7 8 24q1 17 4 30q8 17 45.5 32t54.5 15q47 0 99 -58.5t135 -294.5t123 -413q66 -288 172 -458q98 -158 98 -212q0 -80 -86 -80q-5 0 -36 4q-155 17 -232 17q-173 0 -568 -51 q-272 -35 -376 -35q-36 0 -64.5 21t-28.5 50q0 55 46 86t88 31q7 0 52 -5q17 -2 507 46q18 3 119 5q103 3 171 11q21 3 85.5 1.5t66.5 13.5q-140 281 -218 648q-70 332 -161 456q-14 7 -20 -13q-48 -138 -105 -205q-18 -21 -145 -204q-236 -338 -363 -504 q-131 -173 -182 -334q-6 -14 -35.5 -23.5t-46.5 -9.5q-37 0 -61.5 28.5t-24.5 66.5z" />
<glyph unicode="&#x220f;" horiz-adv-x="2171" d="M61 1288q0 60 42 90.5t169 30.5q151 0 226 14q23 4 120 11q100 6 136 12q225 40 508 59q30 2 76 10q233 41 454 41q139 0 268.5 -16.5t154.5 -26t40.5 -40t15.5 -56.5q0 -71 -160 -71q-39 0 -125 23q-87 22 -137 22q-38 0 -51.5 -21.5t-22 -187.5t-8.5 -199 q-2 -75 -19 -163q-4 -18 -5 -36l-17 -241q-11 -149 -32 -299q1 -51 0 -119t-18 -123.5t-42 -77.5t-57 -22q-88 0 -88 168q0 49 7 117l39 375q36 316 36 335l33 463q-20 18 -48 18q-73 0 -282.5 -24t-327.5 -43t-127 -27t-15 -24.5t-18 -151.5q-7 -78 -14 -133 q-35 -271 -42 -429q-4 -77 -8 -102q-42 -237 -42 -331l10 -81q0 -51 -36 -83.5t-76 -32.5q-51 0 -78 66t-27 127q0 7 31 259l82 654q20 164 20 174q5 27 0 55l-301 -6q-22 0 -74 -19q-52 -20 -59 -20q-111 0 -111 82z" />
<glyph unicode="&#x2211;" horiz-adv-x="1498" d="M60 33q0 63 63 145.5t254 224.5q127 95 313 269q25 24 58 49q42 39 37 59q0 25 -196 199t-297 246q-18 15 -18 53q0 33 37 59q11 8 22 25q-8 61 15.5 95t103.5 34q11 0 62 -7q124 -19 161.5 -21.5t252 -3t317.5 2.5h23q101 0 152.5 -23t51.5 -57q0 -16 -16.5 -39t-34 -30 t-135.5 -12t-244 -5h-106q-141 0 -300 13q-45 8 -162 16q4 -18 57.5 -80.5t92.5 -93.5q76 -58 237 -205.5t161 -189.5q0 -33 -60 -67q-21 -11 -100 -85q-132 -122 -215 -188q-66 -46 -138 -111q-24 -19 -56 -43q-135 -102 -151 -137q18 -8 52 -8q43 0 80 9q194 44 395 44 q90 0 180 -15q71 -12 142 -12q119 0 153.5 -13.5t34.5 -56.5q0 -32 -23.5 -60.5t-56.5 -28.5q-10 0 -189 14q-173 14 -242 14q-52 0 -105 -9t-110 -9q-13 0 -36 -6q-125 -35 -257 -35h-165q-95 0 -95 80z" />
<glyph unicode="&#x221a;" horiz-adv-x="1533" d="M101 837q0 38 29 69q263 115 328 115q48 0 53 -88q2 -40 50 -160q18 -48 39 -133q14 -79 41 -172l16 -69q34 -162 60 -195q34 23 77 207q28 123 106 291q27 59 97 226q58 139 95 203q20 31 104 194l97 183q27 47 71 47q28 0 52 -28t24 -60q0 -17 -50 -108l-139 -251 q-64 -111 -165 -367q-35 -89 -44 -107q-22 -48 -36 -99q-15 -52 -38 -103q-6 -12 -10 -36q-20 -124 -78 -248l-69 -149q-28 -61 -81 -61q-64 0 -126 107t-107 345q-25 135 -74 287q-19 58 -33 111q-16 59 -39 59q-15 0 -109 -36q-51 -19 -75.5 -25.5t-24.5 -1.5 q-41 8 -41 53z" />
<glyph unicode="&#x221e;" horiz-adv-x="1460" d="M154 716q0 115 73 191t173 76q153 0 289 -171q112 143 183.5 187.5t149.5 44.5q106 0 197 -77t91 -244q0 -189 -94 -262t-194 -73q-68 0 -136.5 36t-196.5 196q-136 -171 -289 -171q-102 0 -174 76t-72 191zM265 719q0 -72 40 -114t97 -42q101 0 218 153 q-120 157 -220 157q-60 0 -97.5 -42.5t-37.5 -111.5zM758 717q57 -90 122.5 -154t139.5 -64q75 0 127 56t52 158q0 106 -53 162t-130 56q-66 0 -122.5 -52t-135.5 -162z" />
<glyph unicode="&#x222b;" horiz-adv-x="561" d="M-365 -386q0 20 14 39.5t21 19.5t31 -20q91 -80 125.5 -98t76.5 -18q133 0 183 186.5t78 692.5q9 153 42 348q3 73 32 220q22 109 34 186q93 583 438 583q89 0 151 -60.5t62 -150.5q0 -73 -34.5 -165.5t-78.5 -92.5q-33 0 -33 33l7 97q0 193 -108 193 q-105 0 -177.5 -185.5t-124.5 -639.5l-31 -278q-6 -56 -13 -93q-11 -124 -18 -286q-14 -306 -57 -453t-132.5 -227t-196.5 -80q-116 0 -203.5 86.5t-87.5 162.5z" />
<glyph unicode="&#x2248;" horiz-adv-x="1489" d="M75 834q0 56 125 158.5t222 102.5q94 0 157 -19t163 -84q57 -41 66 -44q101 -77 201 -77q37 0 64.5 15.5t81.5 66.5q67 62 100.5 83t71.5 21q64 0 64 -59q0 -76 -137.5 -180t-229.5 -104q-80 0 -147 23q-11 5 -26 10q-73 21 -100 42q-221 159 -297 159q-39 0 -78.5 -20 t-116.5 -91q-69 -64 -106 -64q-78 0 -78 61zM88 324q0 81 137 190t224 109q92 0 138 -17q11 -4 27 -7q69 -14 102 -36q70 -49 166 -96.5t132 -47.5q68 0 114.5 20.5t106.5 80.5q69 69 102 69q82 0 82 -63q0 -45 -105 -149t-274 -104q-111 0 -175 23t-176 93q-16 10 -21 12 q-98 67 -182 67q-48 0 -76 -14.5t-89 -75.5q-71 -77 -104 -95t-68 -18q-61 0 -61 59z" />
<glyph unicode="&#x2260;" horiz-adv-x="1192" d="M123 524q0 62 47 62q12 0 34 -13q23 -12 34 -12l118 4q7 0 37 -4t51 -4q14 24 40 72q37 68 80 133q19 29 36 57q-102 8 -201 8q-39 0 -101 -13t-91 -13q-15 0 -38.5 20t-23.5 35q0 80 111 80q34 0 108 4t111 4l193 23q45 105 65 139q7 13 36 88q8 22 39 41.5t48 19.5 q29 0 51.5 -18.5t22.5 -44.5q0 -29 -33 -76q-52 -64 -100 -166l126 2q63 1 90 -11.5t27 -41.5q0 -84 -59 -84q-204 0 -233 19q-20 -34 -69 -127q-43 -81 -77 -138q100 23 154 23q27 0 79 -6q53 -6 80 -6q6 0 36 9q32 9 40 9q24 0 50 -25t26 -51q0 -21 -20 -53 q-74 -20 -168 -20h-14q-19 0 -62 -5l-179 -9q-70 -7 -108 -7q-67 -101 -86 -137q-81 -168 -135 -168q-59 0 -59 57q0 64 131 252h-93q-27 0 -74 10.5t-59 20.5q-18 23 -18 61z" />
<glyph unicode="&#x2264;" horiz-adv-x="1169" d="M98 63q0 10 14.5 30t24 26t51.5 8l172 10q25 0 198 -5q81 -2 186 7q90 8 133 8q82 0 134 -19.5t52 -80.5q0 -38 -13.5 -49.5t-50.5 -11.5q-27 0 -62 7t-65 7q-84 0 -164 -6q-81 -6 -165 -6q-39 0 -117 6t-117 6q-36 0 -121 -8q-90 -9 -90 71zM147 670q0 72 89 129 q172 109 272 196q56 49 161.5 115t162.5 106.5t92 40.5q53 0 53 -86q0 -67 -303 -250q-83 -50 -92 -57q-28 -18 -80 -50q-110 -68 -158 -114l139 -61q77 -35 111 -47l178 -77q200 -87 220 -113t20 -58q0 -26 -28 -57t-58 -31q-11 0 -64 35q-200 118 -317 162 q-129 50 -263.5 111.5t-134.5 105.5z" />
<glyph unicode="&#x2265;" horiz-adv-x="1174" d="M102 63q0 14 17 35t27 24t76 9t143 6q27 0 197 -5q81 -2 187 7q90 8 132 8q82 0 134 -19.5t52 -80.5q0 -38 -13.5 -49.5t-49.5 -11.5q-25 0 -63 7q-35 7 -64 7h-48l-282 -12q-39 0 -117 6t-117 6q-36 0 -121 -8q-90 -9 -90 71zM174 1194q0 49 49 49q21 0 78 -51 q28 -18 99 -49q56 -23 100 -49q85 -54 266 -140q72 -31 157.5 -83.5t98 -73t12.5 -47.5q0 -33 -199 -149q-42 -25 -55 -36q-61 -47 -158 -112q-134 -89 -183 -129q-73 -62 -109 -62q-28 0 -54 21.5t-26 50.5q0 41 78 98t174 105q20 10 104 63l44 27q109 68 151 116 q-57 79 -289 178q-66 28 -94 42q-16 8 -63 23q-51 18 -116 75.5t-65 132.5z" />
<glyph unicode="&#x25ca;" horiz-adv-x="1154" d="M55 695v7q0 4 2 9l-1 8q0 25 21 56t88 115q31 39 55 77q76 118 151 215q8 11 22 33q92 141 118.5 175t72.5 34q40 0 72 -70q40 -79 140 -198l34 -44q38 -48 74 -90q58 -63 126 -161.5t68 -151.5q-1 -3 -1 -27t-31 -66.5t-77 -100.5q-32 -40 -56 -78q-76 -118 -151 -215 q-8 -11 -22 -32q-92 -142 -118.5 -176t-72.5 -34q-40 0 -72 70q-40 79 -139 199q-16 18 -35 43q-38 48 -74 90q-58 63 -126 161.5t-68 151.5zM209 691l5 -8q22 -40 169 -238t190 -246l14 2q19 7 119.5 139.5t130.5 190.5q92 163 99 171t3 19q-15 26 -142 201.5t-217 282.5 l-14 -2q-19 -7 -119.5 -139.5t-130.5 -190.5q-88 -155 -107 -182z" />
<glyph unicode="&#x25fc;" horiz-adv-x="1120" d="M0 0v1120h1120v-1120h-1120z" />
<glyph unicode="&#xfb01;" horiz-adv-x="1296" d="M121 856q0 43 65 93q50 39 61.5 87t26.5 133q51 310 159.5 447t276.5 137q89 0 151 -60.5t62 -150.5q0 -73 -34.5 -165.5t-78.5 -92.5q-33 0 -33 33l7 97q0 193 -108 193q-117 0 -194 -229.5t-77 -373.5q0 -46 60 -46q119 0 434 53q106 18 148 18q47 0 76.5 -24.5 t29.5 -54.5t-14 -79q-75 -264 -93 -378t-18 -271q0 -76 21 -171q4 -18 4 -30q0 -18 -33 -46.5t-70 -28.5q-97 0 -97 178q0 182 76 582q26 141 26 176q-308 -53 -407 -62q-145 -15 -164 -25q-67 -372 -67 -663q0 -87 8 -129q7 -39 7 -49q-7 -25 -38 -42t-62 -17 q-102 0 -102 149q0 71 47 402q29 203 29 308q0 18 -42 47q-43 28 -43 55zM1089 1528q0 40 47.5 81.5t105.5 41.5q29 0 65 -22.5t36 -43.5q0 -33 -24.5 -112t-78 -106.5t-81.5 -27.5q-21 0 -32 45q-4 14 -11 31q-27 65 -27 113z" />
<glyph unicode="&#xfb02;" horiz-adv-x="1357" d="M121 856q0 43 65 93q50 39 61.5 87t26.5 133q51 310 159.5 447t276.5 137q89 0 151 -60.5t62 -150.5q0 -73 -34.5 -165.5t-78.5 -92.5q-33 0 -33 33l7 97q0 193 -108 193q-117 0 -194 -229.5t-77 -373.5q0 -46 60 -46q147 0 324.5 30.5t209.5 70.5q11 0 33 -12 q59 359 103.5 502.5t118.5 143.5q72 0 72 -92q0 -82 -87 -390q-55 -194 -85 -428t-30 -367q0 -165 21 -328q4 -31 4 -45q0 -50 -34 -86t-72 -36q-53 0 -73.5 66t-20.5 213q0 282 63 716q-35 -39 -262 -69q-64 -9 -133 -20l-69 -7q-145 -15 -164 -25q-67 -372 -67 -663 q0 -87 8 -129q7 -39 7 -49q-7 -25 -38 -42t-62 -17q-102 0 -102 149q0 71 47 402q29 203 29 308q0 18 -42 47q-43 28 -43 55z" />
</font>
</defs>
</svg>
